<svg xmlns="http://www.w3.org/2000/svg" width="128" height="128" viewBox="0 0 128 128">
  <path d="M100.209375,34.1539228 C100.720669,33.425733 101.265556,32.6675092 101.844495,31.880387 L88.8486339,34.7789736 C87.7723744,35.0274477 86.6984657,34.356395 86.4499917,33.2801356 C86.2015176,32.2038761 86.8725702,31.1299674 87.9488297,30.8814933 L104.349,27.0952156 C106.331016,26.6376312 108.308703,27.8734271 108.766287,29.8554429 L112.552565,46.2556135 C112.801039,47.3318729 112.129986,48.4057816 111.053727,48.6542557 C109.977468,48.9027298 108.903559,48.2316771 108.655085,47.1554177 L105.56903,33.788248 L103.058464,37.0047038 C102.135264,38.2347894 101.279553,39.3285704 100.493357,40.2910363 L71.3156617,77.6725518 C70.5149243,78.6984306 68.9632128,78.6984306 68.1624754,77.6725518 L52.2773621,57.3210605 L18.5766827,100.497277 C17.8970461,101.368005 16.640227,101.522916 15.7694986,100.843279 C14.8987703,100.163642 14.7438598,98.9068232 15.4234964,98.0360948 L50.700769,52.8399987 C51.5015064,51.8141199 53.0532179,51.8141199 53.8539553,52.8399987 L69.7390686,73.19149 L100.209375,34.1539228 Z"/>
</svg>
