<svg xmlns="http://www.w3.org/2000/svg" width="128" height="128" viewBox="0 0 128 128">
  <path d="M44.148447,107.507793 C28.6813991,100.097137 18,84.2959555 18,66 C18,40.5949015 38.5949015,20 64,20 C89.4050985,20 110,40.5949015 110,66 C110,84.2959555 99.3186009,100.097137 83.851553,107.507793 L82.125331,103.898419 C96.2474182,97.1321682 106,82.7050028 106,66 C106,42.8040405 87.1959595,24 64,24 C40.8040405,24 22,42.8040405 22,66 C22,82.7050028 31.7525818,97.1321682 45.874669,103.898419 L44.148447,107.507793 Z M49.327113,96.6796729 C37.8949472,91.2022314 30,79.5230975 30,66 C30,47.2223185 45.2223185,32 64,32 C82.7776815,32 98,47.2223185 98,66 C98,79.5230975 90.1050528,91.2022314 78.672887,96.6796729 L76.946665,93.0702996 C87.0338701,88.237263 94,77.9321449 94,66 C94,49.4314575 80.5685425,36 64,36 C47.4314575,36 34,49.4314575 34,66 C34,77.9321449 40.9661299,88.237263 51.053335,93.0702996 L49.327113,96.6796729 Z M54.505779,85.851553 C47.1084952,82.3073262 42,74.7502396 42,66 C42,53.8497355 51.8497355,44 64,44 C76.1502645,44 86,53.8497355 86,66 C86,74.7502396 80.8915048,82.3073262 73.494221,85.851553 L71.767999,82.2421798 C77.8203221,79.3423578 82,73.1592869 82,66 C82,56.0588745 73.9411255,48 64,48 C54.0588745,48 46,56.0588745 46,66 C46,73.1592869 50.1796779,79.3423578 56.232001,82.2421798 L54.505779,85.851553 Z M59.684445,75.0234332 C56.3220433,73.412421 54,69.9773816 54,66 C54,60.4771525 58.4771525,56 64,56 C69.5228475,56 74,60.4771525 74,66 C74,69.9773816 71.6779567,73.412421 68.315555,75.0234332 L66.589333,71.4140599 C68.606774,70.4474526 70,68.386429 70,66 C70,62.6862915 67.3137085,60 64,60 C60.6862915,60 58,62.6862915 58,66 C58,68.386429 59.393226,70.4474526 61.410667,71.4140599 L59.684445,75.0234332 Z"/>
</svg>
