<svg xmlns="http://www.w3.org/2000/svg" width="128" height="128" viewBox="0 0 128 128">
  <path d="M36.435086,100.829697 C25.2422227,92.4390312 18,79.0652715 18,64 C18,38.5949015 38.5949015,18 64,18 C89.4050985,18 110,38.5949015 110,64 C110,79.0652715 102.757777,92.4390312 91.564914,100.829697 L89.0002974,97.7521572 C99.3151527,90.0993275 106,77.8303286 106,64 C106,40.8040405 87.1959595,22 64,22 C40.8040405,22 22,40.8040405 22,64 C22,77.8303286 28.6848473,90.0993275 38.9997026,97.7521572 L36.435086,100.829697 Z M44.1316391,91.5938334 C35.5717414,85.4196289 30,75.3604894 30,64 C30,45.2223185 45.2223185,30 64,30 C82.7776815,30 98,45.2223185 98,64 C98,75.3604894 92.4282586,85.4196289 83.8683609,91.5938334 L81.3003157,88.512179 C88.983541,83.0795713 94,74.125614 94,64 C94,47.4314575 80.5685425,34 64,34 C47.4314575,34 34,47.4314575 34,64 C34,74.125614 39.016459,83.0795713 46.6996843,88.512179 L44.1316391,91.5938334 Z M51.843743,82.3393087 C45.9108187,78.3987684 42,71.6560945 42,64 C42,51.8497355 51.8497355,42 64,42 C76.1502645,42 86,51.8497355 86,64 C86,71.6560945 82.0891813,78.3987684 76.156257,82.3393087 L73.5766493,79.2437795 C78.6372611,76.05784 82,70.4216249 82,64 C82,54.0588745 73.9411255,46 64,46 C54.0588745,46 46,54.0588745 46,64 C46,70.4216249 49.3627389,76.05784 54.4233507,79.2437795 L51.843743,82.3393087 Z M67.0728851,77.6874621 L88.5327187,103.439262 C89.946975,105.13637 89.7176787,107.658629 88.0205711,109.072885 C87.3017111,109.671935 86.3955796,110 85.4598335,110 L42.5401665,110 C40.3310275,110 38.5401665,108.209139 38.5401665,106 C38.5401665,105.064254 38.8682313,104.158122 39.4672813,103.439262 L60.9271149,77.6874621 C62.3413712,75.9903546 64.86363,75.7610583 66.5607376,77.1753146 C66.7465899,77.3301915 66.9180082,77.5016099 67.0728851,77.6874621 Z"/>
</svg>
