<svg xmlns="http://www.w3.org/2000/svg" width="128" height="128" viewBox="0 0 128 128">
  <path d="M25.1411067 86C23.8659243 86 23.3798726 86.1018856 22.9558583 86.3286509 22.6751544 86.478773 22.478773 86.6751544 22.3286509 86.9558583 22.1018856 87.3798726 22 87.8659243 22 89.1411067L22 90.8588933C22 92.1340757 22.1018856 92.6201274 22.3286509 93.0441417 22.478773 93.3248456 22.6751544 93.521227 22.9558583 93.6713491 23.3798726 93.8981144 23.8659243 94 25.1411067 94L26.8588933 94C28.1340757 94 28.6201274 93.8981144 29.0441417 93.6713491 29.3248456 93.521227 29.521227 93.3248456 29.6713491 93.0441417 29.8981144 92.6201274 30 92.1340757 30 90.8588933L30 89.1411067C30 87.8659243 29.8981144 87.3798726 29.6713491 86.9558583 29.521227 86.6751544 29.3248456 86.478773 29.0441417 86.3286509 28.6201274 86.1018856 28.1340757 86 26.8588933 86L25.1411067 86zM25.1411067 82L26.8588933 82C28.8727908 82 29.9527593 82.2784768 30.9305371 82.8013981 31.9083149 83.3243194 32.6756806 84.0916851 33.1986019 85.0694629 33.7215232 86.0472407 34 87.1272092 34 89.1411067L34 90.8588933C34 92.8727908 33.7215232 93.9527593 33.1986019 94.9305371 32.6756806 95.9083149 31.9083149 96.6756806 30.9305371 97.1986019 29.9527593 97.7215232 28.8727908 98 26.8588933 98L25.1411067 98C23.1272092 98 22.0472407 97.7215232 21.0694629 97.1986019 20.0916851 96.6756806 19.3243194 95.9083149 18.8013981 94.9305371 18.2784768 93.9527593 18 92.8727908 18 90.8588933L18 89.1411067C18 87.1272092 18.2784768 86.0472407 18.8013981 85.0694629 19.3243194 84.0916851 20.0916851 83.3243194 21.0694629 82.8013981 22.0472407 82.2784768 23.1272092 82 25.1411067 82zM77.1411067 60C75.8659243 60 75.3798726 60.1018856 74.9558583 60.3286509 74.6751544 60.478773 74.478773 60.6751544 74.3286509 60.9558583 74.1018856 61.3798726 74 61.8659243 74 63.1411067L74 90.8588933C74 92.1340757 74.1018856 92.6201274 74.3286509 93.0441417 74.478773 93.3248456 74.6751544 93.521227 74.9558583 93.6713491 75.3798726 93.8981144 75.8659243 94 77.1411067 94L78.8588933 94C80.1340757 94 80.6201274 93.8981144 81.0441417 93.6713491 81.3248456 93.521227 81.521227 93.3248456 81.6713491 93.0441417 81.8981144 92.6201274 82 92.1340757 82 90.8588933L82 63.1411067C82 61.8659243 81.8981144 61.3798726 81.6713491 60.9558583 81.521227 60.6751544 81.3248456 60.478773 81.0441417 60.3286509 80.6201274 60.1018856 80.1340757 60 78.8588933 60L77.1411067 60zM77.1411067 56L78.8588933 56C80.8727908 56 81.9527593 56.2784768 82.9305371 56.8013981 83.9083149 57.3243194 84.6756806 58.0916851 85.1986019 59.0694629 85.7215232 60.0472407 86 61.1272092 86 63.1411067L86 90.8588933C86 92.8727908 85.7215232 93.9527593 85.1986019 94.9305371 84.6756806 95.9083149 83.9083149 96.6756806 82.9305371 97.1986019 81.9527593 97.7215232 80.8727908 98 78.8588933 98L77.1411067 98C75.1272092 98 74.0472407 97.7215232 73.0694629 97.1986019 72.0916851 96.6756806 71.3243194 95.9083149 70.8013981 94.9305371 70.2784768 93.9527593 70 92.8727908 70 90.8588933L70 63.1411067C70 61.1272092 70.2784768 60.0472407 70.8013981 59.0694629 71.3243194 58.0916851 72.0916851 57.3243194 73.0694629 56.8013981 74.0472407 56.2784768 75.1272092 56 77.1411067 56zM51.1411067 76C49.8659243 76 49.3798726 76.1018856 48.9558583 76.3286509 48.6751544 76.478773 48.478773 76.6751544 48.3286509 76.9558583 48.1018856 77.3798726 48 77.8659243 48 79.1411067L48 90.8588933C48 92.1340757 48.1018856 92.6201274 48.3286509 93.0441417 48.478773 93.3248456 48.6751544 93.521227 48.9558583 93.6713491 49.3798726 93.8981144 49.8659243 94 51.1411067 94L52.8588933 94C54.1340757 94 54.6201274 93.8981144 55.0441417 93.6713491 55.3248456 93.521227 55.521227 93.3248456 55.6713491 93.0441417 55.8981144 92.6201274 56 92.1340757 56 90.8588933L56 79.1411067C56 77.8659243 55.8981144 77.3798726 55.6713491 76.9558583 55.521227 76.6751544 55.3248456 76.478773 55.0441417 76.3286509 54.6201274 76.1018856 54.1340757 76 52.8588933 76L51.1411067 76zM51.1411067 72L52.8588933 72C54.8727908 72 55.9527593 72.2784768 56.9305371 72.8013981 57.9083149 73.3243194 58.6756806 74.0916851 59.1986019 75.0694629 59.7215232 76.0472407 60 77.1272092 60 79.1411067L60 90.8588933C60 92.8727908 59.7215232 93.9527593 59.1986019 94.9305371 58.6756806 95.9083149 57.9083149 96.6756806 56.9305371 97.1986019 55.9527593 97.7215232 54.8727908 98 52.8588933 98L51.1411067 98C49.1272092 98 48.0472407 97.7215232 47.0694629 97.1986019 46.0916851 96.6756806 45.3243194 95.9083149 44.8013981 94.9305371 44.2784768 93.9527593 44 92.8727908 44 90.8588933L44 79.1411067C44 77.1272092 44.2784768 76.0472407 44.8013981 75.0694629 45.3243194 74.0916851 46.0916851 73.3243194 47.0694629 72.8013981 48.0472407 72.2784768 49.1272092 72 51.1411067 72zM103.141107 34C101.865924 34 101.379873 34.1018856 100.955858 34.3286509 100.675154 34.478773 100.478773 34.6751544 100.328651 34.9558583 100.101886 35.3798726 100 35.8659243 100 37.1411067L100 90.8588933C100 92.1340757 100.101886 92.6201274 100.328651 93.0441417 100.478773 93.3248456 100.675154 93.521227 100.955858 93.6713491 101.379873 93.8981144 101.865924 94 103.141107 94L104.858893 94C106.134076 94 106.620127 93.8981144 107.044142 93.6713491 107.324846 93.521227 107.521227 93.3248456 107.671349 93.0441417 107.898114 92.6201274 108 92.1340757 108 90.8588933L108 37.1411067C108 35.8659243 107.898114 35.3798726 107.671349 34.9558583 107.521227 34.6751544 107.324846 34.478773 107.044142 34.3286509 106.620127 34.1018856 106.134076 34 104.858893 34L103.141107 34zM103.141107 30L104.858893 30C106.872791 30 107.952759 30.2784768 108.930537 30.8013981 109.908315 31.3243194 110.675681 32.0916851 111.198602 33.0694629 111.721523 34.0472407 112 35.1272092 112 37.1411067L112 90.8588933C112 92.8727908 111.721523 93.9527593 111.198602 94.9305371 110.675681 95.9083149 109.908315 96.6756806 108.930537 97.1986019 107.952759 97.7215232 106.872791 98 104.858893 98L103.141107 98C101.127209 98 100.047241 97.7215232 99.0694629 97.1986019 98.0916851 96.6756806 97.3243194 95.9083149 96.8013981 94.9305371 96.2784768 93.9527593 96 92.8727908 96 90.8588933L96 37.1411067C96 35.1272092 96.2784768 34.0472407 96.8013981 33.0694629 97.3243194 32.0916851 98.0916851 31.3243194 99.0694629 30.8013981 100.047241 30.2784768 101.127209 30 103.141107 30z"/>
</svg>
