<svg xmlns="http://www.w3.org/2000/svg" width="128" height="128" viewBox="0 0 128 128">
  <path d="M37.6670546,73.6110181 L55.0580312,42.8041452 L49.1207211,31.9675596 C47.3343062,28.7070531 48.5292935,24.615715 51.7898,22.8293002 C55.0503064,21.0428853 59.1416445,22.2378726 60.9280594,25.498379 L62.848606,29.0036984 L64.8695729,25.4236999 C66.697232,22.1861325 70.8034093,21.0431759 74.0409767,22.8708349 C77.2785441,24.6984939 78.4215007,28.8046713 76.5938417,32.0422387 L70.4633736,42.901925 L87.2887295,73.6110181 L103.268293,73.6110181 C106.986112,73.6110181 110,76.6249061 110,80.3427254 C110,84.0605447 106.986112,87.0744327 103.268293,87.0744327 L94.6652658,87.0744327 L98.9986731,94.9836269 C100.785088,98.2441333 99.5901007,102.335471 96.3295942,104.121886 C93.0690878,105.908301 88.9777497,104.713314 87.1913348,101.452807 L79.3134965,87.0744327 L45.5272806,87.0744327 L37.325549,101.603214 C35.49789,104.840782 31.3917126,105.983738 28.1541452,104.156079 C24.9165778,102.32842 23.7736212,98.2222429 25.6012803,94.9846755 L30.0667399,87.0744327 L24.7317073,87.0744327 C21.013888,87.0744327 18,84.0605447 18,80.3427254 C18,76.6249061 21.013888,73.6110181 24.7317073,73.6110181 L37.6670546,73.6110181 Z M53.1275953,73.6110181 L71.9369601,73.6110181 L62.6727988,56.7023717 L53.1275953,73.6110181 Z"/>
</svg>
