<svg xmlns="http://www.w3.org/2000/svg" width="128" height="128" viewBox="0 0 128 128">
  <path d="M67.9896256,31.284454 L68.0208153,31.4558441 L77.3345238,40.7695526 C78.1155724,41.5506012 78.1155724,42.8169312 77.3345238,43.5979797 C76.5534752,44.3790283 75.2871452,44.3790283 74.5060967,43.5979797 L62.6043848,31.6962678 C61.1660228,30.2579059 61.1660228,27.9258603 62.6043848,26.4874983 L74.5060967,14.5857864 C75.2871452,13.8047379 76.5534752,13.8047379 77.3345238,14.5857864 C78.1155724,15.366835 78.1155724,16.633165 77.3345238,17.4142136 L67.5053915,27.2433458 C90.0876121,28.5407223 108,47.2643164 108,70.1715729 C108,93.9198171 88.7482442,113.171573 65,113.171573 C41.5859935,113.171573 22.5427971,94.4579101 22.0113992,71.1715729 L22,71.1715729 C22,70.0670034 22.8954305,69.1715729 24,69.1715729 C25.1045695,69.1715729 26,70.0670034 26,71.1715729 L26.0125708,71.1715729 C26.5430428,92.2485314 43.7952274,109.171573 65,109.171573 C86.5391052,109.171573 104,91.7106781 104,70.1715729 C104,49.6383582 88.1318948,32.8113382 67.9896256,31.284454 Z M59.7863636,73.3 L55.5045455,72.25 L57.1409091,58 L72.5636364,58 L72.5636364,62.5954545 L61.45,62.5954545 L60.6454545,69.4272727 L60.7681818,69.4272727 C61.1045471,69.0636345 61.6499962,68.7068199 62.4045455,68.3568182 C63.1590947,68.0068164 64.0681765,67.8318182 65.1318182,67.8318182 C66.76819,67.8318182 68.2204482,68.2113598 69.4886364,68.9704545 C70.7568245,69.7295493 71.7522691,70.7909023 72.475,72.1545455 C73.1977309,73.5181886 73.5590909,75.099991 73.5590909,76.9 C73.5590909,78.5818266 73.2113671,80.1363565 72.5159091,81.5636364 C71.8204511,82.9909162 70.7772797,84.138632 69.3863636,85.0068182 C67.9954476,85.8750043 66.2500105,86.3090909 64.15,86.3090909 C62.3227181,86.3090909 60.7340977,85.954549 59.3840909,85.2454545 C58.0340842,84.5363601 56.9795492,83.5454609 56.2204545,82.2727273 C55.4613598,80.9999936 55.0545457,79.5181903 55,77.8272727 L60.1681818,77.8272727 C60.3136371,78.981824 60.690906,79.9727231 61.3,80.8 C61.909094,81.6272769 62.8681753,82.0409091 64.1772727,82.0409091 C65.5772797,82.0409091 66.6386327,81.534096 67.3613636,80.5204545 C68.0840945,79.5068131 68.4454545,78.2954616 68.4454545,76.8863636 C68.4454545,75.222719 68.0295496,73.9545498 67.1977273,73.0818182 C66.3659049,72.2090865 65.2363708,71.7727273 63.8090909,71.7727273 C62.7636311,71.7727273 61.9295486,71.9295439 61.3068182,72.2431818 C60.6840878,72.5568198 60.1772747,72.909089 59.7863636,73.3 Z"/>
</svg>
