<svg xmlns="http://www.w3.org/2000/svg" width="128" height="128" viewBox="0 0 128 128">
  <path d="M67.9896256,31.284454 L68.0208153,31.4558441 L77.3345238,40.7695526 C78.1155724,41.5506012 78.1155724,42.8169312 77.3345238,43.5979797 C76.5534752,44.3790283 75.2871452,44.3790283 74.5060967,43.5979797 L62.6043848,31.6962678 C61.1660228,30.2579059 61.1660228,27.9258603 62.6043848,26.4874983 L74.5060967,14.5857864 C75.2871452,13.8047379 76.5534752,13.8047379 77.3345238,14.5857864 C78.1155724,15.366835 78.1155724,16.633165 77.3345238,17.4142136 L67.5053915,27.2433458 C90.0876121,28.5407223 108,47.2643164 108,70.1715729 C108,93.9198171 88.7482442,113.171573 65,113.171573 C41.5859935,113.171573 22.5427971,94.4579101 22.0113992,71.1715729 L22,71.1715729 C22,70.0670034 22.8954305,69.1715729 24,69.1715729 C25.1045695,69.1715729 26,70.0670034 26,71.1715729 L26.0125708,71.1715729 C26.5430428,92.2485314 43.7952274,109.171573 65,109.171573 C86.5391052,109.171573 104,91.7106781 104,70.1715729 C104,49.6383582 88.1318948,32.8113382 67.9896256,31.284454 Z M56.7318182,58 L56.7318182,85.9272727 L51.8090909,85.9272727 L51.8090909,64.9818182 L51.5909091,64.9818182 C51.2999985,65.4818207 50.6727321,65.9159073 49.7090909,66.2840909 C48.7454497,66.6522746 47.5090985,66.8363636 46,66.8363636 L46,62.5136364 C47.2272789,62.5136364 48.2272689,62.2977294 49,61.8659091 C49.7727311,61.4340888 50.3681797,60.9295483 50.7863636,60.3522727 C51.2045475,59.7749971 51.4999991,59.2545478 51.6727273,58.7909091 C51.8454554,58.3272704 51.9454544,58.0636367 51.9727273,58 L56.7318182,58 Z M83.269868,70.0369203 L83.269868,74.0042461 C83.269868,82.1548065 79.3970024,86.3920184 73.6619226,86.3920184 C67.8728656,86.3920184 64,82.1548065 64,74.0042461 L64,70.0369203 C64,62.2102233 67.8998542,58 73.6484283,58 C79.3835081,58 83.269868,62.2102233 83.269868,70.0369203 Z M78.0475718,74.7464329 L78.0475718,69.3082279 C78.0475718,64.8011299 76.374278,62.3991435 73.6484283,62.3991435 C70.9090843,62.3991435 69.2222962,64.8011299 69.2222962,69.3082279 L69.2222962,74.7464329 C69.2222962,79.523417 70.9225786,81.9523919 73.6619226,81.9523919 C76.3607837,81.9523919 78.0475718,79.523417 78.0475718,74.7464329 Z"/>
</svg>
