<svg xmlns="http://www.w3.org/2000/svg" width="128" height="128" viewBox="0 0 128 128">
  <path fill-rule="evenodd" d="M24,22.0696989 L49.6852536,22.0696989 C52.0317049,21.3513173 61.5277183,19 62.5,19 L85.5,19 C90.1944204,19 94,22.8055796 94,27.5 C94,28.6015047 93.7889171,29.6710637 93.3923298,30.661062 C96.6854736,32.0018 99,35.2352698 99,39 C99,40.7249323 98.5102192,42.3658619 97.6366203,43.7649763 C100.795677,45.1620772 103,48.323615 103,52 C103,54.408629 102.053821,56.5962662 100.512874,58.2115014 C103.195879,59.769468 105,62.6740465 105,66 C105,70.9705627 100.970563,75 96,75 L76.9899091,76.035634 C76.7085039,76.3814818 76.4415308,76.7071848 76.4284159,76.9939364 C76.5584213,77.5619126 76.9658067,78.5291763 77.7888544,80.1752717 C79.5875978,83.7727586 80.3086811,85.443114 80.7820828,87.2546922 C81.1397771,88.6234903 81.3155852,89.9278978 81.4952842,92.2497581 C81.5432111,92.8690149 81.722893,95.4012094 81.7470634,95.7311992 C81.8685338,97.3895863 81.9898555,98.8939422 82.1410722,100.56135 C82.7921442,107.740465 70.0082356,111.423215 66.824304,103.798236 C64.9235939,99.2463557 64.4813655,98.1498271 62.7027925,93.6588301 C61.6695538,91.0511737 60.7752286,88.8938308 58.860364,84.4395788 C54.2329469,73.6755373 53.9175618,72.9628339 52.8321007,70.9761294 C51.8596853,69.1963308 52.5770115,70.1700702 48.0001151,64.0696989 L24,64.0696989 L24,22.0696989 Z M56.6941682,24.3629952 C54.9268157,24.8040955 53.1488078,25.2646266 51.9998189,25.5723835 C51.9980246,32.5687981 51.8841519,36.2079462 51.9210917,40.6279583 C52,50.0696989 52,55.0696989 52,61.0696989 C56.9428392,67.6583296 57.8116332,71.8721386 62.5351796,82.8597907 C64.4645484,87.3477816 65.373426,89.5402286 66.4530558,92.2649863 C68.1920382,96.6560342 68.6261137,97.7323474 70.5154321,102.256946 C71.2014093,103.899746 72.8486047,104.453692 74.9332867,103.853143 C76.9005782,103.286411 78.2467577,101.90771 78.1574207,100.922626 C78.0039394,99.2302486 77.8808039,97.7034001 77.7577504,96.0234009 C77.7327538,95.6821312 77.5539642,93.1625112 77.5072104,92.5584126 C77.3444315,90.4551729 77.1956558,89.3513323 76.9120398,88.2660119 C76.5301894,86.8047751 75.8900893,85.3220134 74.2111456,81.9641261 C72.2203063,77.9824474 71.8691163,76.4481457 73.0212695,74.6315943 C73.2695826,74.2400894 74.2466496,73.0752371 74.3969682,72.8737519 C74.759493,72.3878285 75.3228615,72.0925724 75.928732,72.0709691 L95.928732,71.0012702 C98.7614237,71 101,68.7614237 101,66 C101,63.2385763 98.7614237,61 96,61 C94.8652162,61 93.9156402,60.1389062 93.8049972,59.0095292 L93.8037933,58.9972408 C93.796473,58.9225194 93.7939266,58.8474071 93.7961697,58.7723615 C93.8252997,57.7977613 94.6389838,57.0313063 95.613584,57.0604364 L95.6135837,57.0604469 C95.8511858,57.0675486 95.9799912,57.0706326 96,57.0696989 C98.6513729,56.9459695 99,54.6819731 99,52 C99,49.2385763 96.7614237,47 94,47 L93.6075866,47 C91.5811164,47 90.8396533,44.332822 92.5753758,43.2869498 C94.0692521,42.3868039 95,40.7750773 95,39 C95,36.2887892 92.838609,34.0730759 90.1353216,34.0017818 C88.3985464,33.9559776 87.5421298,31.8698316 88.7457487,30.6169199 C89.546681,29.7831864 90,28.6798281 90,27.5 C90,25.0147186 87.9852814,23 85.5,23 L62.5,23 C62.3788374,23 59.6423526,23.6271799 56.6941682,24.3629952 Z M28,60.0696989 L48,60.0696989 L48,26.0696989 L28,26.0696989 L28,60.0696989 Z"/>
</svg>
