<svg xmlns="http://www.w3.org/2000/svg" width="128" height="128" viewBox="0 0 128 128">
  <path d="M44,38 L44,29 C44,25.6862915 46.6862915,23 50,23 L78,23 C81.3137085,23 84,25.6862915 84,29 L84,38 L106.308344,38 C108.671149,38 109.677437,38.1312328 110.930537,38.8013981 C111.908315,39.3243194 112.675681,40.0916851 113.198602,41.0694629 C113.868767,42.3225631 114,43.3288515 114,45.6916556 L114,98.3083444 C114,100.671149 113.868767,101.677437 113.198602,102.930537 C112.675681,103.908315 111.908315,104.675681 110.930537,105.198602 C109.677437,105.868767 108.671149,106 106.308344,106 L21.6916556,106 C19.3288515,106 18.3225631,105.868767 17.0694629,105.198602 C16.0916851,104.675681 15.3243194,103.908315 14.8013981,102.930537 C14.1312328,101.677437 14,100.671149 14,98.3083444 L14,45.6916556 C14,43.3288515 14.1312328,42.3225631 14.8013981,41.0694629 C15.3243194,40.0916851 16.0916851,39.3243194 17.0694629,38.8013981 C18.3225631,38.1312328 19.3288515,38 21.6916556,38 L44,38 Z M90,42 L38,42 L38,102 L90,102 L90,42 Z M34,42 L21.6916556,42 C19.8570646,42 19.4083644,42.086648 18.9558583,42.3286509 C18.6751544,42.478773 18.478773,42.6751544 18.3286509,42.9558583 C18.086648,43.4083644 18,43.8570646 18,45.6916556 L18,98.3083444 C18,100.142935 18.086648,100.591636 18.3286509,101.044142 C18.478773,101.324846 18.6751544,101.521227 18.9558583,101.671349 C19.4083644,101.913352 19.8570646,102 21.6916556,102 L34,102 L34,42 Z M94,42 L94,102 L106.308344,102 C108.142935,102 108.591636,101.913352 109.044142,101.671349 C109.324846,101.521227 109.521227,101.324846 109.671349,101.044142 C109.913352,100.591636 110,100.142935 110,98.3083444 L110,45.6916556 C110,43.8570646 109.913352,43.4083644 109.671349,42.9558583 C109.521227,42.6751544 109.324846,42.478773 109.044142,42.3286509 C108.591636,42.086648 108.142935,42 106.308344,42 L94,42 Z M48,38 L80,38 L80,29 C80,27.8954305 79.1045695,27 78,27 L50,27 C48.8954305,27 48,27.8954305 48,29 L48,38 Z"/>
</svg>
