<svg xmlns="http://www.w3.org/2000/svg" width="128" height="128" viewBox="0 0 128 128">
  <path fill-rule="evenodd" d="M35,34 L93,34 C95.7614237,34 98,36.2385763 98,39 C98,41.7614237 95.7614237,44 93,44 L35,44 C32.2385763,44 30,41.7614237 30,39 C30,36.2385763 32.2385763,34 35,34 Z M35,60 L93,60 C95.7614237,60 98,62.2385763 98,65 C98,67.7614237 95.7614237,70 93,70 L35,70 C32.2385763,70 30,67.7614237 30,65 C30,62.2385763 32.2385763,60 35,60 Z M35,86 L93,86 C95.7614237,86 98,88.2385763 98,91 C98,93.7614237 95.7614237,96 93,96 L35,96 C32.2385763,96 30,93.7614237 30,91 C30,88.2385763 32.2385763,86 35,86 Z"/>
</svg>
