<svg xmlns="http://www.w3.org/2000/svg" width="128" height="128" viewBox="0 0 128 128">
  <path d="M21.6916556,42 L98.3083444,42 C100.982901,42 101.952759,42.2784768 102.930537,42.8013981 C103.908315,43.3243194 104.675681,44.0916851 105.198602,45.0694629 C105.721523,46.0472407 106,47.0170994 106,49.6916556 L106,78.3083444 C106,80.9829006 105.721523,81.9527593 105.198602,82.9305371 C104.675681,83.9083149 103.908315,84.6756806 102.930537,85.1986019 C101.952759,85.7215232 100.982901,86 98.3083444,86 L21.6916556,86 C19.0170994,86 18.0472407,85.7215232 17.0694629,85.1986019 C16.0916851,84.6756806 15.3243194,83.9083149 14.8013981,82.9305371 C14.2784768,81.9527593 14,80.9829006 14,78.3083444 L14,49.6916556 C14,47.0170994 14.2784768,46.0472407 14.8013981,45.0694629 C15.3243194,44.0916851 16.0916851,43.3243194 17.0694629,42.8013981 C18.0472407,42.2784768 19.0170994,42 21.6916556,42 Z M111,56 C112.656854,56 114,57.3431458 114,59 L114,69 C114,70.6568542 112.656854,72 111,72 C109.343146,72 108,70.6568542 108,69 L108,59 C108,57.3431458 109.343146,56 111,56 Z M21.6916556,46 C19.8570646,46 19.4083644,46.086648 18.9558583,46.3286509 C18.6751544,46.478773 18.478773,46.6751544 18.3286509,46.9558583 C18.086648,47.4083644 18,47.8570646 18,49.6916556 L18,78.3083444 C18,80.1429354 18.086648,80.5916356 18.3286509,81.0441417 C18.478773,81.3248456 18.6751544,81.521227 18.9558583,81.6713491 C19.4083644,81.913352 19.8570646,82 21.6916556,82 L98.3083444,82 C100.142935,82 100.591636,81.913352 101.044142,81.6713491 C101.324846,81.521227 101.521227,81.3248456 101.671349,81.0441417 C101.913352,80.5916356 102,80.1429354 102,78.3083444 L102,49.6916556 C102,47.8570646 101.913352,47.4083644 101.671349,46.9558583 C101.521227,46.6751544 101.324846,46.478773 101.044142,46.3286509 C100.591636,46.086648 100.142935,46 98.3083444,46 L21.6916556,46 Z M22,52 C22,50.8954305 22.8954305,50 24,50 L96,50 C97.1045695,50 98,50.8954305 98,52 L98,76 C98,77.1045695 97.1045695,78 96,78 L24,78 C22.8954305,78 22,77.1045695 22,76 L22,52 Z"/>
</svg>
