<svg xmlns="http://www.w3.org/2000/svg" width="128" height="128" viewBox="0 0 128 128">
  <path fill="#131313" d="M53.3456218,27.9759036 C54.3881178,22.3004612 59.3605203,18 65.3373494,18 C71.3141785,18 76.286581,22.3004612 77.329077,27.9759036 L80.8554217,27.9759036 C87.8580186,32.8337281 92.200567,40.7146982 91.939759,50.1445783 L91.939759,76.746988 C101.535009,81.9605619 107.457831,88.9224247 107.457831,96.6987952 L21,96.6987952 C21,88.237833 28.0115546,80.7411011 38.7349398,75.6385542 L38.7349398,50.1445783 C38.8001417,40.7146982 43.1426901,32.8337281 49.8192771,27.9759036 L53.3456218,27.9759036 Z M56.4698795,102.807229 L56.4698795,101.698795 L71.9879518,101.698795 L71.9879518,102.807229 C71.9879518,107.092426 68.514113,110.566265 64.2289157,110.566265 C59.9437183,110.566265 56.4698795,107.092426 56.4698795,102.807229 Z"/>
</svg>
