<svg xmlns="http://www.w3.org/2000/svg" width="128" height="128" viewBox="0 0 128 128">
  <path fill="#131313" d="M51.8717949,96.6987952 L21,96.6987952 C21,88.237833 27.9744254,80.7411011 38.6410256,75.6385542 L38.6410256,50.1445783 C38.7058824,40.7146982 43.0254351,32.8337281 49.6666667,27.9759036 L53.1743379,27.9759036 C54.2113134,22.3004612 59.1573849,18 65.1025641,18 C71.0477433,18 75.9938148,22.3004612 77.0307903,27.9759036 L80.5384615,27.9759036 C87.5039767,32.8337281 91.8235294,40.7146982 91.5641026,50.1445783 L91.5641026,76.746988 C101.108542,81.9605619 107,88.9224247 107,96.6987952 L76.1282051,96.6987952 L76.1282051,97.8072289 C76.1282051,104.54111 70.6982227,110 64,110 C57.3017773,110 51.8717949,104.54111 51.8717949,97.8072289 L51.8717949,96.6987952 Z M26.3350088,92.2650602 L101.662282,92.2650602 C99.9313374,88.1297014 95.8000845,84.1068094 89.4585317,80.6427867 C88.0381803,79.866931 87.1538462,78.3720686 87.1538462,76.746988 L87.1538462,50.1445783 C87.3531242,42.8397392 84.401318,36.5970922 79.0907017,32.4096386 L51.1732862,32.4096386 C46.088225,36.6342173 43.100899,42.9448218 43.0512821,50.1445783 L43.0512821,75.6385542 C43.0512821,77.3491486 42.0724468,78.9071603 40.5359843,79.6421529 C33.1526393,83.1740996 28.2623801,87.6350262 26.3350088,92.2650602 Z M65.1025641,22.4337349 C61.6063106,22.4337349 58.6530359,24.7708797 57.7042252,27.9759036 L72.500903,27.9759036 C71.5520923,24.7708797 68.5988176,22.4337349 65.1025641,22.4337349 Z M56.2820513,97.8072289 C56.2820513,102.092426 59.7374946,105.566265 64,105.566265 C68.2625054,105.566265 71.7179487,102.092426 71.7179487,97.8072289 L71.7179487,96.6987952 L56.2820513,96.6987952 L56.2820513,97.8072289 Z"/>
</svg>
