<svg xmlns="http://www.w3.org/2000/svg" width="128" height="128" viewBox="0 0 128 128">
  <path d="M74,48 L74,20 C74,18.8954305 73.1045695,18 72,18 L16,18 C14.8954305,18 14,18.8954305 14,20 L14,76 C14,77.1045695 14.8954305,78 16,78 L44,78 L44,54 C44,50.6862915 46.6862915,48 50,48 L74,48 Z M48,82 L48,110 C48,111.104569 48.8954305,112 50,112 L106,112 C107.104569,112 108,111.104569 108,110 L108,54 C108,52.8954305 107.104569,52 106,52 L78,52 L78,76 C78,79.3137085 75.3137085,82 72,82 L48,82 Z M78,48 L106,48 C109.313708,48 112,50.6862915 112,54 L112,110 C112,113.313708 109.313708,116 106,116 L50,116 C46.6862915,116 44,113.313708 44,110 L44,82 L16,82 C12.6862915,82 10,79.3137085 10,76 L10,20 C10,16.6862915 12.6862915,14 16,14 L72,14 C75.3137085,14 78,16.6862915 78,20 L78,48 Z M48,52 L48,78 L74,78 L74,52 L48,52 Z"/>
</svg>
