<svg xmlns="http://www.w3.org/2000/svg" width="128" height="128" viewBox="0 0 128 128">
  <path d="M82,48 L110,48 C113.313708,48 116,50.6862915 116,54 L116,110 C116,113.313708 113.313708,116 110,116 L54,116 C50.6862915,116 48,113.313708 48,110 L48,82 L20,82 C16.6862915,82 14,79.3137085 14,76 L14,20 C14,16.6862915 16.6862915,14 20,14 L76,14 C79.3137085,14 82,16.6862915 82,20 L82,48 Z M82,48 L54,48 C50.6862915,48 48,50.6862915 48,54 L48,82 L76,82 C79.3137085,82 82,79.3137085 82,76 L82,48 Z"/>
</svg>
