<svg xmlns="http://www.w3.org/2000/svg" width="128" height="128" viewBox="0 0 128 128">
  <path fill-rule="evenodd" d="M82,48 L110,48 C113.313708,48 116,50.6862915 116,54 L116,110 C116,113.313708 113.313708,116 110,116 L54,116 C50.6862915,116 48,113.313708 48,110 L48,82 L20,82 C16.6862915,82 14,79.3137085 14,76 L14,20 C14,16.6862915 16.6862915,14 20,14 L76,14 C79.3137085,14 82,16.6862915 82,20 L82,48 Z M20,18 C18.8954305,18 18,18.8954305 18,20 L18,76 C18,77.1045695 18.8954305,78 20,78 L76,78 C77.1045695,78 78,77.1045695 78,76 L78,20 C78,18.8954305 77.1045695,18 76,18 L20,18 Z"/>
</svg>
