<svg xmlns="http://www.w3.org/2000/svg" width="128" height="128" viewBox="0 0 128 128">
  <path d="M110,52 L78,52 L78,20 C78,18.8954305 77.1045695,18 76,18 L20,18 C18.8954305,18 18,18.8954305 18,20 L18,76 C18,77.1045695 18.8954305,78 20,78 L52,78 L52,110 C52,111.104569 52.8954305,112 54,112 L110,112 C111.104569,112 112,111.104569 112,110 L112,54 C112,52.8954305 111.104569,52 110,52 Z M82,48 L110,48 C113.313708,48 116,50.6862915 116,54 L116,110 C116,113.313708 113.313708,116 110,116 L54,116 C50.6862915,116 48,113.313708 48,110 L48,82 L20,82 C16.6862915,82 14,79.3137085 14,76 L14,20 C14,16.6862915 16.6862915,14 20,14 L76,14 C79.3137085,14 82,16.6862915 82,20 L82,48 Z"/>
</svg>
