<svg xmlns="http://www.w3.org/2000/svg" width="128" height="128" viewBox="0 0 128 128">
  <path d="M94.3367714,29.4205879 L94.4003257,29.3570336 L95.9345465,30.8912543 C96.3329332,31.2755987 96.7244013,31.6670668 97.1087457,32.0654535 L98.6429664,33.5996743 L98.5794121,33.6632286 C105.68929,41.7609712 110,52.3770755 110,64 C110,89.4050985 89.4050985,110 64,110 C38.5949015,110 18,89.4050985 18,64 C18,38.5949015 38.5949015,18 64,18 C75.6229245,18 86.2390288,22.3107098 94.3367714,29.4205879 Z M37.9162216,94.3264191 C44.9194929,100.35543 54.0341289,104 64,104 C86.09139,104 104,86.09139 104,64 C104,54.0341289 100.35543,44.9194929 94.3264191,37.9162216 L37.9162216,94.3264191 Z M33.6735809,90.0837784 L90.0837784,33.6735809 C83.0805071,27.6445702 73.9658711,24 64,24 C41.90861,24 24,41.90861 24,64 C24,73.9658711 27.6445702,83.0805071 33.6735809,90.0837784 Z"/>
</svg>
