<svg xmlns="http://www.w3.org/2000/svg" width="128" height="128" viewBox="0 0 128 128">
  <path fill-rule="evenodd" d="M47.9998975,48 L58,48 L58,56.3260682 C69.7273213,61.0731672 78,72.5704898 78,86 C78,103.673112 63.673112,118 46,118 C28.326888,118 14,103.673112 14,86 C14,72.5704898 22.2726787,61.0731672 34,56.3260682 L34,48 L43.9998975,48 L43.9998975,42.0952416 C43.9999445,36.5197799 48.5197624,32 54.0952242,32 C58.8143475,32 62.9800181,35.0819837 64.3603807,39.5946905 C64.8340596,41.1431915 66.5278443,42 70,42 C74.8168282,42 77.760259,41.4113138 78.5857864,40.5857864 C79.366835,39.8047379 80.633165,39.8047379 81.4142136,40.5857864 C82.1952621,41.366835 82.1952621,42.633165 81.4142136,43.4142136 C79.5730743,45.2553528 75.8498385,46 70,46 C64.9607651,46 61.6197984,44.3099572 60.5353313,40.7647323 C59.6693224,37.9335597 57.0558845,36 54.0952242,36 C50.7288883,36 47.9999259,38.7289394 47.9998975,42.0952585 L47.9998975,48 Z M90,18 C90,16.8954305 90.8954305,16 92,16 C93.1045695,16 94,16.8954305 94,18 L94,34 C94,35.1045695 93.1045695,36 92,36 C90.8954305,36 90,35.1045695 90,34 L90,18 Z M89.6568542,48 C89.6568542,46.8954305 90.5522847,46 91.6568542,46 C92.7614237,46 93.6568542,46.8954305 93.6568542,48 L93.6568542,64 C93.6568542,65.1045695 92.7614237,66 91.6568542,66 C90.5522847,66 89.6568542,65.1045695 89.6568542,64 L89.6568542,48 Z M99.4142136,36.7279221 C98.633165,37.5089706 97.366835,37.5089706 96.5857864,36.7279221 C95.8047379,35.9468735 95.8047379,34.6805435 96.5857864,33.8994949 L107.899495,22.5857864 C108.680544,21.8047379 109.946873,21.8047379 110.727922,22.5857864 C111.508971,23.366835 111.508971,24.633165 110.727922,25.4142136 L99.4142136,36.7279221 Z M107.899495,58.7279221 L96.5857864,47.4142136 C95.8047379,46.633165 95.8047379,45.366835 96.5857864,44.5857864 C97.366835,43.8047379 98.633165,43.8047379 99.4142136,44.5857864 L110.727922,55.8994949 C111.508971,56.6805435 111.508971,57.9468735 110.727922,58.7279221 C109.946873,59.5089706 108.680544,59.5089706 107.899495,58.7279221 Z M83.8994949,36.7279221 L72.5857864,25.4142136 C71.8047379,24.633165 71.8047379,23.366835 72.5857864,22.5857864 C73.366835,21.8047379 74.633165,21.8047379 75.4142136,22.5857864 L86.7279221,33.8994949 C87.5089706,34.6805435 87.5089706,35.9468735 86.7279221,36.7279221 C85.9468735,37.5089706 84.6805435,37.5089706 83.8994949,36.7279221 Z M75.4142136,58.7279221 C74.633165,59.5089706 73.366835,59.5089706 72.5857864,58.7279221 C71.8047379,57.9468735 71.8047379,56.6805435 72.5857864,55.8994949 L83.8994949,44.5857864 C84.6805435,43.8047379 85.9468735,43.8047379 86.7279221,44.5857864 C87.5089706,45.366835 87.5089706,46.633165 86.7279221,47.4142136 L75.4142136,58.7279221 Z M22,86 C22,99.254834 32.745166,110 46,110 C47.1045695,110 48,109.104569 48,108 C48,106.895431 47.1045695,106 46,106 C34.954305,106 26,97.045695 26,86 C26,84.8954305 25.1045695,84 24,84 C22.8954305,84 22,84.8954305 22,86 Z"/>
</svg>
