<svg xmlns="http://www.w3.org/2000/svg" width="128" height="128" viewBox="0 0 128 128">
  <path d="M66,108 C65.9999886,110.666655 62,110.666651 62,107.999989 C62,96.9543034 53.0456934,88 42,88 C30.954305,88 22,96.954305 22,108 C22,110.666667 18,110.666667 18,108 L18,40 C18,39.4297422 18.2386648,38.9152275 18.6215571,38.5508932 C21.1150507,27.7992666 30.7466214,20 42,20 C51.7412331,20 60.2672279,25.8440749 64,34.3884048 C67.7327721,25.8440749 76.2587669,20 86,20 C97.2533786,20 106.884949,27.7992666 109.378443,38.5508932 C109.761335,38.9152275 110,39.4297422 110,40 L110,107.999989 C110,110.666655 106,110.666655 106,107.999989 C106,96.9543034 97.0456934,88 86,88 C74.954305,88 66,96.954305 66,108 Z M42,84 C50.3478821,84 57.7003135,88.2620369 62,94.7288195 L62,41.1489912 C61.8385373,40.9191429 61.7236345,40.6524598 61.6701574,40.3613258 C59.9400396,30.942408 51.6906068,24 42,24 C32.3093932,24 24.0599604,30.942408 22.3298426,40.3613258 C22.2763655,40.6524598 22.1614627,40.9191429 22,41.1489912 L22,94.7288195 C26.2996862,88.2620373 33.652117,84 42,84 Z M86,84 C94.3478821,84 101.700314,88.2620369 106,94.7288195 L106,41.1489912 C105.838537,40.9191429 105.723634,40.6524598 105.670157,40.3613258 C103.94004,30.942408 95.6906068,24 86,24 C76.3093932,24 68.0599604,30.942408 66.3298426,40.3613258 C66.2763655,40.6524598 66.1614627,40.9191429 66,41.1489912 L66,94.7288195 C70.2996862,88.2620373 77.652117,84 86,84 Z"/>
</svg>
