<svg xmlns="http://www.w3.org/2000/svg" width="128" height="128" viewBox="0 0 128 128">
  <path d="M46.4940314,85.625525 C47.9982239,87.1297176 48.5821764,89.205674 48.2458887,91.153803 C48.230707,92.1746487 47.8192174,93.2040829 46.8650207,94.1582797 C41.7427269,99.2805734 33.4378478,99.2805734 28.315554,94.1582797 C26.702243,92.5449686 25.5970583,90.6159484 25,88.5700897 C29.4497825,89.8687031 34.4522939,88.7635184 37.9612767,85.2545357 C38.2273814,84.9884309 38.5337895,84.7844335 38.8706238,84.636888 C41.2814676,83.2293425 44.4273945,83.5588882 46.4940314,85.625525 Z M97.7134345,30 L102.119556,34.4061218 C92.1357139,47.3883791 84.1405335,56.8827669 78.1340151,62.8892853 C72.1274967,68.8958036 63.6792958,76.5944008 52.7894125,85.9850768 L46.1344796,79.3301439 C55.9727456,67.9926704 63.6713428,59.5444696 69.2302711,53.9855413 C74.7891994,48.4266129 84.2835872,40.4314325 97.7134345,30 Z"/>
</svg>
