<svg xmlns="http://www.w3.org/2000/svg" width="128" height="128" viewBox="0 0 128 128">
  <path d="M58.4,88.2545455 L58.4,90.9454545 L70.4727273,90.9454545 L70.4727273,88.2545455 C70.4727273,78.6502833 74.676823,69.7217541 81.8284489,63.6017825 C86.3142358,59.0576235 88.8727273,52.9545082 88.8727273,46.4363636 C88.8727273,32.9405327 77.9321946,22 64.4363636,22 C50.9405327,22 40,32.9405327 40,46.4363636 C40,52.9545082 42.5584914,59.0576235 47.0442784,63.6017825 C54.1959042,69.7217541 58.4,78.6502833 58.4,88.2545455 Z M36,46.4363636 C36,30.7313937 48.7313937,18 64.4363636,18 C80.1413336,18 92.8727273,30.7313937 92.8727273,46.4363636 C92.8727273,54.2866114 89.6916922,61.3938887 84.548307,66.5395104 C78.3854056,71.7556969 74.4727273,79.5481937 74.4727273,88.2545455 L74.4727273,90.9454545 C74.4727273,93.1545935 72.6818663,94.9454545 70.4727273,94.9454545 L58.4,94.9454545 C56.190861,94.9454545 54.4,93.1545935 54.4,90.9454545 L54.4,88.2545455 C54.4,79.5481937 50.4873216,71.7556969 44.3244202,66.5395104 C39.1810351,61.3938887 36,54.2866114 36,46.4363636 Z M57.4010846,102 C56.2965151,102 55.4010846,101.104569 55.4010846,100 C55.4010846,98.8954305 56.2965151,98 57.4010846,98 L71.3091067,98 C72.4136762,98 73.3091067,98.8954305 73.3091067,100 C73.3091067,101.104569 72.4136762,102 71.3091067,102 L57.4010846,102 Z M60,108.448485 C58.8954305,108.448485 58,107.553054 58,106.448485 C58,105.343915 58.8954305,104.448485 60,104.448485 L68,104.448485 C69.1045695,104.448485 70,105.343915 70,106.448485 C70,107.553054 69.1045695,108.448485 68,108.448485 L60,108.448485 Z"/>
</svg>
