<svg xmlns="http://www.w3.org/2000/svg" width="128" height="128" viewBox="0 0 128 128">
  <path fill-rule="evenodd" d="M110,28 L110,100 L18,100 L18,28 L110,28 Z M22,51.8333333 L22,96 L106,96 L106,51.8333333 L22,51.8333333 Z M22,32 L22,47.8333333 L106,47.8333333 L106,32 L22,32 Z M43.3804348,33.6666667 L46.3586957,33.6666667 C49.8104753,33.6666667 52.6086957,36.464887 52.6086957,39.9166667 C52.6086957,43.3684464 49.8104753,46.1666667 46.3586957,46.1666667 L43.3804348,46.1666667 C39.9286551,46.1666667 37.1304348,43.3684464 37.1304348,39.9166667 C37.1304348,36.464887 39.9286551,33.6666667 43.3804348,33.6666667 Z M43.3804348,37.6666667 C42.1377941,37.6666667 41.1304348,38.674026 41.1304348,39.9166667 C41.1304348,41.1593074 42.1377941,42.1666667 43.3804348,42.1666667 L46.3586957,42.1666667 C47.6013363,42.1666667 48.6086957,41.1593074 48.6086957,39.9166667 C48.6086957,38.674026 47.6013363,37.6666667 46.3586957,37.6666667 L43.3804348,37.6666667 Z M81.6413043,33.6666667 L84.6195652,33.6666667 C88.0713449,33.6666667 90.8695652,36.464887 90.8695652,39.9166667 C90.8695652,43.3684464 88.0713449,46.1666667 84.6195652,46.1666667 L81.6413043,46.1666667 C78.1895247,46.1666667 75.3913043,43.3684464 75.3913043,39.9166667 C75.3913043,36.464887 78.1895247,33.6666667 81.6413043,33.6666667 Z M81.6413043,37.6666667 C80.3986637,37.6666667 79.3913043,38.674026 79.3913043,39.9166667 C79.3913043,41.1593074 80.3986637,42.1666667 81.6413043,42.1666667 L84.6195652,42.1666667 C85.8622059,42.1666667 86.8695652,41.1593074 86.8695652,39.9166667 C86.8695652,38.674026 85.8622059,37.6666667 84.6195652,37.6666667 L81.6413043,37.6666667 Z"/>
</svg>
