<svg xmlns="http://www.w3.org/2000/svg" width="128" height="128" viewBox="0 0 128 128">
  <path fill-rule="evenodd" d="M91,93 L91,73 C91,69.6862915 88.3137085,67 85,67 L83,67 C79.6862915,67 77,69.6862915 77,73 L77,93 L77,95 C77,98.3137085 79.6862915,101 83,101 L85,101 C88.3137085,101 91,98.3137085 91,95 L91,93 Z M36,18 L92,18 C95.3137085,18 98,20.6862915 98,24 L98,104 C98,107.313708 95.3137085,110 92,110 L36,110 C32.6862915,110 30,107.313708 30,104 L30,24 C30,20.6862915 32.6862915,18 36,18 Z M43,87 C39.6862915,87 37,89.6862915 37,93 L37,95 C37,98.3137085 39.6862915,101 43,101 L45,101 C48.3137085,101 51,98.3137085 51,95 L51,93 C51,89.6862915 48.3137085,87 45,87 L43,87 Z M43,67 C39.6862915,67 37,69.6862915 37,73 L37,75 C37,78.3137085 39.6862915,81 43,81 L45,81 C48.3137085,81 51,78.3137085 51,75 L51,73 C51,69.6862915 48.3137085,67 45,67 L43,67 Z M63,87 C59.6862915,87 57,89.6862915 57,93 L57,95 C57,98.3137085 59.6862915,101 63,101 L65,101 C68.3137085,101 71,98.3137085 71,95 L71,93 C71,89.6862915 68.3137085,87 65,87 L63,87 Z M63,67 C59.6862915,67 57,69.6862915 57,73 L57,75 C57,78.3137085 59.6862915,81 63,81 L65,81 C68.3137085,81 71,78.3137085 71,75 L71,73 C71,69.6862915 68.3137085,67 65,67 L63,67 Z M43,47 C39.6862915,47 37,49.6862915 37,53 L37,55 C37,58.3137085 39.6862915,61 43,61 L45,61 C48.3137085,61 51,58.3137085 51,55 L51,53 C51,49.6862915 48.3137085,47 45,47 L43,47 Z M63,47 C59.6862915,47 57,49.6862915 57,53 L57,55 C57,58.3137085 59.6862915,61 63,61 L65,61 C68.3137085,61 71,58.3137085 71,55 L71,53 C71,49.6862915 68.3137085,47 65,47 L63,47 Z M43,27 C39.6862915,27 37,29.6862915 37,33 L37,35 C37,38.3137085 39.6862915,41 43,41 L85,41 C88.3137085,41 91,38.3137085 91,35 L91,33 C91,29.6862915 88.3137085,27 85,27 L43,27 Z M83,47 C79.6862915,47 77,49.6862915 77,53 L77,55 C77,58.3137085 79.6862915,61 83,61 L85,61 C88.3137085,61 91,58.3137085 91,55 L91,53 C91,49.6862915 88.3137085,47 85,47 L83,47 Z"/>
</svg>
