<svg xmlns="http://www.w3.org/2000/svg" width="128" height="128" viewBox="0 0 128 128">
  <path d="M34.2352941,40.88 L42.9728999,31.8306494 C44.1028278,30.6604072 45.6560324,30 47.278384,30 L80.721616,30 C82.3439676,30 83.8971722,30.6604072 85.0271001,31.8306494 L93.7647059,40.88 L106,40.88 C108.209139,40.88 110,42.6802046 110,44.9008696 L110,93.9791304 C110,96.1997954 108.209139,98 106,98 L22,98 C19.790861,98 18,96.1997954 18,93.9791304 L18,44.9008696 C18,42.6802046 19.790861,40.88 22,40.88 L34.2352941,40.88 Z M45.8432226,34.631086 L35.9272272,44.9008696 L22,44.9008696 L22,93.9791304 L106,93.9791304 L106,44.9008696 L92.0727728,44.9008696 L82.1567774,34.631086 C81.7801347,34.2410053 81.2623999,34.0208696 80.721616,34.0208696 L47.278384,34.0208696 C46.7376001,34.0208696 46.2198653,34.2410053 45.8432226,34.631086 Z M64,82.2713043 C56.2680135,82.2713043 50,75.9705882 50,68.1982609 C50,60.4259336 56.2680135,54.1252174 64,54.1252174 C71.7319865,54.1252174 78,60.4259336 78,68.1982609 C78,75.9705882 71.7319865,82.2713043 64,82.2713043 Z M64,78.2504348 C69.5228475,78.2504348 74,73.7499232 74,68.1982609 C74,62.6465985 69.5228475,58.146087 64,58.146087 C58.4771525,58.146087 54,62.6465985 54,68.1982609 C54,73.7499232 58.4771525,78.2504348 64,78.2504348 Z"/>
</svg>
