<svg xmlns="http://www.w3.org/2000/svg" width="128" height="128" viewBox="0 0 128 128">
  <path d="M98.6200376,46 L31.4706844,46 L41.994494,80 L88.0962281,80 L98.6200376,46 Z M27.2211768,45.7935426 L23.5707945,34 L14,34 C12.8954305,34 12,33.1045695 12,32 C12,30.8954305 12.8954305,30 14,30 L25.045361,30 C25.9221352,30 26.6966849,30.5710625 26.9559328,31.4086325 L30.2342132,42 L99.9763685,42 C101.633223,42 102.976368,43.3431458 102.976368,45 C102.976368,45.3007359 102.931149,45.5997624 102.842226,45.8870512 L91.699369,81.8870512 C91.3104972,83.1434062 90.1486726,84 88.8335113,84 L41.2572107,84 C39.9420494,84 38.7802248,83.1434062 38.3913531,81.8870512 L27.2484959,45.8870512 C27.2388589,45.8559161 27.2297542,45.8247433 27.2211768,45.7935426 Z M49.045361,103 C44.627083,103 41.045361,99.418278 41.045361,95 C41.045361,90.581722 44.627083,87 49.045361,87 C53.463639,87 57.045361,90.581722 57.045361,95 C57.045361,99.418278 53.463639,103 49.045361,103 Z M81.045361,103 C76.627083,103 73.045361,99.418278 73.045361,95 C73.045361,90.581722 76.627083,87 81.045361,87 C85.463639,87 89.045361,90.581722 89.045361,95 C89.045361,99.418278 85.463639,103 81.045361,103 Z M49.045361,99 C51.2545,99 53.045361,97.209139 53.045361,95 C53.045361,92.790861 51.2545,91 49.045361,91 C46.836222,91 45.045361,92.790861 45.045361,95 C45.045361,97.209139 46.836222,99 49.045361,99 Z M81.045361,99 C83.2545,99 85.045361,97.209139 85.045361,95 C85.045361,92.790861 83.2545,91 81.045361,91 C78.836222,91 77.045361,92.790861 77.045361,95 C77.045361,97.209139 78.836222,99 81.045361,99 Z"/>
</svg>
