<svg xmlns="http://www.w3.org/2000/svg" width="128" height="128" viewBox="0 0 128 128">
  <path d="M64,110 C38.5949015,110 18,89.4050985 18,64 C18,38.5949015 38.5949015,18 64,18 C89.4050985,18 110,38.5949015 110,64 C110,89.4050985 89.4050985,110 64,110 Z M64,104 C86.09139,104 104,86.09139 104,64 C104,41.90861 86.09139,24 64,24 C41.90861,24 24,41.90861 24,64 C24,86.09139 41.90861,104 64,104 Z M45.3297038,60.3371517 L55.4841166,69.8124477 C56.6389226,70.8900214 58.4314505,70.887629 59.5833759,69.8069765 L82.7669834,48.0578063 C83.9753421,46.9242123 85.8738698,46.984821 87.0074638,48.1931797 L87.0127027,48.1987784 L88.0548832,49.3154004 C89.1834217,50.5245488 89.1204263,52.4189798 87.9140541,53.5504854 L59.6255143,80.0834599 C58.4750903,81.1624895 56.6855817,81.166408 55.5304433,80.0924268 L40.2013254,65.8402961 C38.9879021,64.712125 38.9187915,62.8138878 40.0469626,61.6004645 L40.050894,61.5962441 L41.0895999,60.483844 C42.2200111,59.2726891 44.1181884,59.2071269 45.3294715,60.3374006 L45.3297038,60.3371517 Z"/>
</svg>
