<svg xmlns="http://www.w3.org/2000/svg" width="128" height="128" viewBox="0 0 128 128">
  <path fill-rule="evenodd" d="M16,40 L32,40 L32,56 L16,56 L16,40 Z M16,72 L32,72 L32,88 L16,88 L16,72 Z M48,40 L64,40 L64,56 L48,56 L48,40 Z M48,72 L64,72 L64,88 L48,88 L48,72 Z M80,40 L96,40 L96,56 L80,56 L80,40 Z M80,72 L96,72 L96,88 L80,88 L80,72 Z M96,56 L112,56 L112,72 L96,72 L96,56 Z M96,88 L112,88 L112,104 L96,104 L96,88 Z M96,24 L112,24 L112,40 L96,40 L96,24 Z M32,56 L48,56 L48,72 L32,72 L32,56 Z M32,88 L48,88 L48,104 L32,104 L32,88 Z M32,24 L48,24 L48,40 L32,40 L32,24 Z M64,56 L80,56 L80,72 L64,72 L64,56 Z M64,88 L80,88 L80,104 L64,104 L64,88 Z M64,24 L80,24 L80,40 L64,40 L64,24 Z"/>
</svg>
