<svg xmlns="http://www.w3.org/2000/svg" width="128" height="128" viewBox="0 0 128 128">
  <path d="M94,20.0109111 C94.6571456,20.0072285 95.3238123,20.0035915 96,20 C99.3137085,20 102,22.6862915 102,26 L102,110 C102,113.313708 99.3137085,116 96,116 L40,116 C36.6862915,116 34,113.313708 34,110 C34.0019885,109.328043 34.0039909,108.661376 34.0060073,108 L38.0060236,108 C38.0039973,108.665255 38.0019829,109.335868 37.9999825,110.011837 C38,111.104569 38.8954305,112 40,112 L96,112 C97.1045695,112 98,111.104569 98,110 L98,26 C98,24.8954305 97.1045695,24 96,24 C95.3238296,24.0035947 94.6571613,24.0072352 94,24.0109215 L94,20.0109111 Z M93.4610798,82 L68,107.46108 C67.4846036,107.695624 55.4846036,107.875264 32,108 C28.6862915,108 26,105.313708 26,102 L26,18 C26,14.6862915 28.6862915,12 32,12 L88,12 C91.3137085,12 94,14.6862915 94,18 C93.8752636,60.1512703 93.6956236,81.4846036 93.4610798,82 Z M89.6203009,78 C89.6226771,77.8809022 89.6250475,77.7589918 89.6274117,77.6342756 C89.6788651,74.9200454 89.7270577,70.9002462 89.7718595,65.5797714 C89.8616057,54.9218747 89.9376691,39.057128 90.0000175,17.988163 C90,16.8954305 89.1045695,16 88,16 L32,16 C30.8954305,16 30,16.8954305 30,18 L30,102 C30,103.104569 30.8954305,104 32,104 C43.7092666,103.937751 52.5690473,103.861754 58.5535794,103.772166 C60.7660074,103.739046 62.5825653,103.7041 64,103.667483 L64,84 C64,80.6862915 66.6862915,78 70,78 L89.6203035,78 L89.6203009,78 Z M68,101.804226 L87.8042255,82 L70,82 C68.8954305,82 68,82.8954305 68,84 L68,101.804226 Z"/>
</svg>
