<svg xmlns="http://www.w3.org/2000/svg" width="128" height="128" viewBox="0 0 128 128">
  <path d="M65.2393852,55.5250351 L52.0923832,78.2963104 C48.3086452,84.849937 50.6695783,93.2967078 57.3656751,97.1627011 C64.0617718,101.028694 72.5573565,98.849937 76.3410946,92.2963104 L96.3604369,57.6217923 C101.765777,48.2594687 98.3930154,36.1926532 88.8271629,30.6698057 C79.2613104,25.1469582 67.1247609,28.2594687 61.7194208,37.6217923 L27.4641016,96.9537455 L24,94.9537455 L58.2553191,35.6217923 C64.7417273,24.3870039 79.3055867,20.6519914 90.7846097,27.2794084 C102.263633,33.9068254 106.310947,48.3870039 99.8245385,59.6217923 L79.8051962,94.2963104 C74.9403901,102.722402 64.0174955,105.523661 55.4082283,100.553098 C46.798961,95.5825357 43.7634755,84.7224018 48.6282816,76.2963104 L61.7752836,53.5250351 C65.0302384,47.887288 72.3385519,46.0130154 78.0988587,49.3387301 C83.8591655,52.6644448 85.8901546,59.9307663 82.6351998,65.5685134 L71.9117956,84.1419944 L68.4476939,82.1419944 L79.1710982,63.5685134 C81.344985,59.803231 79.9885482,54.9502727 76.1414119,52.7291275 C72.2942756,50.5079823 67.413272,51.7597528 65.2393852,55.5250351 Z"/>
</svg>
