<svg xmlns="http://www.w3.org/2000/svg" width="128" height="128" viewBox="0 0 128 128">
  <path d="M64,102 C84.9868205,102 102,84.9868205 102,64 C102,43.0131795 84.9868205,26 64,26 C43.0131795,26 26,43.0131795 26,64 C26,84.9868205 43.0131795,102 64,102 Z M64,106 C40.8040405,106 22,87.1959595 22,64 C22,40.8040405 40.8040405,22 64,22 C87.1959595,22 106,40.8040405 106,64 C106,87.1959595 87.1959595,106 64,106 Z M64,66 L40,66 C38.8954305,66 38,66.8954305 38,68 C38,69.1045695 38.8954305,70 40,70 L66,70 C67.1045695,70 68,69.1045695 68,68 L68,42 C68,40.8954305 67.1045695,40 66,40 C64.8954305,40 64,40.8954305 64,42 L64,66 Z"/>
</svg>
