<svg xmlns="http://www.w3.org/2000/svg" width="128" height="128" viewBox="0 0 128 128">
  <path d="M64,110 C38.5949015,110 18,89.4050985 18,64 C18,38.5949015 38.5949015,18 64,18 C89.4050985,18 110,38.5949015 110,64 C110,89.4050985 89.4050985,110 64,110 Z M64,104 C86.09139,104 104,86.09139 104,64 C104,41.90861 86.09139,24 64,24 C41.90861,24 24,41.90861 24,64 C24,86.09139 41.90861,104 64,104 Z M64,58.3431458 L76.0208153,46.3223305 C77.5829124,44.7602333 80.1155724,44.7602333 81.6776695,46.3223305 C83.2397667,47.8844276 83.2397667,50.4170876 81.6776695,51.9791847 L69.6568542,64 L81.6776695,76.0208153 C83.2397667,77.5829124 83.2397667,80.1155724 81.6776695,81.6776695 C80.1155724,83.2397667 77.5829124,83.2397667 76.0208153,81.6776695 L64,69.6568542 L51.9791847,81.6776695 C50.4170876,83.2397667 47.8844276,83.2397667 46.3223305,81.6776695 C44.7602333,80.1155724 44.7602333,77.5829124 46.3223305,76.0208153 L58.3431458,64 L46.3223305,51.9791847 C44.7602333,50.4170876 44.7602333,47.8844276 46.3223305,46.3223305 C47.8844276,44.7602333 50.4170876,44.7602333 51.9791847,46.3223305 L64,58.3431458 Z"/>
</svg>
