<svg xmlns="http://www.w3.org/2000/svg" width="128" height="128" viewBox="0 0 128 128">
  <path d="M71.3181818,40 C64.3074642,40 57.71317,43.0209867 53.1410515,48.2548914 L52.3197196,49.1951061 L51.1143068,48.8701914 C49.8683166,48.5343391 48.5789113,48.3636364 47.2727273,48.3636364 C41.1404745,48.3636364 35.683727,52.1604845 33.5174102,57.8160808 L33.1167204,58.8621605 L32.0154091,59.0669737 C25.0955166,60.353881 20,66.4216605 20,73.5454545 C20,81.6791027 26.5936246,88.2727273 34.7272727,88.2727273 L93.2727273,88.2727273 C101.406375,88.2727273 108,81.6791027 108,73.5454545 C108,66.4725984 102.976025,60.4350317 96.1206465,59.0929422 L94.9076334,58.8554685 L94.5775361,57.664322 C91.7013793,47.2857926 82.2007766,40 71.3181818,40 Z M50.9477611,44.7252768 C56.229758,39.1788876 63.5578496,36 71.3181818,36 C83.5981678,36 94.3658134,43.9554245 98.0858753,55.442708 C106.191026,57.5891862 112,64.9674259 112,73.5454545 C112,83.8882417 103.615514,92.2727273 93.2727273,92.2727273 L34.7272727,92.2727273 C24.3844856,92.2727273 16,83.8882417 16,73.5454545 C16,64.8596665 21.9545396,57.410712 30.2066049,55.3677189 C33.2047109,48.738803 39.848311,44.3636364 47.2727273,44.3636364 C48.5129538,44.3636364 49.7429464,44.4851224 50.9477611,44.7252768 Z"/>
</svg>
