<svg xmlns="http://www.w3.org/2000/svg" width="128" height="128" viewBox="0 0 128 128">
  <path d="M110,83 C110,77.3056584 107.183784,72.0938431 102.5643,68.9432035 L99.816899,67.0693853 L101.15759,64.026039 C101.710695,62.7705003 102,61.4092663 102,60 C102,56.6062686 100.300805,53.5072261 97.5238478,51.662288 L95.3826619,50.2397398 L95.7871958,47.7011038 C95.9284472,46.8146858 96,45.9126427 96,45 C96,35.6111593 88.3888407,28 79,28 L77,28 C70.53565,28 64.722774,31.6377571 61.8400804,37.2974454 L60.0347625,40.8418862 L56.4802921,39.0563965 C55.1034592,38.3647827 53.5820342,38 52,38 C46.4771525,38 42,42.4771525 42,48 C42.0002253,48.0680835 42.0242973,49.3154655 42.0722159,51.742146 L38.5687954,52.2429087 C26.8309785,53.920658 18,64.0216055 18,76 C18,89.254834 28.745166,100 42,100 L61.7822389,100 L91,100 L93,100 C102.388841,100 110,92.3888407 110,83 Z M114,83 C114,94.5979797 104.59798,104 93,104 L42,104 C26.536027,104 14,91.463973 14,76 C14,61.8931399 24.4322617,50.2228651 38.0028064,48.2831542 C38.0009384,48.1889945 38,48.0946068 38,48 C38,40.2680135 44.2680135,34 52,34 C54.2564023,34 56.3881283,34.5338028 58.2757839,35.4820142 C61.7466628,28.6675222 68.8282523,24 77,24 L79,24 C90.5979797,24 100,33.4020203 100,45 C100,46.1334016 99.9102108,47.2458318 99.7373575,48.3305655 C103.511982,50.8383276 106,55.1286099 106,60 C106,62.0060534 105.578077,63.9135615 104.818132,65.6386245 C110.360988,69.4190348 114,75.7845491 114,83 Z"/>
</svg>
