<svg xmlns="http://www.w3.org/2000/svg" width="128" height="128" viewBox="0 0 128 128">
  <path d="M70,94 L91,94 L93,94 C102.388841,94 110,86.3888407 110,77 C110,71.3056584 107.183784,66.0938431 102.5643,62.9432035 L99.816899,61.0693853 L101.15759,58.026039 C101.710695,56.7705003 102,55.4092663 102,54 C102,50.6062686 100.300805,47.5072261 97.5238478,45.662288 L95.3826619,44.2397398 L95.7871958,41.7011038 C95.9284472,40.8146858 96,39.9126427 96,39 C96,29.6111593 88.3888407,22 79,22 L77,22 C70.53565,22 64.722774,25.6377571 61.8400804,31.2974454 L60.0347625,34.8418862 L56.4802921,33.0563965 C55.1034592,32.3647827 53.5820342,32 52,32 C46.4771525,32 42,36.4771525 42,42 C42.0002253,42.0680835 42.0242973,43.3154655 42.0722159,45.742146 L38.5687954,46.2429087 C26.8309785,47.920658 18,58.0216055 18,70 C18,83.254834 28.745166,94 42,94 L56,94 C57.1045695,94 58,94.8954305 58,96 C58,97.1045695 57.1045695,98 56,98 L42,98 C26.536027,98 14,85.463973 14,70 C14,55.8931399 24.4322617,44.2228651 38.0028064,42.2831542 C38.0009384,42.1889945 38,42.0946068 38,42 C38,34.2680135 44.2680135,28 52,28 C54.2564023,28 56.3881283,28.5338028 58.2757839,29.4820142 C61.7466628,22.6675222 68.8282523,18 77,18 L79,18 C90.5979797,18 100,27.4020203 100,39 C100,40.1334016 99.9102108,41.2458318 99.7373575,42.3305655 C103.511982,44.8383276 106,49.1286099 106,54 C106,56.0060534 105.578077,57.9135615 104.818132,59.6386245 C110.360988,63.4190348 114,69.7845491 114,77 C114,88.5979797 104.59798,98 93,98 L70,98 C68.8954305,98 68,97.1045695 68,96 C68,94.8954305 68.8954305,94 70,94 Z M60.7279221,72 C60.7279221,70.8954305 61.6233526,70 62.7279221,70 C63.8324916,70 64.7279221,70.8954305 64.7279221,72 L64.7279221,111.355339 L74.7695526,101.313708 C75.5506012,100.53266 76.8169312,100.53266 77.5979797,101.313708 C78.3790283,102.094757 78.3790283,103.361087 77.5979797,104.142136 L65.6962678,116.043848 C64.2579059,117.48221 61.9258603,117.48221 60.4874983,116.043848 L48.5857864,104.142136 C47.8047379,103.361087 47.8047379,102.094757 48.5857864,101.313708 C49.366835,100.53266 50.633165,100.53266 51.4142136,101.313708 L60.7279221,110.627417 L60.7279221,72 Z"/>
</svg>
