<svg xmlns="http://www.w3.org/2000/svg" width="128" height="128" viewBox="0 0 128 128">
  <path d="M70,92 L91,92 L93,92 C102.388841,92 110,84.3888407 110,75 C110,69.3056584 107.183784,64.0938431 102.5643,60.9432035 L99.816899,59.0693853 L101.15759,56.026039 C101.710695,54.7705003 102,53.4092663 102,52 C102,48.6062686 100.300805,45.5072261 97.5238478,43.662288 L95.3826619,42.2397398 L95.7871958,39.7011038 C95.9284472,38.8146858 96,37.9126427 96,37 C96,27.6111593 88.3888407,20 79,20 L77,20 C70.53565,20 64.722774,23.6377571 61.8400804,29.2974454 L60.0347625,32.8418862 L56.4802921,31.0563965 C55.1034592,30.3647827 53.5820342,30 52,30 C46.4771525,30 42,34.4771525 42,40 C42.0002253,40.0680835 42.0242973,41.3154655 42.0722159,43.742146 L38.5687954,44.2429087 C26.8309785,45.920658 18,56.0216055 18,68 C18,81.254834 28.745166,92 42,92 L56,92 C57.1045695,92 58,92.8954305 58,94 C58,95.1045695 57.1045695,96 56,96 L42,96 C26.536027,96 14,83.463973 14,68 C14,53.8931399 24.4322617,42.2228651 38.0028064,40.2831542 C38.0009384,40.1889945 38,40.0946068 38,40 C38,32.2680135 44.2680135,26 52,26 C54.2564023,26 56.3881283,26.5338028 58.2757839,27.4820142 C61.7466628,20.6675222 68.8282523,16 77,16 L79,16 C90.5979797,16 100,25.4020203 100,37 C100,38.1334016 99.9102108,39.2458318 99.7373575,40.3305655 C103.511982,42.8383276 106,47.1286099 106,52 C106,54.0060534 105.578077,55.9135615 104.818132,57.6386245 C110.360988,61.4190348 114,67.7845491 114,75 C114,86.5979797 104.59798,96 93,96 L70,96 C68.8954305,96 68,95.1045695 68,94 C68,92.8954305 68.8954305,92 70,92 Z M60.7279221,115.122619 L60.7279221,74.495202 L51.4142136,83.8089105 C50.633165,84.5899591 49.366835,84.5899591 48.5857864,83.8089105 C47.8047379,83.0278619 47.8047379,81.761532 48.5857864,80.9804834 L60.4874983,69.0787715 C61.9258603,67.6404095 64.2579059,67.6404095 65.6962678,69.0787715 L77.5979797,80.9804834 C78.3790283,81.761532 78.3790283,83.0278619 77.5979797,83.8089105 C76.8169312,84.5899591 75.5506012,84.5899591 74.7695526,83.8089105 L64.7279221,73.76728 L64.7279221,115.122619 C64.7279221,116.227189 63.8324916,117.122619 62.7279221,117.122619 C61.6233526,117.122619 60.7279221,116.227189 60.7279221,115.122619 Z"/>
</svg>
