<svg xmlns="http://www.w3.org/2000/svg" width="128" height="128" viewBox="0 0 128 128">
  <path d="M31.667598,49.8247625 C29.5283812,54.4828886 28.3174827,59.6781119 28.2796158,65.1593888 L22.7490384,66.4362232 C19.4532584,67.1971139 17.3983246,70.4856954 18.1592154,73.7814754 L19.1853126,78.2259905 C19.9462033,81.5217705 23.2347848,83.5767042 26.5305648,82.8158135 L31.923897,81.5706646 C34.200706,86.3219899 37.4510672,90.4937082 41.4080307,93.811964 L38.906955,98.9399291 C37.4241766,101.980075 38.6866727,105.64663 41.7268189,107.129409 L45.8265997,109.129005 C48.8667459,110.611784 52.5333007,109.349288 54.0160791,106.309141 L56.4800615,101.257229 C58.9048478,101.790265 61.4209272,102.070844 64.0008868,102.070844 C66.5808464,102.070844 69.0969258,101.790265 71.5217122,101.257229 L73.9856945,106.309141 C75.4684729,109.349288 79.1350277,110.611784 82.1751739,109.129005 L86.2749548,107.129409 C89.315101,105.64663 90.5775971,101.980075 89.0948187,98.9399291 L86.593743,93.811964 C90.5507065,90.4937082 93.8010677,86.3219899 96.0778766,81.5706646 L101.471209,82.8158135 C104.766989,83.5767042 108.05557,81.5217705 108.816461,78.2259905 L109.842558,73.7814754 C110.603449,70.4856954 108.548515,67.1971139 105.252735,66.4362232 L99.7221578,65.1593888 C99.6842909,59.6781119 98.4733924,54.4828886 96.3341757,49.8247625 L100.835879,46.1793547 C103.464554,44.0506958 103.869897,40.1941147 101.741238,37.5654398 L98.8706411,34.0205475 C96.7419822,31.3918726 92.8854011,30.9865296 90.2567262,33.1151885 L86.0076002,36.5560629 C82.0574921,33.3825899 77.4395845,31.0438178 72.4061072,29.7985012 L72.4061072,24.1245084 C72.4061072,20.7420358 69.6640714,18 66.2815989,18 L61.7201748,18 C58.3377022,18 55.5956664,20.7420358 55.5956664,24.1245084 L55.5956664,29.7985012 C50.5621891,31.0438178 45.9442815,33.3825899 41.9941734,36.5560629 L37.7450474,33.1151885 C35.1163725,30.9865296 31.2597915,31.3918726 29.1311325,34.0205475 L26.2605353,37.5654398 C24.1318763,40.1941147 24.5372193,44.0506958 27.1658942,46.1793547 L31.667598,49.8247625 Z M24.6486127,49.2879386 C20.3031143,45.7690234 19.6330363,39.3936566 23.1519515,35.0481582 L26.0225487,31.5032659 C29.5414638,27.1577676 35.9168306,26.4876895 40.262329,30.0066047 L42.1097779,31.5026393 C45.0484776,29.5132763 48.236341,27.9298374 51.5956664,26.8007688 L51.5956664,24.1245084 C51.5956664,18.5328968 56.1285632,14 61.7201748,14 L66.2815989,14 C71.8732104,14 76.4061072,18.5328968 76.4061072,24.1245084 L76.4061072,26.8007688 C79.7654326,27.9298374 82.953296,29.5132763 85.8919958,31.5026393 L87.7394446,30.0066047 C92.084943,26.4876895 98.4603098,27.1577676 101.979225,31.5032659 L104.849822,35.0481582 C108.368737,39.3936566 107.698659,45.7690234 103.353161,49.2879386 L101.169108,51.05655 C102.454076,54.5351819 103.267938,58.1918111 103.579299,61.9446635 L106.152539,62.5387429 C111.600838,63.7965818 114.997877,69.2329807 113.740038,74.6812796 L112.713941,79.1257947 C111.456102,84.5740936 106.019704,87.9711327 100.571405,86.7132937 L98.172496,86.159462 C96.3388385,89.3175313 94.0935487,92.2092718 91.5032284,94.7532127 L92.6899949,97.1864446 C95.141196,102.212152 93.0541466,108.273384 88.0284394,110.724585 L83.9286585,112.724181 C78.9029514,115.175383 72.8417195,113.088333 70.3905184,108.062626 L69.2474517,105.718992 C67.5179116,105.952735 65.7663515,106.070844 64.0008868,106.070844 C62.2354222,106.070844 60.483862,105.952735 58.7543219,105.718992 L57.6112553,108.062626 C55.1600541,113.088333 49.0988223,115.175383 44.0731151,112.724181 L39.9733343,110.724585 C34.9476271,108.273384 32.8605776,102.212152 35.3117788,97.1864446 L36.4985453,94.7532127 C33.9082249,92.2092718 31.6629352,89.3175313 29.8292776,86.159462 L27.430369,86.7132937 C21.9820701,87.9711327 16.5456712,84.5740936 15.2878323,79.1257947 L14.2617351,74.6812796 C13.0038962,69.2329807 16.4009353,63.7965818 21.8492342,62.5387429 L24.4224749,61.9446635 C24.7338357,58.1918111 25.5476981,54.5351819 26.8326659,51.05655 L24.6486127,49.2879386 Z M64.0008868,93.4481935 C79.0876307,93.4481935 91.3178532,80.9015938 91.3178532,65.4245788 C91.3178532,49.9475637 79.0876307,37.400964 64.0008868,37.400964 C48.9141429,37.400964 36.6839205,49.9475637 36.6839205,65.4245788 C36.6839205,80.9015938 48.9141429,93.4481935 64.0008868,93.4481935 Z M64.0008868,97.4481935 C46.6818174,97.4481935 32.6839205,83.0881922 32.6839205,65.4245788 C32.6839205,47.7609653 46.6818174,33.400964 64.0008868,33.400964 C81.3199562,33.400964 95.3178532,47.7609653 95.3178532,65.4245788 C95.3178532,83.0881922 81.3199562,97.4481935 64.0008868,97.4481935 Z"/>
</svg>
