<svg xmlns="http://www.w3.org/2000/svg" width="128" height="128" viewBox="0 0 128 128">
  <path d="M83.0403766,93.4838053 C82.2839078,92.4152974 82.7410021,90.9201664 83.9656377,90.4573255 C98.6479892,84.908253 108,73.7534052 108,61.5 C108,43.6961761 88.4050985,29 64,29 C39.5949015,29 20,43.6961761 20,61.5 C20,79.3038239 39.5949015,94 64,94 C67.3441655,94 70.6388609,93.7235344 73.8418972,93.1810547 C74.4510669,93.0778832 75.0737234,93.26205 75.5287613,93.6799885 C78.9839946,96.8535156 83.9898473,98.9193711 89.5352403,99.3949122 C86.8985106,97.8000837 84.677428,95.796131 83.0403766,93.4838053 Z M98.930745,98.8484407 C101.023085,99.3099027 101.023085,102.293106 98.930745,102.754569 C96.6961269,103.24741 94.3692567,103.5 92,103.5 C84.8981803,103.5 78.2607163,101.217172 73.5650421,97.2773122 C70.4398916,97.7564729 67.2404186,98 64,98 C37.5949015,98 16,81.8038239 16,61.5 C16,41.1961761 37.5949015,25 64,25 C90.4050985,25 112,41.1961761 112,61.5 C112,74.8145169 102.617183,86.7333285 87.9703182,93.1438728 C90.6459926,95.8346077 94.4869976,97.8683797 98.930745,98.8484407 Z"/>
</svg>
