<svg xmlns="http://www.w3.org/2000/svg" width="128" height="128" viewBox="0 0 128 128">
  <path d="M64,18 C89.4050985,18 110,38.5949015 110,64 C110,89.4050985 89.4050985,110 64,110 C38.5949015,110 18,89.4050985 18,64 C18,38.5949015 38.5949015,18 64,18 Z M64,22 C40.8040405,22 22,40.8040405 22,64 C22,87.1959595 40.8040405,106 64,106 C87.1959595,106 106,87.1959595 106,64 C106,40.8040405 87.1959595,22 64,22 Z M83.0918831,45.9081169 L70.363961,69.9497475 L59.0502525,58.636039 L83.0918831,45.9081169 Z M44.9081169,84.0918831 L57.636039,60.0502525 L68.9497475,71.363961 L44.9081169,84.0918831 Z"/>
</svg>
