<svg xmlns="http://www.w3.org/2000/svg" width="128" height="128" viewBox="0 0 128 128">
  <path d="M75.9154063,40 L71.9154063,44 L20,44 L20,108 L84,108 L84,60.0845937 L88,56.0845937 L88,110 C88,111.104569 87.1045695,112 86,112 L18,112 C16.8954305,112 16,111.104569 16,110 L16,42 C16,40.8954305 16.8954305,40 18,40 L75.9154063,40 Z M95.08103,23.6628035 L106.337197,34.91897 L61.4596685,79.796498 L50.203502,68.5403315 L95.08103,23.6628035 Z M107.939965,33.3162011 L96.6837989,22.0600346 L99.0879522,19.6558813 C101.300914,17.4429193 104.894716,17.4488011 107.114934,19.6690186 L110.330981,22.8850662 C112.551199,25.1052838 112.557081,28.6990858 110.344119,30.9120478 L107.939965,33.3162011 Z M44,86 L49.0976398,70.640007 L59.359993,80.9023602 L44,86 Z"/>
</svg>
