<svg xmlns="http://www.w3.org/2000/svg" width="128" height="128" viewBox="0 0 128 128">
  <path d="M24,20 C21.790861,20 20,21.790861 20,24 L20,104 C20,106.209139 21.790861,108 24,108 L104,108 C106.209139,108 108,106.209139 108,104 L108,24 C108,21.790861 106.209139,20 104,20 L24,20 Z M24,16 L104,16 C108.418278,16 112,19.581722 112,24 L112,104 C112,108.418278 108.418278,112 104,112 L24,112 C19.581722,112 16,108.418278 16,104 L16,24 C16,19.581722 19.581722,16 24,16 Z M44,58 C47.3137085,58 50,60.6862915 50,64 C50,67.3137085 47.3137085,70 44,70 C40.6862915,70 38,67.3137085 38,64 C38,60.6862915 40.6862915,58 44,58 Z M44,54 C38.4771525,54 34,58.4771525 34,64 C34,69.5228475 38.4771525,74 44,74 C49.5228475,74 54,69.5228475 54,64 C54,58.4771525 49.5228475,54 44,54 Z M84,58 C87.3137085,58 90,60.6862915 90,64 C90,67.3137085 87.3137085,70 84,70 C80.6862915,70 78,67.3137085 78,64 C78,60.6862915 80.6862915,58 84,58 Z M84,54 C78.4771525,54 74,58.4771525 74,64 C74,69.5228475 78.4771525,74 84,74 C89.5228475,74 94,69.5228475 94,64 C94,58.4771525 89.5228475,54 84,54 Z"/>
</svg>
