<svg xmlns="http://www.w3.org/2000/svg" width="128" height="128" viewBox="0 0 128 128">
  <path d="M24,16 L104,16 C108.418278,16 112,19.581722 112,24 L112,104 C112,108.418278 108.418278,112 104,112 L24,112 C19.581722,112 16,108.418278 16,104 L16,24 C16,19.581722 19.581722,16 24,16 Z M24,20 C21.790861,20 20,21.790861 20,24 L20,104 C20,106.209139 21.790861,108 24,108 L104,108 C106.209139,108 108,106.209139 108,104 L108,24 C108,21.790861 106.209139,20 104,20 L24,20 Z M36,38 L52,38 C53.1045695,38 54,38.8954305 54,40 L54,66 C54,67.1045695 53.1045695,68 52,68 L36,68 C34.8954305,68 34,67.1045695 34,66 L34,40 C34,38.8954305 34.8954305,38 36,38 Z M76,38 L92,38 C93.1045695,38 94,38.8954305 94,40 L94,66 C94,67.1045695 93.1045695,68 92,68 L76,68 C74.8954305,68 74,67.1045695 74,66 L74,40 C74,38.8954305 74.8954305,38 76,38 Z M38,42 L38,64 L50,64 L50,42 L38,42 Z M78,42 L78,64 L90,64 L90,42 L78,42 Z M64,76 C69.5228475,76 74,80.4771525 74,86 L74,94 C74,95.1045695 73.1045695,96 72,96 L56,96 C54.8954305,96 54,95.1045695 54,94 L54,86 C54,80.4771525 58.4771525,76 64,76 Z M70,92 L70,86 C70,82.6862915 67.3137085,80 64,80 C60.6862915,80 58,82.6862915 58,86 L58,92 L70,92 Z"/>
</svg>
