<svg xmlns="http://www.w3.org/2000/svg" width="128" height="128" viewBox="0 0 128 128">
  <path d="M24,20 C21.790861,20 20,21.790861 20,24 L20,104 C20,106.209139 21.790861,108 24,108 L104,108 C106.209139,108 108,106.209139 108,104 L108,24 C108,21.790861 106.209139,20 104,20 L24,20 Z M24,16 L104,16 C108.418278,16 112,19.581722 112,24 L112,104 C112,108.418278 108.418278,112 104,112 L24,112 C19.581722,112 16,108.418278 16,104 L16,24 C16,19.581722 19.581722,16 24,16 Z M64,36 L68,36 L68,58 L64,58 L64,36 Z M62,32 C60.8954305,32 60,32.8954305 60,34 L60,60 C60,61.1045695 60.8954305,62 62,62 L70,62 C71.1045695,62 72,61.1045695 72,60 L72,34 C72,32.8954305 71.1045695,32 70,32 L62,32 Z M97,79 L97,83 L75,83 L75,79 L97,79 Z M101,77 C101,75.8954305 100.104569,75 99,75 L73,75 C71.8954305,75 71,75.8954305 71,77 L71,85 C71,86.1045695 71.8954305,87 73,87 L99,87 C100.104569,87 101,86.1045695 101,85 L101,77 Z M55,79 L55,83 L33,83 L33,79 L55,79 Z M59,77 C59,75.8954305 58.1045695,75 57,75 L31,75 C29.8954305,75 29,75.8954305 29,77 L29,85 C29,86.1045695 29.8954305,87 31,87 L57,87 C58.1045695,87 59,86.1045695 59,85 L59,77 Z"/>
</svg>
