<svg xmlns="http://www.w3.org/2000/svg" width="128" height="128" viewBox="0 0 128 128">
  <path fill-rule="evenodd" d="M33.351711 69.2680608L33.351711 58.4410646 39.3954373 58.4410646C42.6920317 58.4410646 45.1859865 57.4930386 46.8773764 55.5969582 48.5687664 53.7008777 49.4144487 51.3954508 49.4144487 48.6806084 49.4144487 46.1812296 48.606472 44.1020362 46.9904943 42.4429658 45.3745166 40.7838954 43.0690898 39.9543726 40.0741445 39.9543726 37.5747657 39.9543726 35.4417072 40.6438461 33.6749049 42.0228137 31.9081027 43.4017813 31.0247148 45.2439682 31.0247148 47.5494297L18.8403042 47.5494297C18.8403042 44.0373715 19.7506246 40.9616735 21.5712928 38.3222433 23.3919609 35.6828132 25.8805292 33.6359388 29.0370722 32.1815589 32.1936153 30.727179 35.7648723 30 39.7509506 30 44.0602243 30 47.8577149 30.705633 51.1435361 32.1169202 54.4293574 33.5282073 56.9933368 35.6020142 58.8355513 38.338403 60.6777659 41.0747919 61.5988593 44.446748 61.5988593 48.4543726 61.5988593 51.2984933 60.7262445 54.1210253 58.9809886 56.9220532 57.2357327 59.7230812 54.7040724 61.9207778 51.3859316 63.5152091 55.2211852 64.7864449 58.0760363 66.7848406 59.9505703 69.5104563 61.8251044 72.2360719 62.7623574 75.3871811 62.7623574 78.9638783 62.7623574 82.9930493 61.7443068 86.4242571 59.7081749 89.2576046 57.6720431 92.0909521 54.9087627 94.2563296 51.418251 95.7538023 47.9277392 97.2512749 44.0171319 98 39.6863118 98 36.0018827 98 32.5060368 97.3428456 29.1986692 96.0285171 25.8913016 94.7141886 23.1980459 92.6942468 21.1188213 89.9686312 19.0395967 87.2430155 18 83.7794887 18 79.5779468L30.4106464 79.5779468C30.4106464 82.0342328 31.3048073 84.0326285 33.0931559 85.5731939 34.8815045 87.1137593 37.1761584 87.8840304 39.9771863 87.8840304 43.1014098 87.8840304 45.6222971 87.0598942 47.539924 85.411597 49.4575508 83.7632997 50.4163498 81.5494436 50.4163498 78.769962 50.4163498 75.2579039 49.4144587 72.7962681 47.4106464 71.384981 45.4068341 69.9736938 42.7351244 69.2680608 39.3954373 69.2680608L33.351711 69.2680608zM96.2630058 65.283237L96.2630058 72 68 72 68 66.2138728 81.7976879 52.2947977C83.8882571 50.1367908 85.3718646 48.289025 86.2485549 46.7514451 87.1252452 45.2138651 87.5635838 43.7572323 87.5635838 42.3815029 87.5635838 40.7629977 87.0443212 39.3501987 86.0057803 38.1430636 84.9672395 36.9359285 83.5375814 36.3323699 81.716763 36.3323699 79.7206066 36.3323699 78.2437427 37.06743 77.2861272 38.5375723 76.3285116 40.0077145 75.849711 41.7610688 75.849711 43.7976879L68.1618497 43.7976879C68.1618497 41.3564425 68.6912278 39.0871974 69.75 36.9898844 70.8087722 34.8925714 72.3564445 33.2032819 74.3930636 31.9219653 76.4296826 30.6406487 78.9248407 30 81.8786127 30 84.468221 30 86.7644409 30.5158908 88.767341 31.5476879 90.7702412 32.5794849 92.3381446 34.0057712 93.4710983 35.8265896 94.6040519 37.6474079 95.1705202 39.7446895 95.1705202 42.1184971 95.1705202 44.8429809 94.3545361 47.439294 92.7225434 49.9075145 91.0905506 52.3757349 88.9528071 54.9787917 86.3092486 57.716763L79.1473988 65.0404624 79.1473988 65.283237 96.2630058 65.283237zM111.991211 30L111.991211 56 107.408203 56 107.408203 36.5 107.205078 36.5C106.934243 36.9654971 106.350265 37.3696272 105.453125 37.7124023 104.555985 38.0551775 103.404955 38.2265625 102 38.2265625L102 34.2021484C103.142584 34.2021484 104.073564 34.0011413 104.792969 33.5991211 105.512373 33.1971009 106.06673 32.727379 106.456055 32.1899414 106.84538 31.6525038 107.120442 31.1679709 107.28125 30.7363281 107.442058 30.3046853 107.535156 30.0592451 107.560547 30L111.991211 30z"/>
</svg>
