<svg xmlns="http://www.w3.org/2000/svg" width="128" height="128" viewBox="0 0 128 128">
  <path fill-rule="evenodd" d="M46.819426,10 L85.180574,10 C89.6381677,10 91.2545989,10.4641281 92.8842285,11.3356635 C94.5138581,12.207199 95.792801,13.4861419 96.6643365,15.1157715 C97.5358719,16.7454011 98,18.3618323 98,22.819426 L98,107.180574 C98,111.638168 97.5358719,113.254599 96.6643365,114.884229 C95.792801,116.513858 94.5138581,117.792801 92.8842285,118.664336 C91.2545989,119.535872 89.6381677,120 85.180574,120 L46.819426,120 C42.3618323,120 40.7454011,119.535872 39.1157715,118.664336 C37.4861419,117.792801 36.207199,116.513858 35.3356635,114.884229 C34.4641281,113.254599 34,111.638168 34,107.180574 L34,22.819426 C34,18.3618323 34.4641281,16.7454011 35.3356635,15.1157715 C36.207199,13.4861419 37.4861419,12.207199 39.1157715,11.3356635 C40.7454011,10.4641281 42.3618323,10 46.819426,10 Z M44,20 C40.6862915,20 38,22.6862915 38,26 L38,98 C38,101.313708 40.6862915,104 44,104 L88,104 C91.3137085,104 94,101.313708 94,98 L94,26 C94,22.6862915 91.3137085,20 88,20 L44,20 Z M66,118 C69.3137085,118 72,115.313708 72,112 C72,108.686292 69.3137085,106 66,106 C62.6862915,106 60,108.686292 60,112 C60,115.313708 62.6862915,118 66,118 Z"/>
</svg>
