<svg xmlns="http://www.w3.org/2000/svg" width="128" height="128" viewBox="0 0 128 128">
  <path d="M44.819426,34 C41.3592017,34 40.1954814,34.2247248 39.0021669,34.8629163 C38.0696112,35.3616526 37.3616526,36.0696112 36.8629163,37.0021669 C36.2247248,38.1954814 36,39.3592017 36,42.819426 L36,85.180574 C36,88.6407983 36.2247248,89.8045186 36.8629163,90.9978331 C37.3616526,91.9303888 38.0696112,92.6383474 39.0021669,93.1370837 C40.1954814,93.7752752 41.3592017,94 44.819426,94 L83.180574,94 C86.6407983,94 87.8045186,93.7752752 88.9978331,93.1370837 C89.9303888,92.6383474 90.6383474,91.9303888 91.1370837,90.9978331 C91.7752752,89.8045186 92,88.6407983 92,85.180574 L92,42.819426 C92,39.3592017 91.7752752,38.1954814 91.1370837,37.0021669 C90.6383474,36.0696112 89.9303888,35.3616526 88.9978331,34.8629163 C87.8045186,34.2247248 86.6407983,34 83.180574,34 L44.819426,34 Z M87.4137325,97.7717798 L83.9586837,120 L44.0413163,120 L40.5862675,97.7717798 C39.0397765,97.5531221 38.0800847,97.1800568 37.1157715,96.6643365 C35.4861419,95.792801 34.207199,94.5138581 33.3356635,92.8842285 C32.4641281,91.2545989 32,89.6381677 32,85.180574 L32,42.819426 C32,38.3618323 32.4641281,36.7454011 33.3356635,35.1157715 C34.207199,33.4861419 35.4861419,32.207199 37.1157715,31.3356635 C38.0800847,30.8199432 39.0397765,30.4468779 40.5862675,30.2282202 L44.0413163,8 L83.9586837,8 L87.4137325,30.2282202 C88.9602235,30.4468779 89.9199153,30.8199432 90.8842285,31.3356635 C92.5138581,32.207199 93.792801,33.4861419 94.6643365,35.1157715 C95.5358719,36.7454011 96,38.3618323 96,42.819426 L96,85.180574 C96,89.6381677 95.5358719,91.2545989 94.6643365,92.8842285 C93.792801,94.5138581 92.5138581,95.792801 90.8842285,96.6643365 C89.9199153,97.1800568 88.9602235,97.5531221 87.4137325,97.7717798 Z"/>
</svg>
