<svg xmlns="http://www.w3.org/2000/svg" width="128" height="128" viewBox="0 0 128 128">
  <path d="M48.9319639,14 L45.2329559,14 C41.6611114,14 40.4598517,14.2247248 39.2280433,14.8629163 C38.2654051,15.3616526 37.5346091,16.0696112 37.0197846,17.0021669 C36.3610062,18.1954814 36.1290323,19.3592017 36.1290323,22.819426 L36.1290323,107.180574 C36.1290323,110.640798 36.3610062,111.804519 37.0197846,112.997833 C37.5346091,113.930389 38.2654051,114.638347 39.2280433,115.137084 C40.4598517,115.775275 41.6611114,116 45.2329559,116 L82.7670441,116 C86.3388886,116 87.5401483,115.775275 88.7719567,115.137084 C89.7345949,114.638347 90.4653909,113.930389 90.9802154,112.997833 C91.6389938,111.804519 91.8709677,110.640798 91.8709677,107.180574 L91.8709677,22.819426 C91.8709677,19.3592017 91.6389938,18.1954814 90.9802154,17.0021669 C90.4653909,16.0696112 89.7345949,15.3616526 88.7719567,14.8629163 C87.5401483,14.2247248 86.3388886,14 82.7670441,14 L79.0680361,14 L76.2721443,20 L51.7278557,20 L48.9319639,14 Z M45.2329559,10 L82.7670441,10 C87.3684312,10 89.0370053,10.4641281 90.7192036,11.3356635 C92.401402,12.207199 93.7216011,13.4861419 94.6212506,15.1157715 C95.5209001,16.7454011 96,18.3618323 96,22.819426 L96,107.180574 C96,111.638168 95.5209001,113.254599 94.6212506,114.884229 C93.7216011,116.513858 92.401402,117.792801 90.7192036,118.664336 C89.0370053,119.535872 87.3684312,120 82.7670441,120 L45.2329559,120 C40.6315688,120 38.9629947,119.535872 37.2807964,118.664336 C35.598598,117.792801 34.2783989,116.513858 33.3787494,114.884229 C32.4790999,113.254599 32,111.638168 32,107.180574 L32,22.819426 C32,18.3618323 32.4790999,16.7454011 33.3787494,15.1157715 C34.2783989,13.4861419 35.598598,12.207199 37.2807964,11.3356635 C38.9629947,10.4641281 40.6315688,10 45.2329559,10 Z"/>
</svg>
