<svg xmlns="http://www.w3.org/2000/svg" width="128" height="128" viewBox="0 0 128 128">
  <path d="M46.819426,10 L83.180574,10 C87.6381677,10 89.2545989,10.4641281 90.8842285,11.3356635 C92.5138581,12.207199 93.792801,13.4861419 94.6643365,15.1157715 C95.5358719,16.7454011 96,18.3618323 96,22.819426 L96,107.180574 C96,111.638168 95.5358719,113.254599 94.6643365,114.884229 C93.792801,116.513858 92.5138581,117.792801 90.8842285,118.664336 C89.2545989,119.535872 87.6381677,120 83.180574,120 L46.819426,120 C42.3618323,120 40.7454011,119.535872 39.1157715,118.664336 C37.4861419,117.792801 36.207199,116.513858 35.3356635,114.884229 C34.4641281,113.254599 34,111.638168 34,107.180574 L34,22.819426 C34,18.3618323 34.4641281,16.7454011 35.3356635,15.1157715 C36.207199,13.4861419 37.4861419,12.207199 39.1157715,11.3356635 C40.7454011,10.4641281 42.3618323,10 46.819426,10 Z M46.819426,14 C43.3592017,14 42.1954814,14.2247248 41.0021669,14.8629163 C40.0696112,15.3616526 39.3616526,16.0696112 38.8629163,17.0021669 C38.2247248,18.1954814 38,19.3592017 38,22.819426 L38,107.180574 C38,110.640798 38.2247248,111.804519 38.8629163,112.997833 C39.3616526,113.930389 40.0696112,114.638347 41.0021669,115.137084 C42.1954814,115.775275 43.3592017,116 46.819426,116 L83.180574,116 C86.6407983,116 87.8045186,115.775275 88.9978331,115.137084 C89.9303888,114.638347 90.6383474,113.930389 91.1370837,112.997833 C91.7752752,111.804519 92,110.640798 92,107.180574 L92,22.819426 C92,19.3592017 91.7752752,18.1954814 91.1370837,17.0021669 C90.6383474,16.0696112 89.9303888,15.3616526 88.9978331,14.8629163 C87.8045186,14.2247248 86.6407983,14 83.180574,14 L46.819426,14 Z M56.5,21.5 C55.3954305,21.5 54.5,20.6045695 54.5,19.5 C54.5,18.3954305 55.3954305,17.5 56.5,17.5 L72.5,17.5 C73.6045695,17.5 74.5,18.3954305 74.5,19.5 C74.5,20.6045695 73.6045695,21.5 72.5,21.5 L56.5,21.5 Z"/>
</svg>
