<svg xmlns="http://www.w3.org/2000/svg" width="128" height="128" viewBox="0 0 128 128">
  <path d="M34.819426,14 C31.3592017,14 30.1954814,14.2247248 29.0021669,14.8629163 C28.0696112,15.3616526 27.3616526,16.0696112 26.8629163,17.0021669 C26.2247248,18.1954814 26,19.3592017 26,22.819426 L26,107.180574 C26,110.640798 26.2247248,111.804519 26.8629163,112.997833 C27.3616526,113.930389 28.0696112,114.638347 29.0021669,115.137084 C30.1954814,115.775275 31.3592017,116 34.819426,116 L93.180574,116 C96.6407983,116 97.8045186,115.775275 98.9978331,115.137084 C99.9303888,114.638347 100.638347,113.930389 101.137084,112.997833 C101.775275,111.804519 102,110.640798 102,107.180574 L102,22.819426 C102,19.3592017 101.775275,18.1954814 101.137084,17.0021669 C100.638347,16.0696112 99.9303888,15.3616526 98.9978331,14.8629163 C97.8045186,14.2247248 96.6407983,14 93.180574,14 L34.819426,14 Z M34.819426,10 L93.180574,10 C97.6381677,10 99.2545989,10.4641281 100.884229,11.3356635 C102.513858,12.207199 103.792801,13.4861419 104.664336,15.1157715 C105.535872,16.7454011 106,18.3618323 106,22.819426 L106,107.180574 C106,111.638168 105.535872,113.254599 104.664336,114.884229 C103.792801,116.513858 102.513858,117.792801 100.884229,118.664336 C99.2545989,119.535872 97.6381677,120 93.180574,120 L34.819426,120 C30.3618323,120 28.7454011,119.535872 27.1157715,118.664336 C25.4861419,117.792801 24.207199,116.513858 23.3356635,114.884229 C22.4641281,113.254599 22,111.638168 22,107.180574 L22,22.819426 C22,18.3618323 22.4641281,16.7454011 23.3356635,15.1157715 C24.207199,13.4861419 25.4861419,12.207199 27.1157715,11.3356635 C28.7454011,10.4641281 30.3618323,10 34.819426,10 Z"/>
</svg>
