<svg xmlns="http://www.w3.org/2000/svg" width="128" height="128" viewBox="0 0 128 128">
  <path d="M64,106 C87.1959595,106 106,87.1959595 106,64 C106,40.8040405 87.1959595,22 64,22 C40.8040405,22 22,40.8040405 22,64 C22,87.1959595 40.8040405,106 64,106 Z M64,110 C38.5949015,110 18,89.4050985 18,64 C18,38.5949015 38.5949015,18 64,18 C89.4050985,18 110,38.5949015 110,64 C110,89.4050985 89.4050985,110 64,110 Z M64,74 C58.4771525,74 54,69.5228475 54,64 C54,58.4771525 58.4771525,54 64,54 C69.5228475,54 74,58.4771525 74,64 C74,69.5228475 69.5228475,74 64,74 Z M64,78 C71.7319865,78 78,71.7319865 78,64 C78,56.2680135 71.7319865,50 64,50 C56.2680135,50 50,56.2680135 50,64 C50,71.7319865 56.2680135,78 64,78 Z"/>
</svg>
