<svg xmlns="http://www.w3.org/2000/svg" width="128" height="128" viewBox="0 0 128 128">
  <path fill-rule="evenodd" d="M34,65 C34,62.2385763 36.2385763,60 39,60 C41.7614237,60 44,62.2385763 44,65 C44,67.7614237 41.7614237,70 39,70 C36.2385763,70 34,67.7614237 34,65 Z M60,65 C60,62.2385763 62.2385763,60 65,60 C67.7614237,60 70,62.2385763 70,65 C70,67.7614237 67.7614237,70 65,70 C62.2385763,70 60,67.7614237 60,65 Z M86,65 C86,62.2385763 88.2385763,60 91,60 C93.7614237,60 96,62.2385763 96,65 C96,67.7614237 93.7614237,70 91,70 C88.2385763,70 86,67.7614237 86,65 Z"/>
</svg>
