<svg xmlns="http://www.w3.org/2000/svg" width="128" height="128" viewBox="0 0 128 128">
  <path fill-rule="evenodd" d="M65,34 C67.7614237,34 70,36.2385763 70,39 C70,41.7614237 67.7614237,44 65,44 C62.2385763,44 60,41.7614237 60,39 C60,36.2385763 62.2385763,34 65,34 Z M65,60 C67.7614237,60 70,62.2385763 70,65 C70,67.7614237 67.7614237,70 65,70 C62.2385763,70 60,67.7614237 60,65 C60,62.2385763 62.2385763,60 65,60 Z M65,86 C67.7614237,86 70,88.2385763 70,91 C70,93.7614237 67.7614237,96 65,96 C62.2385763,96 60,93.7614237 60,91 C60,88.2385763 62.2385763,86 65,86 Z"/>
</svg>
