<svg xmlns="http://www.w3.org/2000/svg" width="128" height="128" viewBox="0 0 128 128">
  <path d="M64,108 C88.300529,108 108,88.300529 108,64 C108,39.699471 88.300529,20 64,20 C39.699471,20 20,39.699471 20,64 C20,88.300529 39.699471,108 64,108 Z M64,112 C37.490332,112 16,90.509668 16,64 C16,37.490332 37.490332,16 64,16 C90.509668,16 112,37.490332 112,64 C112,90.509668 90.509668,112 64,112 Z M84.4051248,64.2 C86.1008001,64.2 87.0271123,66.177715 85.9415674,67.4803688 L65.5364426,91.9665186 C64.7368523,92.9260269 63.2631477,92.9260269 62.4635574,91.9665186 L42.0584326,67.4803688 C40.9728877,66.177715 41.8991999,64.2 43.5948752,64.2 L51,64.2 L51,41 C51,39.8954305 51.8954305,39 53,39 L75,39 C76.1045695,39 77,39.8954305 77,41 L77,64.2 L84.4051248,64.2 Z M75,68.2 C73.8954305,68.2 73,67.3045695 73,66.2 L73,43 L55,43 L55,66.2 C55,67.3045695 54.1045695,68.2 53,68.2 L47.8649584,68.2 L64,87.5620499 L80.1350416,68.2 L75,68.2 Z"/>
</svg>
