<svg xmlns="http://www.w3.org/2000/svg" width="128" height="128" viewBox="0 0 128 128">
  <path d="M14,47.3136437 L16.2930707,45.5119453 C18.8987005,43.4646648 22.6706295,43.9172963 24.71791,46.5229261 C25.5484991,47.5800394 26,48.8854719 26,50.2298554 L26,77.7701446 C26,81.0838531 23.3137085,83.7701446 20,83.7701446 C18.6556165,83.7701446 17.3501841,83.3186437 16.2930707,82.4880547 L14,80.6863563 L14,104 C14,107.313708 16.6862915,110 20,110 L100,110 C103.313708,110 106,107.313708 106,104 L106,75.599358 L110.764357,79.3427813 C111.116728,79.6196443 111.551872,79.7701446 112,79.7701446 C113.104569,79.7701446 114,78.8747141 114,77.7701446 L114,50.2298554 C114,49.7817276 113.8495,49.3465834 113.572637,48.9942123 C112.89021,48.125669 111.6329,47.9747919 110.764357,48.6572187 L106,52.400642 L106,24 C106,20.6862915 103.313708,18 100,18 L20,18 C16.6862915,18 14,20.6862915 14,24 L14,47.3136437 Z M110,83.4269989 L110,104 C110,109.522847 105.522847,114 100,114 L20,114 C14.4771525,114 10,109.522847 10,104 L10,72.4565009 L18.7643569,79.3427813 C19.116728,79.6196443 19.5518722,79.7701446 20,79.7701446 C21.1045695,79.7701446 22,78.8747141 22,77.7701446 L22,50.2298554 C22,49.7817276 21.8494997,49.3465834 21.5726367,48.9942123 C20.8902098,48.125669 19.6329002,47.9747919 18.7643569,48.6572187 L10,55.5434991 L10,24 C10,18.4771525 14.4771525,14 20,14 L100,14 C105.522847,14 110,18.4771525 110,24 L110,44.5712711 C112.359109,43.7371759 115.08625,44.4462681 116.71791,46.5229261 C117.548499,47.5800394 118,48.8854719 118,50.2298554 L118,77.7701446 C118,81.0838531 115.313708,83.7701446 112,83.7701446 C111.313913,83.7701446 110.63797,83.6525545 110,83.4269989 Z"/>
</svg>
