<svg xmlns="http://www.w3.org/2000/svg" width="128" height="128" viewBox="0 0 128 128">
  <path d="M16,63.7066575 C25.5812232,80.2697353 43.4892503,91.4133149 64,91.4133149 C84.5107497,91.4133149 102.418777,80.2697353 112,63.7066575 C102.418777,47.1435797 84.5107497,36 64,36 C43.4892503,36 25.5812232,47.1435797 16,63.7066575 Z M12.5375765,61.7037536 C23.0845159,43.4712405 42.545062,32 64,32 C85.454938,32 104.915484,43.4712405 115.462423,61.7037536 L116.621041,63.7066575 L115.462423,65.7095613 C104.915484,83.9420744 85.454938,95.4133149 64,95.4133149 C42.545062,95.4133149 23.0845159,83.9420744 12.5375765,65.7095613 L11.3789592,63.7066575 L12.5375765,61.7037536 Z M64,81 C73.3888407,81 81,73.3888407 81,64 C81,54.6111593 73.3888407,47 64,47 C54.6111593,47 47,54.6111593 47,64 C47,73.3888407 54.6111593,81 64,81 Z"/>
</svg>
