<svg xmlns="http://www.w3.org/2000/svg" width="128" height="128" viewBox="0 0 128 128">
  <path fill-rule="evenodd" d="M63.2599432,70.5994318 L63.2599432,78.5923295 L56.1122159,78.5923295 L56.1122159,88.1306818 L47.6363636,88.1306818 L47.6363636,78.5923295 L26,78.5923295 L26,72.3380682 L46.5497159,38.6761364 L56.1122159,38.6761364 L56.1122159,70.5994318 L63.2599432,70.5994318 Z M35.9488636,70.5994318 L47.6363636,70.5994318 L47.6363636,50.4602273 L46.5497159,52.5610795 L35.9488636,70.5994318 Z M101.96875,74.390625 C101.96875,77.4815495 101.256399,80.1015518 99.8316761,82.2507102 C98.4069531,84.3998687 96.4711297,86.029824 94.0241477,87.140625 C91.5771658,88.251426 88.8002049,88.8068182 85.6931818,88.8068182 C82.5861587,88.8068182 79.7930995,88.251426 77.3139205,87.140625 C74.8347414,86.029824 72.8667213,84.4038933 71.4098011,82.2627841 C69.952881,80.1216749 69.2244318,77.4976481 69.2244318,74.390625 C69.2244318,71.5894746 69.904586,69.1707015 71.2649148,67.134233 C72.6252435,65.0977644 74.4483787,63.5161041 76.734375,62.3892045 C74.7542515,61.3106007 73.192714,59.8537024 72.0497159,58.0184659 C70.9067178,56.1832295 70.3352273,54.0341032 70.3352273,51.5710227 C70.3352273,48.6088867 70.9952586,46.1216957 72.3153409,44.109375 C73.6354233,42.0970543 75.4505093,40.5757627 77.7606534,39.5454545 C80.0707975,38.5151464 82.6988489,38 85.6448864,38 C88.623121,38 91.2632461,38.5151464 93.5653409,39.5454545 C95.8674358,40.5757627 97.6744726,42.0970543 98.9865057,44.109375 C100.298539,46.1216957 100.954545,48.6088867 100.954545,51.5710227 C100.954545,54.0341032 100.37903,56.187254 99.227983,58.0305398 C98.0769355,59.8738255 96.5113735,61.3347484 94.53125,62.4133523 C96.8172463,63.5402518 98.6283077,65.1219122 99.9644886,67.1583807 C101.30067,69.1948492 101.96875,71.6055732 101.96875,74.390625 Z M91.8508523,52.0298295 C91.8508523,50.0819031 91.2713126,48.536464 90.1122159,47.3934659 C88.9531192,46.2504678 87.4398768,45.6789773 85.5724432,45.6789773 C83.7694039,45.6789773 82.2923826,46.2343694 81.1413352,47.3451705 C79.9902878,48.4559715 79.4147727,50.0094597 79.4147727,52.0056818 C79.4147727,54.0019039 79.998337,55.6157609 81.165483,56.8473011 C82.3326289,58.0788414 83.8418468,58.6946023 85.6931818,58.6946023 C87.5445168,58.6946023 89.0336118,58.0788414 90.1605114,56.8473011 C91.2874109,55.6157609 91.8508523,54.0099531 91.8508523,52.0298295 Z M92.7926136,73.7869318 C92.7926136,71.5331327 92.1044103,69.7059729 90.727983,68.3053977 C89.3515556,66.9048225 87.6330595,66.2045455 85.5724432,66.2045455 C83.5440239,66.2045455 81.8376016,66.9048225 80.453125,68.3053977 C79.0686484,69.7059729 78.3764205,71.5250835 78.3764205,73.7627841 C78.3764205,75.9682875 79.072673,77.7511769 80.4651989,79.1115057 C81.8577248,80.4718345 83.6003683,81.1519886 85.6931818,81.1519886 C87.8020939,81.1519886 89.5125408,80.4718345 90.8245739,79.1115057 C92.1366069,77.7511769 92.7926136,75.9763367 92.7926136,73.7869318 Z"/>
</svg>
