<svg xmlns="http://www.w3.org/2000/svg" width="128" height="128" viewBox="0 0 128 128">
  <path fill-rule="evenodd" d="M64,62.7195575 L64,40 C64,37.790861 65.790861,36 68,36 C69.060866,36 70.0782816,36.4214274 70.8284271,37.1715729 L95.1715729,61.5147186 C96.73367,63.0768158 96.73367,65.6094757 95.1715729,67.1715729 L70.8284271,91.5147186 C69.26633,93.0768158 66.73367,93.0768158 65.1715729,91.5147186 C64.4214274,90.7645731 64,89.7471575 64,88.6862915 L64,65.9667341 C63.8060634,66.4038005 63.529921,66.8132247 63.1715729,67.1715729 L38.8284271,91.5147186 C37.26633,93.0768158 34.73367,93.0768158 33.1715729,91.5147186 C32.4214274,90.7645731 32,89.7471575 32,88.6862915 L32,40 C32,37.790861 33.790861,36 36,36 C37.060866,36 38.0782816,36.4214274 38.8284271,37.1715729 L63.1715729,61.5147186 C63.529921,61.8730668 63.8060634,62.282491 64,62.7195575 Z"/>
</svg>
