<svg xmlns="http://www.w3.org/2000/svg" width="128" height="128" viewBox="0 0 128 128">
  <path d="M59,73 L59,65 C59,62.2385763 61.2385763,60 64,60 C66.7614237,60 69,62.2385763 69,65 L69,73 L77,73 C79.7614237,73 82,75.2385763 82,78 C82,80.7614237 79.7614237,83 77,83 L69,83 L69,91 C69,93.7614237 66.7614237,96 64,96 C61.2385763,96 59,93.7614237 59,91 L59,83 L51,83 C48.2385763,83 46,80.7614237 46,78 C46,75.2385763 48.2385763,73 51,73 L59,73 Z M72,22.1957745 L72,40 C72,41.1045695 72.8954305,42 74,42 L91.8042255,42 L72,22.1957745 Z M93.6203035,46 L74,46 C70.6862915,46 68,43.3137085 68,40 L68,20.3325167 C66.5825653,20.2958996 64.7660074,20.2609543 62.5535794,20.2278342 C56.5690473,20.1382457 47.7092666,20.0622491 36,20 C34.8954305,20 34,20.8954305 34,22 L34,106 C34,107.104569 34.8954305,108 36,108 L92,108 C93.1045695,108 94,107.104569 94.0000175,106.011837 C93.9376691,84.942872 93.8616057,69.0781253 93.7718595,58.4202286 C93.7270577,53.0997538 93.6788651,49.0799546 93.6274117,46.3657244 C93.6250475,46.2410082 93.6226771,46.1190978 93.6203009,46 L93.6203035,46 Z M97.4610798,42 C97.6956236,42.5153964 97.8752636,63.8487297 98,106 C98,109.313708 95.3137085,112 92,112 L36,112 C32.6862915,112 30,109.313708 30,106 L30,22 C30,18.6862915 32.6862915,16 36,16 C59.4846036,16.1247364 71.4846036,16.3043764 72,16.5389202 L97.4610798,42 Z"/>
</svg>
