<svg xmlns="http://www.w3.org/2000/svg" width="128" height="128" viewBox="0 0 128 128">
  <path d="M67,27.1957745 L67,45 C67,46.1045695 67.8954305,47 69,47 L86.8042255,47 L67,27.1957745 Z M88.6203035,51 L69,51 C65.6862915,51 63,48.3137085 63,45 L63,25.3325167 C61.5825653,25.2958996 59.7660074,25.2609543 57.5535794,25.2278342 C51.5690473,25.1382457 42.7092666,25.0622491 31,25 C29.8954305,25 29,25.8954305 29,27 L29,111 C29,112.104569 29.8954305,113 31,113 L87,113 C88.1045695,113 89,112.104569 89.0000175,111.011837 C88.9376691,89.942872 88.8616057,74.0781253 88.7718595,63.4202286 C88.7270577,58.0997538 88.6788651,54.0799546 88.6274117,51.3657244 C88.6250475,51.2410082 88.6226771,51.1190978 88.6203009,51 L88.6203035,51 Z M76,30.5389202 L83.4610798,38 L95.8042255,38 L76,18.1957745 L76,30.5389202 Z M72,26.5389202 L72,16.3325167 C70.5825653,16.2958996 68.7660074,16.2609543 66.5535794,16.2278342 C60.5690473,16.1382457 51.7092666,16.0622491 40,16 C38.8954305,16 38,16.8954305 38,18 L38,21.0409928 C56.8719085,21.1629617 66.5385752,21.3289375 67,21.5389202 L72,26.5389202 Z M34,21.0165924 L34,18 C34,14.6862915 36.6862915,12 40,12 C63.4846036,12.1247364 75.4846036,12.3043764 76,12.5389202 L101.46108,38 C101.695624,38.5153964 101.875264,59.8487297 102,102 C102,105.313708 99.3137085,108 96,108 L92.9909208,108 C92.9939788,108.988 92.9970052,109.988 93,111 C93,114.313708 90.3137085,117 87,117 L31,117 C27.6862915,117 25,114.313708 25,111 L25,27 C25,23.6862915 27.6862915,21 31,21 C32.0217385,21.0054269 33.0217385,21.0109577 34,21.0165924 Z M92.9781513,104 L96,104 C97.1045695,104 98,103.104569 98.0000175,102.011837 C97.9376691,80.942872 97.8616057,65.0781253 97.7718595,54.4202286 C97.7270577,49.0997538 97.6788651,45.0799546 97.6274117,42.3657244 C97.6250475,42.2410082 97.6226771,42.1190978 97.6203009,42 L87.4610798,42 L92.4610798,47 C92.6822643,47.4860402 92.8546215,66.4860402 92.9781513,104 Z"/>
</svg>
