<svg xmlns="http://www.w3.org/2000/svg" width="128" height="128" viewBox="0 0 128 128">
  <path d="M72,22.1957745 L72,40 C72,41.1045695 72.8954305,42 74,42 L91.8042255,42 L72,22.1957745 Z M93.6203035,46 L74,46 C70.6862915,46 68,43.3137085 68,40 L68,20.3325167 C66.5825653,20.2958996 64.7660074,20.2609543 62.5535794,20.2278342 C56.5690473,20.1382457 47.7092666,20.0622491 36,20 C34.8954305,20 34,20.8954305 34,22 L34,106 C34,107.104569 34.8954305,108 36,108 L92,108 C93.1045695,108 94,107.104569 94.0000175,106.011837 C93.9376691,84.942872 93.8616057,69.0781253 93.7718595,58.4202286 C93.7270577,53.0997538 93.6788651,49.0799546 93.6274117,46.3657244 C93.6250475,46.2410082 93.6226771,46.1190978 93.6203009,46 Z M97.4610798,42 C97.6956236,42.5153964 97.8752636,63.8487297 98,106 C98,109.313708 95.3137085,112 92,112 L36,112 C32.6862915,112 30,109.313708 30,106 L30,22 C30,18.6862915 32.6862915,16 36,16 C59.4846036,16.1247364 71.4846036,16.3043764 72,16.5389202 L97.4610798,42 Z M41,101 C39.8954305,101 39,100.104569 39,99 C39,97.8954305 39.8954305,97 41,97 L88,97 C89.1045695,97 90,97.8954305 90,99 C90,100.104569 89.1045695,101 88,101 L41,101 Z M41,91 C39.8954305,91 39,90.1045695 39,89 C39,87.8954305 39.8954305,87 41,87 L67,87 C68.1045695,87 69,87.8954305 69,89 C69,90.1045695 68.1045695,91 67,91 L41,91 Z M41,81 C39.8954305,81 39,80.1045695 39,79 C39,77.8954305 39.8954305,77 41,77 L88,77 C89.1045695,77 90,77.8954305 90,79 C90,80.1045695 89.1045695,81 88,81 L41,81 Z M41,71 C39.8954305,71 39,70.1045695 39,69 C39,67.8954305 39.8954305,67 41,67 L67,67 C68.1045695,67 69,67.8954305 69,69 C69,70.1045695 68.1045695,71 67,71 L41,71 Z M41,61 C39.8954305,61 39,60.1045695 39,59 C39,57.8954305 39.8954305,57 41,57 L51,57 C52.1045695,57 53,57.8954305 53,59 C53,60.1045695 52.1045695,61 51,61 L41,61 Z"/>
</svg>
