<svg xmlns="http://www.w3.org/2000/svg" width="128" height="128" viewBox="0 0 128 128">
  <path d="M93.7445592,55.3826412 C93.7030394,51.0647235 93.6587891,47.8003603 93.6119676,45.5949015 C93.5964323,44.8631323 93.5806615,44.2507659 93.5648231,43.7605976 L70.2081504,20.4039249 C69.9504487,20.3929702 69.6566377,20.3820012 69.3277862,20.3711182 C67.7922002,20.3202996 65.5314869,20.2724135 62.5535794,20.2278342 C56.5690473,20.1382457 47.7092666,20.0622491 36,20 C34.8954305,20 34,20.8954305 34,22 L34,65.2469942 L93.939058,88.1648693 C93.8828675,73.9509396 93.8180254,63.0228652 93.7445592,55.3826412 Z M30,68 L30,22 C30,18.6862915 32.6862915,16 36,16 C59.4846036,16.1247364 71.4846036,16.3043764 72,16.5389202 L97.4610798,42 C97.6721814,42.4638835 97.8388058,59.7922402 97.9609531,93.9850703 L30,68 Z M34,98 L34,106 C34,107.104569 34.8954305,108 36,108 L92,108 C93.1045695,108 94,107.104569 94.0000175,106.011837 C93.9918503,103.251933 93.9834477,100.58132 93.9748097,98 L34,98 Z M98,106 C98,109.313708 95.3137085,112 92,112 L36,112 C32.6862915,112 30,109.313708 30,106 L30,94 L97.9610064,94 C97.9745513,97.7925813 97.9875492,101.792581 98,106 Z M68,20 L72,20 L72,40 C72,41.1045695 72.8954305,42 74,42 L94,42 L94,46 L74,46 C70.6862915,46 68,43.3137085 68,40 L68,20 Z"/>
</svg>
