<svg xmlns="http://www.w3.org/2000/svg" width="128" height="128" viewBox="0 0 128 128">
  <path d="M101.46108,38 C101.695624,38.5153964 101.875264,59.8487297 102,102 C102,105.313708 99.3137085,108 96,108 L40,108 C36.6862915,108 34,105.313708 34,102 L34,18 C34,14.6862915 36.6862915,12 40,12 C63.4846036,12.1247364 75.4846036,12.3043764 76,12.5389202 L101.46108,38 Z M97.6203035,42 L78,42 C74.6862915,42 72,39.3137085 72,36 L72,16.3325167 C70.5825653,16.2958996 68.7660074,16.2609543 66.5535794,16.2278342 C60.5690473,16.1382457 51.7092666,16.0622491 40,16 C38.8954305,16 38,16.8954305 38,18 L38,102 C38,103.104569 38.8954305,104 40,104 L96,104 C97.1045695,104 98,103.104569 98.0000175,102.011837 C97.9376691,80.942872 97.8616057,65.0781253 97.7718595,54.4202286 C97.7270577,49.0997538 97.6788651,45.0799546 97.6274117,42.3657244 C97.6250475,42.2410082 97.6226771,42.1190978 97.6203009,42 L97.6203035,42 Z M76,18.1957745 L76,36 C76,37.1045695 76.8954305,38 78,38 L95.8042255,38 L76,18.1957745 Z M34,20.0109111 L34,24.0109215 C33.3428387,24.0072352 32.6761704,24.0035947 32,24 C30.8954305,24 30,24.8954305 30,26 L30,110 C30,111.104569 30.8954305,112 32,112 L88,112 C89.1045695,112 90,111.104569 90.0000175,110.011837 C89.9980171,109.335868 89.9960027,108.665255 89.9939764,108 L93.9939927,108 C93.9960091,108.661376 93.9980115,109.328043 94,110 C94,113.313708 91.3137085,116 88,116 L32,116 C28.6862915,116 26,113.313708 26,110 L26,26 C26,22.6862915 28.6862915,20 32,20 C32.6761877,20.0035915 33.3428544,20.0072285 34,20.0109111 Z"/>
</svg>
