<svg xmlns="http://www.w3.org/2000/svg" width="128" height="128" viewBox="0 0 128 128">
  <path d="M54,30 L18,98 L54,98 L54,30 Z M58,30 L58,98 C58,100.209139 56.209139,102 54,102 L18,102 C14.9857002,102 13.0544945,98.7924508 14.4648483,96.1284491 L50.4648483,28.1284491 C52.4162713,24.4424279 58,25.8292921 58,30 Z M77.5351517,28.1284491 L113.535152,96.1284491 C114.945506,98.7924508 113.0143,102 110,102 L74,102 C71.790861,102 70,100.209139 70,98 L70,30 C70,25.8292921 75.5837287,24.4424279 77.5351517,28.1284491 Z M62,18 C62,16.8954305 62.8954305,16 64,16 C65.1045695,16 66,16.8954305 66,18 L66,110 C66,111.104569 65.1045695,112 64,112 C62.8954305,112 62,111.104569 62,110 L62,18 Z"/>
</svg>
