<svg xmlns="http://www.w3.org/2000/svg" width="128" height="128" viewBox="0 0 128 128">
  <path d="M98,54 L30,18 L30,54 L98,54 Z M98,58 L30,58 C27.790861,58 26,56.209139 26,54 L26,18 C26,14.9857002 29.2075492,13.0544945 31.8715509,14.4648483 L99.8715509,50.4648483 C103.557572,52.4162713 102.170708,58 98,58 Z M99.8715509,77.5351517 L31.8715509,113.535152 C29.2075492,114.945506 26,113.0143 26,110 L26,74 C26,71.790861 27.790861,70 30,70 L98,70 C102.170708,70 103.557572,75.5837287 99.8715509,77.5351517 Z M110,62 C111.104569,62 112,62.8954305 112,64 C112,65.1045695 111.104569,66 110,66 L18,66 C16.8954305,66 16,65.1045695 16,64 C16,62.8954305 16.8954305,62 18,62 L110,62 Z"/>
</svg>
