<svg xmlns="http://www.w3.org/2000/svg" width="128" height="128" viewBox="0 0 128 128">
  <path d="M86,20 L86,46 C86,49.3137085 83.3137085,52 80,52 L44,52 C40.6862915,52 38,49.3137085 38,46 L38,20 L24,20 C21.790861,20 20,21.790861 20,24 L20,104 C20,106.209139 21.790861,108 24,108 L30.3414114,108 C30.1203084,107.374442 30,106.701271 30,106 L30,76 L98,76 L98,106 C98,106.701271 97.8796916,107.374442 97.6585886,108 L104,108 C106.209139,108 108,106.209139 108,104 L108,34.8284271 L93.1715729,20 L86,20 Z M112,33.1715729 L112,104 C112,108.418278 108.418278,112 104,112 L24,112 C19.581722,112 16,108.418278 16,104 L16,24 C16,19.581722 19.581722,16 24,16 L94.8284271,16 L112,33.1715729 Z M34,80 L34,106 C34,107.104569 34.8954305,108 36,108 L92,108 C93.1045695,108 94,107.104569 94,106 L94,80 L34,80 Z M42,20 L42,46 C42,47.1045695 42.8954305,48 44,48 L80,48 C81.1045695,48 82,47.1045695 82,46 L82,20 L42,20 Z M68,22 L70,22 C73.3137085,22 76,24.6862915 76,28 L76,40 C76,43.3137085 73.3137085,46 70,46 L68,46 C64.6862915,46 62,43.3137085 62,40 L62,28 C62,24.6862915 64.6862915,22 68,22 Z M68,26 C66.8954305,26 66,26.8954305 66,28 L66,40 C66,41.1045695 66.8954305,42 68,42 L70,42 C71.1045695,42 72,41.1045695 72,40 L72,28 C72,26.8954305 71.1045695,26 70,26 L68,26 Z"/>
</svg>
