<svg xmlns="http://www.w3.org/2000/svg" width="128" height="128" viewBox="0 0 128 128">
  <path d="M21.6916556,40 C19.8570646,40 19.4083644,40.086648 18.9558583,40.3286509 C18.6751544,40.478773 18.478773,40.6751544 18.3286509,40.9558583 C18.086648,41.4083644 18,41.8570646 18,43.6916556 L18,96.3083444 C18,98.1429354 18.086648,98.5916356 18.3286509,99.0441417 C18.478773,99.3248456 18.6751544,99.521227 18.9558583,99.6713491 C19.4083644,99.913352 19.8570646,100 21.6916556,100 L106.308344,100 C108.142935,100 108.591636,99.913352 109.044142,99.6713491 C109.324846,99.521227 109.521227,99.3248456 109.671349,99.0441417 C109.913352,98.5916356 110,98.1429354 110,96.3083444 L110,43.6916556 C110,41.8570646 109.913352,41.4083644 109.671349,40.9558583 C109.521227,40.6751544 109.324846,40.478773 109.044142,40.3286509 C108.591636,40.086648 108.142935,40 106.308344,40 L21.6916556,40 Z M54.7730469,36 L106.308344,36 C108.982901,36 109.952759,36.2784768 110.930537,36.8013981 C111.908315,37.3243194 112.675681,38.0916851 113.198602,39.0694629 C113.721523,40.0472407 114,41.0170994 114,43.6916556 L114,96.3083444 C114,98.9829006 113.721523,99.9527593 113.198602,100.930537 C112.675681,101.908315 111.908315,102.675681 110.930537,103.198602 C109.952759,103.721523 108.982901,104 106.308344,104 L21.6916556,104 C19.0170994,104 18.0472407,103.721523 17.0694629,103.198602 C16.0916851,102.675681 15.3243194,101.908315 14.8013981,100.930537 C14.2784768,99.9527593 14,98.9829006 14,96.3083444 L14,30 C14,26.6862915 16.6862915,24 20,24 L46.6566964,24 C49.2926581,24 51.6199039,25.720413 52.3929064,28.2404847 L54.7730469,36 Z M48.5687664,29.4134949 C48.3110989,28.573471 47.5353503,28 46.6566964,28 L20,28 C18.8954305,28 18,28.8954305 18,30 L18,36 L50.5890997,36 L48.5687664,29.4134949 Z M45.472338,62.8206713 C43.6472611,61.3427532 43.3658333,58.6651466 44.8437514,56.8400697 L46.0493809,55.3512413 C47.527299,53.5261644 50.2049056,53.2447366 52.0299825,54.7226547 L52.8058973,55.3509781 C54.0401293,54.5154605 55.3790082,53.850428 56.7898998,53.3762275 L56.7898998,52.2522181 C56.7898998,49.9037829 58.6936827,48 61.0421179,48 L62.9578821,48 C65.3063173,48 67.2101002,49.9037829 67.2101002,52.2522181 L67.2101002,53.3762275 C68.6209918,53.850428 69.9598707,54.5154605 71.1941027,55.3509781 L71.9700175,54.7226547 C73.7950944,53.2447366 76.472701,53.5261644 77.9506191,55.3512413 L79.1562486,56.8400697 C80.6341667,58.6651466 80.3527389,61.3427532 78.527662,62.8206713 L77.6103759,63.563475 C78.1500528,65.0244744 78.491869,66.5602315 78.6226382,68.1364015 L79.7033801,68.3859104 C81.9916251,68.9141934 83.4183562,71.1974404 82.8900732,73.4856854 L82.45912,75.3523486 C81.930837,77.6405936 79.64759,79.0673247 77.3593451,78.5390417 L76.3518213,78.3064365 C75.5816988,79.6328021 74.6386938,80.8473116 73.5507786,81.9157478 L74.0492117,82.937687 C75.0786979,85.0484466 74.2021527,87.5941188 72.0913931,88.6236051 L70.3695157,89.4634208 C68.2587561,90.492907 65.7130839,89.6163618 64.6835977,87.5056022 L64.2035182,86.5212934 C63.4771242,86.6194637 62.741482,86.6690687 62,86.6690687 C61.258518,86.6690687 60.5228758,86.6194637 59.7964818,86.5212934 L59.3164023,87.5056022 C58.2869161,89.6163618 55.7412439,90.492907 53.6304843,89.4634208 L51.9086069,88.6236051 C49.7978473,87.5941188 48.9213021,85.0484466 49.9507883,82.937687 L50.4492214,81.9157478 C49.3613062,80.8473116 48.4183012,79.6328021 47.6481787,78.3064365 L46.6406549,78.5390417 C44.35241,79.0673247 42.069163,77.6405936 41.54088,75.3523486 L41.1099268,73.4856854 C40.5816438,71.1974404 42.0083749,68.9141934 44.2966199,68.3859104 L45.3773618,68.1364015 C45.508131,66.5602315 45.8499472,65.0244744 46.3896241,63.563475 L45.472338,62.8206713 Z M62,81.3676494 C68.3363201,81.3676494 73.4729224,76.098171 73.4729224,69.59794 C73.4729224,63.097709 68.3363201,57.8282306 62,57.8282306 C55.6636799,57.8282306 50.5270776,63.097709 50.5270776,69.59794 C50.5270776,76.098171 55.6636799,81.3676494 62,81.3676494 Z"/>
</svg>
