<svg xmlns="http://www.w3.org/2000/svg" width="128" height="128" viewBox="0 0 128 128">
  <path d="M44.7255105,36 L42.5687664,29.4134949 C42.3110989,28.573471 41.5353503,28 40.6566964,28 L14,28 C12.8954305,28 12,28.8954305 12,30 L12,42 L12.0513927,42.0057103 C12.0154127,42.3906773 12,42.917907 12,43.6916556 L12,87.8950347 L23.3989776,42 C24.2220054,38.6862915 27.5754927,36 30.8892012,36 L44.7255105,36 Z M82,104 L15.6916556,104 C13.0170994,104 12.0472407,103.721523 11.0694629,103.198602 C10.0916851,102.675681 9.32431939,101.908315 8.80139811,100.930537 C8.27847683,99.9527593 8,98.9829006 8,96.3083444 L8,30 C8,26.6862915 10.6862915,24 14,24 L40.6566964,24 C43.2926581,24 45.6199039,25.720413 46.3929064,28.2404847 L48.7730469,36 L82,36 L117.197546,36 C119.872102,36 120.772795,36.2784768 121.620695,36.8013981 C122.468594,37.3243194 123.045369,38.0916851 123.325439,39.0694629 C123.605509,40.0472407 123.643101,41.0170994 122.97882,43.6916556 L109.910381,96.3083444 C109.2461,98.9829006 108.726739,99.9527593 107.960966,100.930537 C107.195194,101.908315 106.237237,102.675681 105.129581,103.198602 C104.021925,103.721523 102.982901,104 100.308344,104 L82,104 Z M15.6916556,100 L100.308344,100 C102.197859,100 102.751356,99.8980068 103.421926,99.5814327 C103.963944,99.3255473 104.428948,98.9530582 104.811814,98.4641954 C105.297767,97.8437064 105.548665,97.2753947 106.028327,95.3441564 L119.096766,42.7274676 C119.365067,41.6472251 119.488836,40.9491506 119.512355,40.5235573 C119.522131,40.3466488 119.518154,40.3054387 119.483568,40.1831743 C118.920727,40.0480529 118.256527,40 117.197546,40 L30.8892012,40 C29.4328585,40 27.6656526,41.41561 27.2810313,42.964188 L13.7924349,97.2725324 C13.5241345,98.3527749 13.4003654,99.0508494 13.3768464,99.4764427 C13.3670701,99.6533512 13.3710471,99.6945613 13.4056328,99.8168257 C13.9684745,99.9519471 14.6326743,100 15.6916556,100 Z"/>
</svg>
