<svg xmlns="http://www.w3.org/2000/svg" width="128" height="128" viewBox="0 0 128 128">
  <g fill="none" fill-rule="evenodd">
    <path fill="#000" fill-rule="nonzero" d="M21.6916556,40 C19.8570646,40 19.4083644,40.086648 18.9558583,40.3286509 C18.6751544,40.478773 18.478773,40.6751544 18.3286509,40.9558583 C18.086648,41.4083644 18,41.8570646 18,43.6916556 L18,96.3083444 C18,98.1429354 18.086648,98.5916356 18.3286509,99.0441417 C18.478773,99.3248456 18.6751544,99.521227 18.9558583,99.6713491 C19.4083644,99.913352 19.8570646,100 21.6916556,100 L106.308344,100 C108.142935,100 108.591636,99.913352 109.044142,99.6713491 C109.324846,99.521227 109.521227,99.3248456 109.671349,99.0441417 C109.913352,98.5916356 110,98.1429354 110,96.3083444 L110,43.6916556 C110,41.8570646 109.913352,41.4083644 109.671349,40.9558583 C109.521227,40.6751544 109.324846,40.478773 109.044142,40.3286509 C108.591636,40.086648 108.142935,40 106.308344,40 L21.6916556,40 Z M54.7730469,36 L106.308344,36 C108.982901,36 109.952759,36.2784768 110.930537,36.8013981 C111.908315,37.3243194 112.675681,38.0916851 113.198602,39.0694629 C113.721523,40.0472407 114,41.0170994 114,43.6916556 L114,96.3083444 C114,98.9829006 113.721523,99.9527593 113.198602,100.930537 C112.675681,101.908315 111.908315,102.675681 110.930537,103.198602 C109.952759,103.721523 108.982901,104 106.308344,104 L21.6916556,104 C19.0170994,104 18.0472407,103.721523 17.0694629,103.198602 C16.0916851,102.675681 15.3243194,101.908315 14.8013981,100.930537 C14.2784768,99.9527593 14,98.9829006 14,96.3083444 L14,30 C14,26.6862915 16.6862915,24 20,24 L46.6566964,24 C49.2926581,24 51.6199039,25.720413 52.3929064,28.2404847 L54.7730469,36 Z M48.5687664,29.4134949 C48.3110989,28.573471 47.5353503,28 46.6566964,28 L20,28 C18.8954305,28 18,28.8954305 18,30 L18,36 L50.5890997,36 L48.5687664,29.4134949 Z"/>
    <path fill="#000" fill-rule="nonzero" d="M57,65 L57,57 C57,54.2385763 59.2385763,52 62,52 C64.7614237,52 67,54.2385763 67,57 L67,65 L75,65 C77.7614237,65 80,67.2385763 80,70 C80,72.7614237 77.7614237,75 75,75 L67,75 L67,83 C67,85.7614237 64.7614237,88 62,88 C59.2385763,88 57,85.7614237 57,83 L57,75 L49,75 C46.2385763,75 44,72.7614237 44,70 C44,67.2385763 46.2385763,65 49,65 L57,65 Z"/>
  </g>
</svg>
