<svg xmlns="http://www.w3.org/2000/svg" width="128" height="128" viewBox="0 0 128 128">
  <path d="M74.8214122,50.7279221 L103.549334,22 L90.3777614,22 C89.2731919,22 88.3777614,21.1045695 88.3777614,20 C88.3777614,18.8954305 89.2731919,18 90.3777614,18 L107.209324,18 C109.243475,18 110.89248,19.6490052 110.89248,21.6831562 L110.89248,38.5147186 C110.89248,39.6192881 109.997049,40.5147186 108.89248,40.5147186 C107.78791,40.5147186 106.89248,39.6192881 106.89248,38.5147186 L106.89248,24.3137085 L77.6498393,53.5563492 C76.8687907,54.3373978 75.6024608,54.3373978 74.8214122,53.5563492 C74.0403636,52.7753006 74.0403636,51.5089706 74.8214122,50.7279221 Z M54.0710678,78.1645579 L25.3431458,106.89248 L38.5147186,106.89248 C39.6192881,106.89248 40.5147186,107.78791 40.5147186,108.89248 C40.5147186,109.997049 39.6192881,110.89248 38.5147186,110.89248 L21.6831562,110.89248 C19.6490052,110.89248 18,109.243475 18,107.209324 L18,90.3777614 C18,89.2731919 18.8954305,88.3777614 20,88.3777614 C21.1045695,88.3777614 22,89.2731919 22,90.3777614 L22,104.578771 L51.2426407,75.3361308 C52.0236893,74.5550822 53.2900192,74.5550822 54.0710678,75.3361308 C54.8521164,76.1171794 54.8521164,77.3835093 54.0710678,78.1645579 Z"/>
</svg>
