<svg xmlns="http://www.w3.org/2000/svg" width="128" height="128" viewBox="0 0 128 128">
  <path d="M109.835442,21.4142136 L81.10752,50.1421356 L94.2790929,50.1421356 C95.3836624,50.1421356 96.2790929,51.0375661 96.2790929,52.1421356 C96.2790929,53.2467051 95.3836624,54.1421356 94.2790929,54.1421356 L77.4475305,54.1421356 C75.4133795,54.1421356 73.7643743,52.4931304 73.7643743,50.4589794 L73.7643743,33.627417 C73.7643743,32.5228475 74.6598048,31.627417 75.7643743,31.627417 C76.8689438,31.627417 77.7643743,32.5228475 77.7643743,33.627417 L77.7643743,47.8284271 L107.007015,18.5857864 C107.788064,17.8047379 109.054393,17.8047379 109.835442,18.5857864 C110.616491,19.366835 110.616491,20.633165 109.835442,21.4142136 Z M18.5857864,105.977578 L47.3137085,77.2496556 L34.1421356,77.2496556 C33.0375661,77.2496556 32.1421356,76.3542251 32.1421356,75.2496556 C32.1421356,74.1450861 33.0375661,73.2496556 34.1421356,73.2496556 L50.973698,73.2496556 C53.007849,73.2496556 54.6568542,74.8986609 54.6568542,76.9328119 L54.6568542,93.7643743 C54.6568542,94.8689438 53.7614237,95.7643743 52.6568542,95.7643743 C51.5522847,95.7643743 50.6568542,94.8689438 50.6568542,93.7643743 L50.6568542,79.5633641 L21.4142136,108.806005 C20.633165,109.587053 19.366835,109.587053 18.5857864,108.806005 C17.8047379,108.024956 17.8047379,106.758626 18.5857864,105.977578 Z"/>
</svg>
