<svg xmlns="http://www.w3.org/2000/svg" width="128" height="128" viewBox="0 0 128 128">
  <path fill-rule="evenodd" d="M40.2978218,87 C43.8429111,95.7072028 49.326995,102.391083 55.7807835,105.702105 C53.2066549,101.294788 51.1641475,94.8087062 49.8188838,87 L40.2978218,87 Z M38.8526363,83 L49.206614,83 C48.5388695,78.0456514 48.1339333,72.6572833 48.0279693,67 L36.0667061,67 C36.3214347,72.7084406 37.2974589,78.1077417 38.8526363,83 Z M36.0073805,63 L48.00309,63 C48.0426225,56.6117648 48.4606066,50.5350224 49.206614,45 L38.8526363,45 C37.1169424,50.460125 36.1026547,56.5518339 36.0073805,63 Z M40.2978218,41 L49.8188838,41 C51.1641475,33.1912938 53.2066549,26.7052117 55.7807835,22.2978946 C49.326995,25.6089174 43.8429111,32.2927972 40.2978218,41 Z M89.7021753,40.9999929 C85.6663139,31.0873938 79.1174413,23.7970995 71.4857041,21.1202906 C74.4065302,25.5075886 76.7104628,32.4634574 78.1811162,41 L89.7021782,41 Z M91.1473657,45 L78.793386,45 C79.5393934,50.5350224 79.9573775,56.6117648 79.99691,63 L93.9926195,63 C93.8973453,56.5518332 92.8830574,50.4601237 91.1473631,44.9999982 Z M93.9332939,67 L79.9720307,67 C79.8660667,72.6572833 79.4611305,78.0456514 78.793386,83 L91.1473657,83 C92.7025409,78.107743 93.6785652,72.7084413 93.9332939,67 Z M89.7021782,87 L78.1811162,87 C76.7104628,95.5365426 74.4065302,102.492411 71.4857041,106.879709 C79.1174413,104.202901 85.6663139,96.9126062 89.7021753,87.0000071 Z M26.4826924,87 C31.3943658,94.994792 38.789885,101.299634 47.5945072,104.839784 C42.7373738,100.460844 38.7392324,94.3004124 36.0075869,87 L26.4826924,87 Z M24.3024337,83 L34.6725018,83 C33.2077617,78.0368922 32.3013893,72.6459815 32.0631216,67.0000212 L20.1006651,67 C20.4843957,72.6990535 21.9532853,78.100687 24.3024337,83 Z M20.0111397,63 L32.0069888,63 C32.0961463,56.6264942 33.0356944,50.5461386 34.6725018,45 L24.3024337,45 C21.6800992,50.4690618 20.1546611,56.5640686 20.0111397,63 Z M26.4826924,41 L36.0075869,41 C38.7392324,33.6995876 42.7373738,27.5391556 47.5945072,23.1602164 C38.789885,26.7003659 31.3943658,33.005208 26.4826924,41 Z M101.517308,41 C97.329394,34.1832809 91.3357161,28.5951612 84.2024807,24.9018478 C88.2515523,29.1121486 91.6054892,34.6208673 93.9924131,41 L101.517308,41 Z M103.697566,45 L95.3274982,45 C96.9643056,50.5461386 97.9038537,56.6264942 97.9930112,63 L107.98886,63 C107.845339,56.5640686 106.319901,50.4690618 103.697566,45 Z M107.899335,67 L97.9368793,67 C97.698613,72.645968 96.7922401,78.036886 95.3274982,83 L103.697566,83 C106.046715,78.100687 107.515604,72.6990535 107.899335,67 Z M101.517308,87 L93.9924131,87 C91.6054892,93.3791327 88.2515523,98.8878514 84.2024807,103.098152 C91.3357161,99.4048388 97.329394,93.8167191 101.517308,87 Z M63,107.818701 L63,87 L53.9230776,87 C55.9814763,98.5114571 59.4350899,106.533086 63,107.818701 Z M53.2850012,83 L63,83 L63,67 L52.0307464,67 C52.1476515,72.6950693 52.5931439,78.097696 53.2850049,83.0000025 Z M52.0034107,63 L63,63 L63,45 L53.2850012,45 C52.5126224,50.4728538 52.0472922,56.5692658 52.0034107,63 Z M53.9230776,41 L63,41 L63,20.1812985 C59.4350899,21.4669138 55.9814763,29.4885429 53.9230776,41 Z M67,21.6094203 L67,41 L74.0769224,41 C72.4074211,31.6634258 69.8201039,24.6225695 67,21.6094203 Z M74.7149988,45 L67,45 L67,63 L75.9965893,63 C75.9527078,56.5692658 75.4873776,50.4728538 74.7149951,44.9999975 Z M75.9692536,67 L67,67 L67,83 L74.7149988,83 C75.4068561,78.097696 75.8523485,72.6950693 75.9692536,67 Z M74.0769224,87 L67,87 L67,106.39058 C69.8201039,103.37743 72.4074211,96.3365742 74.0769224,87 Z M64.5906383,16.0035593 C64.726877,16.0011887 64.8633323,16 65,16 C65.758097,16 66.509661,16.0365762 67.2539468,16.1085556 C92.2461342,17.7815784 112,38.5839079 112,64 C112,89.4160921 92.2461342,110.218422 67.2539468,111.891444 C66.509661,111.963424 65.758097,112 65,112 C64.8633323,112 64.726877,111.998811 64.5906383,111.996441 C64.394041,111.998811 64.1971593,112 64,112 C37.490332,112 16,90.509668 16,64 C16,37.490332 37.490332,16 64,16 C64.1971593,16 64.394041,16.0011887 64.5906383,16.0035593 Z"/>
</svg>
