<svg xmlns="http://www.w3.org/2000/svg" width="128" height="128" viewBox="0 0 128 128">
  <path fill-rule="evenodd" d="M24,104.953412 L24,62.9534122 L48.0001151,62.9534122 C52.5770115,56.8530409 51.8596853,57.8267803 52.8321007,56.0469817 C53.9175618,54.0602772 54.2329469,53.3475738 58.860364,42.5835323 C60.7752286,38.1292802 61.6695538,35.9719374 62.7027925,33.364281 C64.4813655,28.873284 64.9235939,27.7767554 66.824304,23.2248753 C70.0082356,15.5998963 82.7921442,19.2826465 82.1410722,26.4617615 C81.9898555,28.1291689 81.8685338,29.6335248 81.7470634,31.2919118 C81.722893,31.6219017 81.5432111,34.1540962 81.4952842,34.773353 C81.3155852,37.0952133 81.1397771,38.3996208 80.7820828,39.7684189 C80.3086811,41.5799971 79.5875978,43.2503525 77.7888544,46.8478394 C76.9658067,48.4939347 76.5584213,49.4611985 76.4284159,50.0291747 C76.4415308,50.3159263 76.7085039,50.6416293 76.9899091,50.987477 L96,52.0231111 C100.970563,52.0231111 105,56.0525483 105,61.0231111 C105,64.3490646 103.195879,67.2536431 100.512874,68.8116097 C102.053821,70.4268449 103,72.6144821 103,75.0231111 C103,78.6994961 100.795677,81.8610339 97.6366203,83.2581348 C98.5102192,84.6572492 99,86.2981788 99,88.0231111 C99,91.7878413 96.6854736,95.0213111 93.3923298,96.3620491 C93.7889171,97.3520473 94,98.4216063 94,99.5231111 C94,104.217531 90.1944204,108.023111 85.5,108.023111 L62.5,108.023111 C61.5277183,108.023111 52.0317049,105.671794 49.6852536,104.953412 L24,104.953412 Z M56.6941682,102.660116 C59.6423526,103.395931 62.3788374,104.023111 62.5,104.023111 L85.5,104.023111 C87.9852814,104.023111 90,102.008392 90,99.5231111 C90,98.343283 89.546681,97.2399247 88.7457487,96.4061912 C87.5421298,95.1532795 88.3985464,93.0671335 90.1353216,93.0213293 C92.838609,92.9500351 95,90.7343219 95,88.0231111 C95,86.2480338 94.0692521,84.6363072 92.5753758,83.7361613 C90.8396533,82.6902891 91.5811164,80.0231111 93.6075866,80.0231111 L94,80.0231111 C96.7614237,80.0231111 99,77.7845348 99,75.0231111 C99,72.341138 98.6513729,70.0771416 96,69.9534122 C95.9799912,69.9524785 95.8511858,69.9555625 95.6135837,69.9626642 L95.613584,69.9626747 C94.6389838,69.9918048 93.8252997,69.2253498 93.7961697,68.2507496 C93.7939266,68.175704 93.796473,68.1005917 93.8037933,68.0258703 L93.8049972,68.0135819 C93.9156402,66.8842049 94.8652162,66.0231111 96,66.0231111 C98.7614237,66.0231111 101,63.7845348 101,61.0231111 C101,58.2616873 98.7614237,56.0231111 95.928732,56.0218409 L75.928732,54.952142 C75.3228615,54.9305387 74.759493,54.6352826 74.3969682,54.1493592 C74.2466496,53.947874 73.2695826,52.7830217 73.0212695,52.3915168 C71.8691163,50.5749653 72.2203063,49.0406636 74.2111456,45.058985 C75.8900893,41.7010977 76.5301894,40.218336 76.9120398,38.7570992 C77.1956558,37.6717788 77.3444315,36.5679382 77.5072104,34.4646985 C77.5539642,33.8605999 77.7327538,31.3409799 77.7577504,30.9997102 C77.8808039,29.319711 78.0039394,27.7928625 78.1574207,26.1004852 C78.2467577,25.1154008 76.9005782,23.7366996 74.9332867,23.1699682 C72.8486047,22.5694192 71.2014093,23.1233652 70.5154321,24.7661647 C68.6261137,29.2907637 68.1920382,30.3670768 66.4530558,34.7581248 C65.373426,37.4828825 64.4645484,39.6753295 62.5351796,44.1633204 C57.8116332,55.1509725 56.9428392,59.3647815 52,65.9534122 C52,71.9534122 52,76.9534122 51.9210917,86.3951528 C51.8841519,90.8151649 51.9980246,94.454313 51.9998189,101.450728 C53.1488078,101.758484 54.9268157,102.219016 56.6941682,102.660116 Z M28,66.9534122 L28,100.953412 L48,100.953412 L48,66.9534122 L28,66.9534122 Z"/>
</svg>
