<svg xmlns="http://www.w3.org/2000/svg" width="128" height="128" viewBox="0 0 128 128">
  <path d="M107,95.0908622 L118.003936,95.0908622 C119.108505,95.0908622 120.003936,95.9862927 120.003936,97.0908622 C120.003936,98.1954317 119.108505,99.0908622 118.003936,99.0908622 L107,99.0908622 L107,109.090862 C107,110.195432 106.104569,111.090862 105,111.090862 C103.895431,111.090862 103,110.195432 103,109.090862 L103,99.0908622 L91,99.0908622 L91,109.090862 C91,110.195432 90.1045695,111.090862 89,111.090862 C87.8954305,111.090862 87,110.195432 87,109.090862 L87,99.0908622 L75,99.0908622 L75,109.090862 C75,110.195432 74.1045695,111.090862 73,111.090862 C71.8954305,111.090862 71,110.195432 71,109.090862 L71,99.0908622 L59,99.0908622 L59,109.090862 C59,110.195432 58.1045695,111.090862 57,111.090862 C55.8954305,111.090862 55,110.195432 55,109.090862 L55,99.0908622 L43,99.0908622 L43,109.090862 C43,110.195432 42.1045695,111.090862 41,111.090862 C39.8954305,111.090862 39,110.195432 39,109.090862 L39,99.0908622 L27,99.0908622 L27,109.090862 C27,110.195432 26.1045695,111.090862 25,111.090862 C23.8954305,111.090862 23,110.195432 23,109.090862 L23,99.0908622 L8,99.0908622 C6.8954305,99.0908622 6,98.1954317 6,97.0908622 C6,95.9862927 6.8954305,95.0908622 8,95.0908622 L23,95.0908622 L23,83.0908622 L8,83.0908622 C6.8954305,83.0908622 6,82.1954317 6,81.0908622 C6,79.9862927 6.8954305,79.0908622 8,79.0908622 L23,79.0908622 L23,67.0908622 L8,67.0908622 C6.8954305,67.0908622 6,66.1954317 6,65.0908622 C6,63.9862927 6.8954305,63.0908622 8,63.0908622 L23,63.0908622 L23,51.0908622 L8,51.0908622 C6.8954305,51.0908622 6,50.1954317 6,49.0908622 C6,47.9862927 6.8954305,47.0908622 8,47.0908622 L23,47.0908622 L23,35.0908622 L8,35.0908622 C6.8954305,35.0908622 6,34.1954317 6,33.0908622 C6,31.9862927 6.8954305,31.0908622 8,31.0908622 L23,31.0908622 L23,21 C23,19.8954305 23.8954305,19 25,19 C26.1045695,19 27,19.8954305 27,21 L27,31.0908622 L39,31.0908622 L39,21 C39,19.8954305 39.8954305,19 41,19 C42.1045695,19 43,19.8954305 43,21 L43,31.0908622 L55,31.0908622 L55,21 C55,19.8954305 55.8954305,19 57,19 C58.1045695,19 59,19.8954305 59,21 L59,31.0908622 L71,31.0908622 L71,21 C71,19.8954305 71.8954305,19 73,19 C74.1045695,19 75,19.8954305 75,21 L75,31.0908622 L87,31.0908622 L87,21 C87,19.8954305 87.8954305,19 89,19 C90.1045695,19 91,19.8954305 91,21 L91,31.0908622 L103,31.0908622 L103,21 C103,19.8954305 103.895431,19 105,19 C106.104569,19 107,19.8954305 107,21 L107,31.0908622 L118.003936,31.0908622 C119.108505,31.0908622 120.003936,31.9862927 120.003936,33.0908622 C120.003936,34.1954317 119.108505,35.0908622 118.003936,35.0908622 L107,35.0908622 L107,47.0908622 L118.003936,47.0908622 C119.108505,47.0908622 120.003936,47.9862927 120.003936,49.0908622 C120.003936,50.1954317 119.108505,51.0908622 118.003936,51.0908622 L107,51.0908622 L107,63.0908622 L118.003936,63.0908622 C119.108505,63.0908622 120.003936,63.9862927 120.003936,65.0908622 C120.003936,66.1954317 119.108505,67.0908622 118.003936,67.0908622 L107,67.0908622 L107,79.0908622 L118.003936,79.0908622 C119.108505,79.0908622 120.003936,79.9862927 120.003936,81.0908622 C120.003936,82.1954317 119.108505,83.0908622 118.003936,83.0908622 L107,83.0908622 L107,95.0908622 Z M103,95.0908622 L103,83.0908622 L91,83.0908622 L91,95.0908622 L103,95.0908622 Z M87,95.0908622 L87,83.0908622 L75,83.0908622 L75,95.0908622 L87,95.0908622 Z M71,95.0908622 L71,83.0908622 L59,83.0908622 L59,95.0908622 L71,95.0908622 Z M55,95.0908622 L55,83.0908622 L43,83.0908622 L43,95.0908622 L55,95.0908622 Z M39,95.0908622 L39,83.0908622 L27,83.0908622 L27,95.0908622 L39,95.0908622 Z M27,79.0908622 L39,79.0908622 L39,67.0908622 L27,67.0908622 L27,79.0908622 Z M43,79.0908622 L55,79.0908622 L55,67.0908622 L43,67.0908622 L43,79.0908622 Z M59,79.0908622 L71,79.0908622 L71,67.0908622 L59,67.0908622 L59,79.0908622 Z M75,79.0908622 L87,79.0908622 L87,67.0908622 L75,67.0908622 L75,79.0908622 Z M91,79.0908622 L103,79.0908622 L103,67.0908622 L91,67.0908622 L91,79.0908622 Z M103,63.0908622 L103,51.0908622 L91,51.0908622 L91,63.0908622 L103,63.0908622 Z M87,63.0908622 L87,51.0908622 L75,51.0908622 L75,63.0908622 L87,63.0908622 Z M71,63.0908622 L71,51.0908622 L59,51.0908622 L59,63.0908622 L71,63.0908622 Z M55,63.0908622 L55,51.0908622 L43,51.0908622 L43,63.0908622 L55,63.0908622 Z M39,63.0908622 L39,51.0908622 L27,51.0908622 L27,63.0908622 L39,63.0908622 Z M27,47.0908622 L39,47.0908622 L39,35.0908622 L27,35.0908622 L27,47.0908622 Z M43,47.0908622 L55,47.0908622 L55,35.0908622 L43,35.0908622 L43,47.0908622 Z M59,47.0908622 L71,47.0908622 L71,35.0908622 L59,35.0908622 L59,47.0908622 Z M75,47.0908622 L87,47.0908622 L87,35.0908622 L75,35.0908622 L75,47.0908622 Z M91,47.0908622 L103,47.0908622 L103,35.0908622 L91,35.0908622 L91,47.0908622 Z"/>
</svg>
