<svg xmlns="http://www.w3.org/2000/svg" width="128" height="128" viewBox="0 0 128 128">
  <path d="M69.9654488,51.3896793 L58.8537708,40.2780014 C57.2916737,38.7159042 57.2916737,36.1832443 58.8537708,34.6211471 L74.7558167,18.7191013 C76.3179138,17.1570041 78.8505737,17.1570041 80.4126709,18.7191013 L105.4016,43.7080304 C106.013587,44.3200178 106.410573,45.1139898 106.532971,45.9707721 C107.00055,49.2438288 107.351235,51.6986214 107.585025,53.3351497 C107.856062,55.2324093 108.262618,58.0782987 108.804692,61.872818 C108.982745,63.1191933 108.563589,64.3766624 107.673321,65.2669305 L98.5864376,74.3538139 C97.0243404,75.915911 94.4916805,75.915911 92.9295833,74.3538139 L81.8179053,63.2421359 L38.3229815,106.73706 C35.1987872,109.861254 30.1334674,109.861254 27.009273,106.73706 L26.470525,106.198312 C23.3463307,103.074117 23.3463307,98.0087975 26.470525,94.8846031 L69.9654488,51.3896793 Z M75.6223031,51.3896793 L29.2989521,97.7130303 C27.736855,99.2751274 27.736855,101.807787 29.2989521,103.369885 L29.8377002,103.908633 C31.3997973,105.47073 33.9324573,105.47073 35.4945544,103.908633 L81.8179053,57.5852816 L95.7580104,71.5253867 L104.844894,62.4385034 L102.573173,46.5364576 L77.5842438,21.5475284 L61.6821979,37.4495742 L75.1471226,50.9144989 L75.6223031,51.3896793 Z M69.9654488,51.3896793 L58.8537708,40.2780014 C57.2916737,38.7159042 57.2916737,36.1832443 58.8537708,34.6211471 L74.7558167,18.7191013 C76.3179138,17.1570041 78.8505737,17.1570041 80.4126709,18.7191013 L105.4016,43.7080304 C106.013587,44.3200178 106.410573,45.1139898 106.532971,45.9707721 C107.00055,49.2438288 107.351235,51.6986214 107.585025,53.3351497 C107.856062,55.2324093 108.262618,58.0782987 108.804692,61.872818 C108.982745,63.1191933 108.563589,64.3766624 107.673321,65.2669305 L98.5864376,74.3538139 C97.0243404,75.915911 94.4916805,75.915911 92.9295833,74.3538139 L81.8179053,63.2421359 L69.9654488,51.3896793 Z M75.6223031,51.3896793 L81.8179053,57.5852816 L95.7580104,71.5253867 L104.844894,62.4385034 L102.573173,46.5364576 L77.5842438,21.5475284 L61.6821979,37.4495742 L75.1471226,50.9144989 L75.6223031,51.3896793 Z"/>
</svg>
