<svg xmlns="http://www.w3.org/2000/svg" width="128" height="128" viewBox="0 0 128 128">
  <path d="M22,91 C22,92.6568542 20.6568542,94 19,94 C17.3431458,94 16,92.6568542 16,91 L16,65 C16,37.9380473 37.9380473,16 65,16 C92.0619527,16 114,37.9380473 114,65 L114,91 C114,92.6568542 112.656854,94 111,94 C109.343146,94 108,92.6568542 108,91 L108,65 C108,41.2517558 88.7482442,22 65,22 C41.2517558,22 22,41.2517558 22,65 L22,91 Z M33,69 L45,69 C48.3137085,69 51,71.6862915 51,75 L51,107 C51,110.313708 48.3137085,113 45,113 L33,113 C29.6862915,113 27,110.313708 27,107 L27,75 C27,71.6862915 29.6862915,69 33,69 Z M85,69 L97,69 C100.313708,69 103,71.6862915 103,75 L103,107 C103,110.313708 100.313708,113 97,113 L85,113 C81.6862915,113 79,110.313708 79,107 L79,75 C79,71.6862915 81.6862915,69 85,69 Z"/>
</svg>
