<svg xmlns="http://www.w3.org/2000/svg" width="128" height="128" viewBox="0 0 128 128">
  <path fill-rule="evenodd" d="M63.9453032,110 C49.17717,96.4147666 37.2532699,84.0282302 31.2366231,76.0369164 C22.3757432,64.2497286 18,53.9609121 18,44.8707926 C18,35.2812161 22.9227111,26.1910966 30.470868,21.5960912 C34.4090369,19.2985885 39.2223543,18 44.3638526,18 C49.8335315,18 55.412604,19.4983713 58.803805,21.8957655 C61.5386445,23.8935939 62.8513674,25.5917481 63.9453032,28.4885993 C67.3365042,21.3963084 73.7907253,18 83.9643282,18 C92.059453,18 97.529132,20.1976113 102.451843,25.1921824 C107.483948,30.4864278 110,37.0792617 110,44.7709012 C110,55.1596091 105.296076,66.0477742 95.5600476,77.9348534 C89.8715815,84.927253 85.3864447,89.5222584 74.5564804,99.8110749 C66.5707491,107.502714 66.5707491,107.502714 63.9453032,110 Z"/>
</svg>
