<svg xmlns="http://www.w3.org/2000/svg" width="128" height="128" viewBox="0 0 128 128">
  <path fill-rule="evenodd" d="M64,104.41976 C65.1415841,103.325022 66.963475,101.570821 71.8014332,96.911124 C82.8741715,86.3916644 87.0620437,82.0423607 92.4655248,75.4003063 C101.632535,64.2079625 106,54.1579565 106,44.7709012 C106,38.0621736 103.848742,32.4679185 99.6029961,28.0000412 C95.4130522,23.748934 90.9508082,22 83.9643282,22 C75.2364355,22 70.2247261,24.6285829 67.5539915,30.2141048 L64,37.6468527 L64,104.41976 Z M63.9453032,26.7630939 L63.9453032,28.4885993 L64,26.7630939 C63.9453032,26.7630939 63.9453032,26.7630939 66.5123059,24.4840115 C70.2309981,20.1123409 75.9410247,18 83.9643282,18 C92.059453,18 97.529132,20.1976113 102.451843,25.1921824 C107.483948,30.4864278 110,37.0792617 110,44.7709012 C110,55.1596091 105.296076,66.0477742 95.5600476,77.9348534 C89.8715815,84.927253 85.3864447,89.5222584 74.5564804,99.8110749 C66.5707491,107.502714 66.5707491,107.502714 63.9453032,110 C49.17717,96.4147666 37.2532699,84.0282302 31.2366231,76.0369164 C22.3757432,64.2497286 18,53.9609121 18,44.8707926 C18,35.2812161 22.9227111,26.1910966 30.470868,21.5960912 C34.4090369,19.2985885 39.2223543,18 44.3638526,18 C49.8335315,18 55.412604,19.4983713 58.803805,21.8957655 C59.9725585,22.749552 60.8815849,23.5486077 61.6248041,24.4098807 C64,26.7630939 64,26.7630939 63.9453032,26.7630939 Z"/>
</svg>
