<svg xmlns="http://www.w3.org/2000/svg" width="128" height="128" viewBox="0 0 128 128">
  <path d="M64,110 C38.5949015,110 18,89.4050985 18,64 C18,38.5949015 38.5949015,18 64,18 C89.4050985,18 110,38.5949015 110,64 C110,89.4050985 89.4050985,110 64,110 Z M64,104 C86.09139,104 104,86.09139 104,64 C104,41.90861 86.09139,24 64,24 C41.90861,24 24,41.90861 24,64 C24,86.09139 41.90861,104 64,104 Z M65.8977273,76.0909091 L60.1022727,76.0909091 C60.1022727,73.4668429 60.3920426,71.2774709 60.9715909,69.5227273 C61.5511393,67.7679837 62.2997113,66.2990116 63.2173295,65.115767 C64.1349478,63.9325225 65.1088964,62.9062543 66.1392045,62.0369318 C67.1695127,61.1676093 68.1434613,60.3143981 69.0610795,59.4772727 C69.9786978,58.6401473 70.7272698,57.6863216 71.3068182,56.615767 C71.8863665,55.5452125 72.1761364,54.2130762 72.1761364,52.6193182 C72.1761364,50.2528291 71.4718347,48.3733498 70.0632102,46.9808239 C68.6545858,45.588298 66.8153523,44.8920455 64.5454545,44.8920455 C63.2253722,44.8920455 61.9697029,45.165717 60.7784091,45.7130682 C59.5871153,46.2604194 58.6131667,47.1216797 57.8565341,48.296875 C57.0999015,49.4720703 56.7215909,51.0094602 56.7215909,52.9090909 L50.6363636,52.9090909 C50.6363636,50.1723348 51.2521245,47.8300287 52.4836648,45.8821023 C53.715205,43.9341759 55.3813815,42.4450809 57.4822443,41.4147727 C59.5831071,40.3844645 61.937487,39.8693182 64.5454545,39.8693182 C67.378802,39.8693182 69.7975752,40.4327595 71.8018466,41.5596591 C73.806118,42.6865587 75.3354587,44.2319978 76.3899148,46.1960227 C77.4443708,48.1600477 77.9715909,50.3977147 77.9715909,52.9090909 C77.9715909,54.9214116 77.6818211,56.5996618 77.1022727,57.943892 C76.5227244,59.2881223 75.7741523,60.4472016 74.8565341,61.4211648 C73.9389159,62.395128 72.9649673,63.3127324 71.9346591,64.1740057 C70.9043509,65.0352789 69.9304023,65.9770309 69.0127841,66.9992898 C68.0951659,68.0215487 67.3465938,69.2530704 66.7670455,70.693892 C66.1874971,72.1347136 65.8977273,73.9337013 65.8977273,76.0909091 Z M63,90.7727273 C61.6960162,90.7727273 60.5973056,90.3259988 59.7038352,89.4325284 C58.8103649,88.539058 58.3636364,87.4403474 58.3636364,86.1363636 C58.3636364,84.8323798 58.8103649,83.7175709 59.7038352,82.7919034 C60.5973056,81.8662359 61.6960162,81.4034091 63,81.4034091 C64.2556881,81.4034091 65.342325,81.8662359 66.2599432,82.7919034 C67.1775614,83.7175709 67.6363636,84.8323798 67.6363636,86.1363636 C67.6363636,87.4403474 67.1775614,88.539058 66.2599432,89.4325284 C65.342325,90.3259988 64.2556881,90.7727273 63,90.7727273 Z"/>
</svg>
