<svg xmlns="http://www.w3.org/2000/svg" width="128" height="128" viewBox="0 0 128 128">
  <path d="M64,73 L64,49 C64,47.8954305 64.8954305,47 66,47 C67.1045695,47 68,47.8954305 68,49 L68,75 C68,76.1045695 67.1045695,77 66,77 L40,77 C38.8954305,77 38,76.1045695 38,75 C38,73.8954305 38.8954305,73 40,73 L64,73 Z M66.9896256,31.284454 L67.0208153,31.4558441 L76.3345238,40.7695526 C77.1155724,41.5506012 77.1155724,42.8169312 76.3345238,43.5979797 C75.5534752,44.3790283 74.2871452,44.3790283 73.5060967,43.5979797 L61.6043848,31.6962678 C60.1660228,30.2579059 60.1660228,27.9258603 61.6043848,26.4874983 L73.5060967,14.5857864 C74.2871452,13.8047379 75.5534752,13.8047379 76.3345238,14.5857864 C77.1155724,15.366835 77.1155724,16.633165 76.3345238,17.4142136 L66.5053915,27.2433458 C89.0876121,28.5407223 107,47.2643164 107,70.1715729 C107,93.9198171 87.7482442,113.171573 64,113.171573 C40.5859935,113.171573 21.5427971,94.4579101 21.0113992,71.1715729 L21,71.1715729 C21,70.0670034 21.8954305,69.1715729 23,69.1715729 C24.1045695,69.1715729 25,70.0670034 25,71.1715729 L25.0125708,71.1715729 C25.5430428,92.2485314 42.7952274,109.171573 64,109.171573 C85.5391052,109.171573 103,91.7106781 103,70.1715729 C103,49.6383582 87.1318948,32.8113382 66.9896256,31.284454 Z"/>
</svg>
