<svg xmlns="http://www.w3.org/2000/svg" width="128" height="128" viewBox="0 0 128 128">
  <path d="M53.1566498,103.875264 L53.1566498,77.8752636 L73.1566498,77.8752636 L73.1566498,103.875264 L95.1566498,103.875264 L95.1566498,65.8752636 L31.1566498,65.8752636 L31.1566498,103.875264 L53.1566498,103.875264 Z M99.1566498,65.8752636 L99.1566498,107.875264 L27.1566498,107.875264 L27.1566498,65.8752636 L12,65.8752636 L57.7624949,24.092116 C60.8176485,21.302628 65.4956511,21.302628 68.5508047,24.092116 L114.3133,65.8752636 L99.1566498,65.8752636 Z M104,61.8752636 L65.8537273,27.046058 C64.3261505,25.651314 61.9871492,25.651314 60.4595724,27.046058 L22.3132996,61.8752636 L104,61.8752636 Z M57.1566498,81.8752636 L57.1566498,103.875264 L69.1566498,103.875264 L69.1566498,81.8752636 L57.1566498,81.8752636 Z"/>
</svg>
