<svg xmlns="http://www.w3.org/2000/svg" width="128" height="128" viewBox="0 0 128 128">
  <path fill-rule="evenodd" d="M20,32 L36,32 L36,48 L20,48 L20,32 Z M20,56 L36,56 L36,72 L20,72 L20,56 Z M44,32 L60,32 L60,48 L44,48 L44,32 Z M44,56 L60,56 L60,72 L44,72 L44,56 Z M68,32 L84,32 L84,48 L68,48 L68,32 Z M68,56 L84,56 L84,72 L68,72 L68,56 Z M92,32 L108,32 L108,48 L92,48 L92,32 Z M92,56 L108,56 L108,72 L92,72 L92,56 Z M20,80 L36,80 L36,96 L20,96 L20,80 Z M44,80 L60,80 L60,96 L44,96 L44,80 Z M68,80 L84,80 L84,96 L68,96 L68,80 Z M92,80 L108,80 L108,96 L92,96 L92,80 Z"/>
</svg>
