<svg xmlns="http://www.w3.org/2000/svg" width="128" height="128" viewBox="0 0 128 128">
  <path fill-rule="evenodd" d="M20,64.0360966 L20,64 L16.5857864,64 L28.5857864,52.5857864 C28.9608592,52.2107137 29.469567,52 30,52 L98,52 C98.530433,52 99.0391408,52.2107137 99.4142136,52.5857864 L111.414214,64.5857864 C111.776142,64.9477153 112,65.4477153 112,66 L112,108 C112,109.104569 111.104569,110 110,110 L18,110 C16.8954305,110 16,109.104569 16,108 L16,66 C16,65.4477153 16.2238576,64.3619288 16.5857864,64 C17.7632995,64.0154398 18.8995501,64.0272723 20,64.0360966 Z M52,64 L52,72 C52,74.209139 53.790861,76 56,76 L72,76 C74.209139,76 76,74.209139 76,72 L76,66 C76,65.7087967 75.8881043,64.2495562 76,64 L105.171573,64 L97.1715729,56 L30.8284271,56 L22.8284271,64 L52,64 Z M20,68 L20,106 L108,106 L108,68 L80,68 L80,72 C80,76.418278 76.418278,80 72,80 L56,80 C51.581722,80 48,76.418278 48,72 L48,68 L20,68 Z"/>
</svg>
