<svg xmlns="http://www.w3.org/2000/svg" width="128" height="128" viewBox="0 0 128 128">
  <path fill-rule="evenodd" d="M64,110 C38.5949015,110 18,89.4050985 18,64 C18,38.5949015 38.5949015,18 64,18 C89.4050985,18 110,38.5949015 110,64 C110,89.4050985 89.4050985,110 64,110 Z M62.9517045,47.5965909 C64.2073926,47.5965909 65.1974396,47.2182803 65.921875,46.4616477 C66.6463104,45.7050152 67.0085227,44.7954599 67.0085227,43.7329545 C67.0085227,42.7670406 66.6463104,41.8816328 65.921875,41.0767045 C65.1974396,40.2717763 64.2073926,39.8693182 62.9517045,39.8693182 C61.6960164,39.8693182 60.7059695,40.2717763 59.9815341,41.0767045 C59.2570987,41.8816328 58.8948864,42.7670406 58.8948864,43.7329545 C58.8948864,44.7954599 59.2570987,45.7050152 59.9815341,46.4616477 C60.7059695,47.2182803 61.6960164,47.5965909 62.9517045,47.5965909 Z M65.8494318,52.9090909 L60.1505682,52.9090909 L60.1505682,90 L65.8494318,90 L65.8494318,52.9090909 Z"/>
</svg>
