<svg xmlns="http://www.w3.org/2000/svg" width="128" height="128" viewBox="0 0 128 128">
  <path d="M64,104 C86.09139,104 104,86.09139 104,64 C104,41.90861 86.09139,24 64,24 C41.90861,24 24,41.90861 24,64 C24,86.09139 41.90861,104 64,104 Z M64,110 C38.5949015,110 18,89.4050985 18,64 C18,38.5949015 38.5949015,18 64,18 C89.4050985,18 110,38.5949015 110,64 C110,89.4050985 89.4050985,110 64,110 Z M66.2840909,40.5454545 L59.7159091,40.5454545 L60.1988636,76.0909091 L65.8011364,76.0909091 L66.2840909,40.5454545 Z M63,90.7727273 C64.2556881,90.7727273 65.342325,90.3259988 66.2599432,89.4325284 C67.1775614,88.539058 67.6363636,87.4403474 67.6363636,86.1363636 C67.6363636,84.8323798 67.1775614,83.7175709 66.2599432,82.7919034 C65.342325,81.8662359 64.2556881,81.4034091 63,81.4034091 C61.6960162,81.4034091 60.5973056,81.8662359 59.7038352,82.7919034 C58.8103649,83.7175709 58.3636364,84.8323798 58.3636364,86.1363636 C58.3636364,87.4403474 58.8103649,88.539058 59.7038352,89.4325284 C60.5973056,90.3259988 61.6960162,90.7727273 63,90.7727273 Z"/>
</svg>
