<svg xmlns="http://www.w3.org/2000/svg" width="128" height="128" viewBox="0 0 128 128">
  <path fill-rule="evenodd" d="M65,30 C60.581722,30 57,26.418278 57,22 C57,17.581722 60.581722,14 65,14 C69.418278,14 73,17.581722 73,22 C73,26.418278 69.418278,30 65,30 Z M89.7487373,40.2512627 C86.624543,37.1270683 86.624543,32.0617485 89.7487373,28.9375542 C92.8729317,25.8133598 97.9382515,25.8133598 101.062446,28.9375542 C104.18664,32.0617485 104.18664,37.1270683 101.062446,40.2512627 C97.9382515,43.375457 92.8729317,43.375457 89.7487373,40.2512627 Z M100,65 C100,60.581722 103.581722,57 108,57 C112.418278,57 116,60.581722 116,65 C116,69.418278 112.418278,73 108,73 C103.581722,73 100,69.418278 100,65 Z M89.7487373,89.7487373 C92.8729317,86.624543 97.9382515,86.624543 101.062446,89.7487373 C104.18664,92.8729317 104.18664,97.9382515 101.062446,101.062446 C97.9382515,104.18664 92.8729317,104.18664 89.7487373,101.062446 C86.624543,97.9382515 86.624543,92.8729317 89.7487373,89.7487373 Z M65,100 C69.418278,100 73,103.581722 73,108 C73,112.418278 69.418278,116 65,116 C60.581722,116 57,112.418278 57,108 C57,103.581722 60.581722,100 65,100 Z M40.2512627,89.7487373 C43.375457,92.8729317 43.375457,97.9382515 40.2512627,101.062446 C37.1270683,104.18664 32.0617485,104.18664 28.9375542,101.062446 C25.8133598,97.9382515 25.8133598,92.8729317 28.9375542,89.7487373 C32.0617485,86.624543 37.1270683,86.624543 40.2512627,89.7487373 Z M30,65 C30,69.418278 26.418278,73 22,73 C17.581722,73 14,69.418278 14,65 C14,60.581722 17.581722,57 22,57 C26.418278,57 30,60.581722 30,65 Z M40.2512627,40.2512627 C37.1270683,43.375457 32.0617485,43.375457 28.9375542,40.2512627 C25.8133598,37.1270683 25.8133598,32.0617485 28.9375542,28.9375542 C32.0617485,25.8133598 37.1270683,25.8133598 40.2512627,28.9375542 C43.375457,32.0617485 43.375457,37.1270683 40.2512627,40.2512627 Z"/>
</svg>
