<svg xmlns="http://www.w3.org/2000/svg" width="128" height="128" viewBox="0 0 128 128">
  <path fill-rule="evenodd" d="M80,60 L80,47 C80,38.7157288 73.2842712,32 65,32 C56.7157288,32 50,38.7157288 50,47 L44,47 C44,35.4020203 53.4020203,26 65,26 C76.5979797,26 86,35.4020203 86,47 L86,60 L90.3083444,60 C92.9829006,60 93.9527593,60.2784768 94.9305371,60.8013981 C95.9083149,61.3243194 96.6756806,62.0916851 97.1986019,63.0694629 C97.7215232,64.0472407 98,65.0170994 98,67.6916556 L98,94.3083444 C98,96.9829006 97.7215232,97.9527593 97.1986019,98.9305371 C96.6756806,99.9083149 95.9083149,100.675681 94.9305371,101.198602 C93.9527593,101.721523 92.9829006,102 90.3083444,102 L37.6916556,102 C35.0170994,102 34.0472407,101.721523 33.0694629,101.198602 C32.0916851,100.675681 31.3243194,99.9083149 30.8013981,98.9305371 C30.2784768,97.9527593 30,96.9829006 30,94.3083444 L30,67.6916556 C30,65.0170994 30.2784768,64.0472407 30.8013981,63.0694629 C31.3243194,62.0916851 32.0916851,61.3243194 33.0694629,60.8013981 C34.0472407,60.2784768 35.0170994,60 37.6916556,60 L80,60 Z"/>
</svg>
