<svg xmlns="http://www.w3.org/2000/svg" width="128" height="128" viewBox="0 0 128 128">
  <path d="M46.6446609,86 L94,86 C101.731986,86 108,79.7319865 108,72 L108,62 C108,60.8954305 108.895431,60 110,60 C111.104569,60 112,60.8954305 112,62 L112,72 C112,81.9411255 103.941125,90 94,90 L47.372583,90 L56.6862915,99.3137085 C57.4673401,100.094757 57.4673401,101.361087 56.6862915,102.142136 C55.9052429,102.923184 54.638913,102.923184 53.8578644,102.142136 L41.9561525,90.2404237 C40.5177905,88.8020617 40.5177905,86.4700162 41.9561525,85.0316542 L53.8578644,73.1299423 C54.638913,72.3488937 55.9052429,72.3488937 56.6862915,73.1299423 C57.4673401,73.9109909 57.4673401,75.1773209 56.6862915,75.9583694 L46.6446609,86 Z M83.3553391,44 L36,44 C28.2680135,44 22,50.2680135 22,58 L22,68 C22,69.1045695 21.1045695,70 20,70 C18.8954305,70 18,69.1045695 18,68 L18,58 C18,48.0588745 26.0588745,40 36,40 L82.627417,40 L73.3137085,30.6862915 C72.5326599,29.9052429 72.5326599,28.638913 73.3137085,27.8578644 C74.0947571,27.0768158 75.361087,27.0768158 76.1421356,27.8578644 L88.0438475,39.7595763 C89.4822095,41.1979383 89.4822095,43.5299838 88.0438475,44.9683458 L76.1421356,56.8700577 C75.361087,57.6511063 74.0947571,57.6511063 73.3137085,56.8700577 C72.5326599,56.0890091 72.5326599,54.8226791 73.3137085,54.0416306 L83.3553391,44 Z"/>
</svg>
