<svg xmlns="http://www.w3.org/2000/svg" width="128" height="128" viewBox="0 0 128 128">
  <path fill-rule="evenodd" d="M44.6443476,78.2008714 L44.6443476,85.2047695 L18,85.2047695 L18,42 L26.3329512,42 L26.3329512,78.2008714 L44.6443476,78.2008714 Z M76.1196973,42 L76.1196973,49.0038982 L63.1667049,49.0038982 L63.1667049,85.2047695 L54.897042,85.2047695 L54.897042,49.0038982 L41.9440495,49.0038982 L41.9440495,42 L76.1196973,42 Z M110,78.2008714 L110,85.2047695 L81.921119,85.2047695 L81.921119,42 L109.89452,42 L109.89452,49.0038982 L90.2540702,49.0038982 L90.2540702,60.1004357 L107.194222,60.1004357 L107.194222,67.0832378 L90.2540702,67.0832378 L90.2540702,78.2008714 L110,78.2008714 Z"/>
</svg>
