<svg xmlns="http://www.w3.org/2000/svg" width="128" height="128" viewBox="0 0 128 128">
  <path d="M84,22 L96,22 L96,26 L84,26 L84,74 C84,85.045695 75.045695,94 64,94 C52.954305,94 44,85.045695 44,74 L44,26 L32,26 L32,22 L44,22 L32,22 L32,74 C32,91.673112 46.326888,106 64,106 C81.673112,106 96,91.673112 96,74 L96,22 L84,22 Z M80,74 L80,18 L100,18 L100,74 C100,93.882251 83.882251,110 64,110 C44.117749,110 28,93.882251 28,74 L28,18 L48,18 L48,74 C48,82.836556 55.163444,90 64,90 C72.836556,90 80,82.836556 80,74 Z"/>
</svg>
