<svg xmlns="http://www.w3.org/2000/svg" width="128" height="128" viewBox="0 0 128 128">
  <path d="M25.1126371,34 L60.9729677,61.2356093 C63.1180108,62.8647508 66.0858421,62.8647508 68.2308852,61.2356093 L104.088674,34.0019306 C104.059276,34.000648 104.029714,34 104,34 L25.1126371,34 Z M106,37.5758271 L68.2344588,66.3030039 C66.0879831,67.9357672 63.1158698,67.9357672 60.969394,66.3030039 L22,36.6600903 L22,92 C22,93.1045695 22.8954305,94 24,94 L104,94 C105.104569,94 106,93.1045695 106,92 L106,37.5758271 Z M24,30 L104,30 C107.313708,30 110,32.6862915 110,36 L110,92 C110,95.3137085 107.313708,98 104,98 L24,98 C20.6862915,98 18,95.3137085 18,92 L18,36 C18,32.6862915 20.6862915,30 24,30 Z"/>
</svg>
