<svg xmlns="http://www.w3.org/2000/svg" width="128" height="128" viewBox="0 0 128 128">
  <path fill-rule="evenodd" d="M71.2426407,81 L95.4217564,81 L92.5721777,65.3273172 L96.0122823,61.8872127 L99.9032195,83.2873671 C99.9676092,83.6415107 100,84.0007302 100,84.3606798 L100,106 C100,109.313708 97.3137085,112 94,112 L34,112 C30.6862915,112 28,109.313708 28,106 L28,84.3606798 C28,84.0007302 28.0323908,83.6415107 28.0967805,83.2873671 L39.435086,20.9266874 C39.9538031,18.0737432 42.4385885,16 45.3383054,16 L82.6616946,16 C85.5614115,16 88.0461969,18.0737432 88.564914,20.9266874 L92.9662838,45.1342212 L89.5261793,48.5743258 L84.6294344,21.6422291 C84.4565287,20.6912477 83.6282669,20 82.6616946,20 L45.3383054,20 C44.3717331,20 43.5434713,20.6912477 43.3705656,21.6422291 L32.5782436,81 L62.7573593,81 L106.87868,36.8786797 C108.050253,35.7071068 109.949747,35.7071068 111.12132,36.8786797 C112.292893,38.0502525 112.292893,39.9497475 111.12132,41.1213203 L71.2426407,81 Z M96,85 L32,85 L32,106 C32,107.104569 32.8954305,108 34,108 L94,108 C95.1045695,108 96,107.104569 96,106 L96,85 Z"/>
</svg>
