<svg xmlns="http://www.w3.org/2000/svg" width="128" height="128" viewBox="0 0 128 128">
  <path d="M66,87.9178524 L66,111 L72,111 C73.6568542,111 75,112.343146 75,114 C75,115.656854 73.6568542,117 72,117 L56,117 C54.3431458,117 53,115.656854 53,114 C53,112.343146 54.3431458,111 56,111 L62,111 L62,87.9178524 C49.680939,86.9015506 40,76.5813275 40,64 L40,50 C40,48.8954305 40.8954305,48 42,48 C43.1045695,48 44,48.8954305 44,50 L44,64 C44,75.045695 52.954305,84 64,84 C75.045695,84 84,75.045695 84,64 L84,50 C84,48.8954305 84.8954305,48 86,48 C87.1045695,48 88,48.8954305 88,50 L88,64 C88,76.5813275 78.319061,86.9015506 66,87.9178524 Z M64,12 C72.836556,12 80,19.163444 80,28 L80,64 C80,72.836556 72.836556,80 64,80 C55.163444,80 48,72.836556 48,64 L48,28 C48,19.163444 55.163444,12 64,12 Z"/>
</svg>
