<svg xmlns="http://www.w3.org/2000/svg" width="128" height="128" viewBox="0 0 128 128">
  <path d="M64,110 C38.5949015,110 18,89.4050985 18,64 C18,38.5949015 38.5949015,18 64,18 C89.4050985,18 110,38.5949015 110,64 C110,89.4050985 89.4050985,110 64,110 Z M64,104 C86.09139,104 104,86.09139 104,64 C104,41.90861 86.09139,24 64,24 C41.90861,24 24,41.90861 24,64 C24,86.09139 41.90861,104 64,104 Z M43,69 C40.790861,69 39,67.209139 39,65 C39,62.790861 40.790861,61 43,61 L85,61 C87.209139,61 89,62.790861 89,65 C89,67.209139 87.209139,69 85,69 L43,69 Z"/>
</svg>
