<svg xmlns="http://www.w3.org/2000/svg" width="128" height="128" viewBox="0 0 128 128">
  <path fill-rule="evenodd" d="M41,100 C39.8954305,100 39,99.1045695 39,98 C39,96.8954305 39.8954305,96 41,96 L88,96 C89.1045695,96 90,96.8954305 90,98 C90,99.1045695 89.1045695,100 88,100 L41,100 Z M41,90 C39.8954305,90 39,89.1045695 39,88 C39,86.8954305 39.8954305,86 41,86 L67,86 C68.1045695,86 69,86.8954305 69,88 C69,89.1045695 68.1045695,90 67,90 L41,90 Z M41,80 C39.8954305,80 39,79.1045695 39,78 C39,76.8954305 39.8954305,76 41,76 L88,76 C89.1045695,76 90,76.8954305 90,78 C90,79.1045695 89.1045695,80 88,80 L41,80 Z M41,70 C39.8954305,70 39,69.1045695 39,68 C39,66.8954305 39.8954305,66 41,66 L88,66 C89.1045695,66 90,66.8954305 90,68 C90,69.1045695 89.1045695,70 88,70 L41,70 Z M41,60 C39.8954305,60 39,59.1045695 39,58 C39,56.8954305 39.8954305,56 41,56 L81,56 C82.1045695,56 83,56.8954305 83,58 C83,59.1045695 82.1045695,60 81,60 L41,60 Z M36,22 C34.8954305,22 34,22.8954305 34,24 L34,104 C34,105.104569 34.8954305,106 36,106 L92,106 C93.1045695,106 94,105.104569 94,104 L94,24 C94,22.8954305 93.1045695,22 92,22 L36,22 Z M36,18 L92,18 C95.3137085,18 98,20.6862915 98,24 L98,104 C98,107.313708 95.3137085,110 92,110 L36,110 C32.6862915,110 30,107.313708 30,104 L30,24 C30,20.6862915 32.6862915,18 36,18 Z M43,30 L43,46 L65,46 L65,30 L43,30 Z M39,26 L69,26 L69,50 L39,50 L39,26 Z"/>
</svg>
