<svg xmlns="http://www.w3.org/2000/svg" width="128" height="128" viewBox="0 0 128 128">
  <path d="M50.9477611,50.7252768 C56.229758,45.1788876 63.5578496,42 71.3181818,42 C83.5981678,42 94.3658134,49.9554245 98.0858753,61.442708 C106.191026,63.5891862 112,70.9674259 112,79.5454545 C112,89.8882417 103.615514,98.2727273 93.2727273,98.2727273 L34.7272727,98.2727273 C24.3844856,98.2727273 16,89.8882417 16,79.5454545 C16,70.8596665 21.9545396,63.410712 30.2066049,61.3677189 C33.2047109,54.738803 39.848311,50.3636364 47.2727273,50.3636364 C48.5129538,50.3636364 49.7429464,50.4851224 50.9477611,50.7252768 Z M71.3181818,46 C64.3074642,46 57.71317,49.0209867 53.1410515,54.2548914 L52.3197196,55.1951061 L51.1143068,54.8701914 C49.8683166,54.5343391 48.5789113,54.3636364 47.2727273,54.3636364 C41.1404745,54.3636364 35.683727,58.1604845 33.5174102,63.8160808 L33.1167204,64.8621605 L32.0154091,65.0669737 C25.0955166,66.353881 20,72.4216605 20,79.5454545 C20,87.6791027 26.5936246,94.2727273 34.7272727,94.2727273 L93.2727273,94.2727273 C101.406375,94.2727273 108,87.6791027 108,79.5454545 C108,72.4725984 102.976025,66.4350317 96.1206465,65.0929422 L94.9076334,64.8554685 L94.5775361,63.664322 C91.7013793,53.2857926 82.2007766,46 71.3181818,46 Z M25.1176344,58.9418541 C24.3925671,56.7596363 24,54.4256626 24,52 C24,39.8497355 33.8497355,30 46,30 C53.2493532,30 59.6797614,33.5063206 63.6878244,38.9155618 C62.2948857,39.2552556 60.9292482,39.6871834 59.5995181,40.2074965 C56.2992203,36.4047708 51.4304423,34 46,34 C36.0588745,34 28,42.0588745 28,52 C28,53.467803 28.1756867,54.8945722 28.5071786,56.2604261 C28.1195061,56.8271408 27.7560139,57.4138157 27.4184545,58.0192759 C26.6296857,58.2863707 25.8619933,58.594828 25.1176344,58.9418541 Z"/>
</svg>
