<svg xmlns="http://www.w3.org/2000/svg" width="128" height="128" viewBox="0 0 128 128">
  <path d="M68,30.2328125 C84.8926805,32.2125242 98,46.5755729 98,64 C98,81.4244271 84.8926805,95.7874758 68,97.7671875 L68,106 C68,108.209139 66.209139,110 64,110 C61.790861,110 60,108.209139 60,106 L60,97.7671875 C43.1073195,95.7874758 30,81.4244271 30,64 C30,46.5755729 43.1073195,32.2125242 60,30.2328125 L60,22 C60,19.790861 61.790861,18 64,18 C66.209139,18 68,19.790861 68,22 L68,30.2328125 Z M68,38.3057927 L68,89.6942073 C80.4603603,87.7701866 90,76.9991444 90,64 C90,51.0008556 80.4603603,40.2298134 68,38.3057927 Z M60,89.6942073 L60,38.3057927 C47.5396397,40.2298134 38,51.0008556 38,64 C38,76.9991444 47.5396397,87.7701866 60,89.6942073 Z"/>
</svg>
