<svg xmlns="http://www.w3.org/2000/svg" width="128" height="128" viewBox="0 0 128 128">
  <path fill-rule="evenodd" d="M75.391497,77.3271582 C79.6902934,74.9064517 82.402389,73.4052587 83.5277836,72.823579 C85.2110986,71.9479255 86.9549295,71.7270553 88.013969,72.3630389 C89.6176564,73.3279794 103.084175,82.1393318 104.218063,82.9194302 C105.351952,83.701095 105.898192,85.9333035 104.339096,88.1200853 C102.78637,90.3068671 95.6231244,98.9537397 92.5877433,98.8613187 C89.5475852,98.7641983 76.9075954,98.4916344 53.0720502,75.0401231 C29.2412821,51.5964441 28.9594023,39.160299 28.8622569,36.169921 C28.7651127,33.1811107 37.5559334,26.1335958 39.7791191,24.604729 C42.0054892,23.0774274 44.278044,23.6523187 45.0679446,24.7269124 C45.966136,25.9503201 54.8206594,39.154032 55.795293,40.6672357 C56.4625678,41.7011007 56.2173163,43.4257759 55.3270861,45.0830931 C54.7367848,46.1900598 53.2111315,48.8577454 50.7501263,53.0861499 L75.391497,77.3271582 Z"/>
</svg>
