<svg xmlns="http://www.w3.org/2000/svg" width="128" height="128" viewBox="0 0 128 128">
  <path d="M22,32 C20.8954305,32 20,32.8954305 20,34 L20,94 C20,95.1045695 20.8954305,96 22,96 L106,96 C107.104569,96 108,95.1045695 108,94 L108,34 C108,32.8954305 107.104569,32 106,32 L22,32 Z M22,28 L106,28 C109.313708,28 112,30.6862915 112,34 L112,94 C112,97.3137085 109.313708,100 106,100 L22,100 C18.6862915,100 16,97.3137085 16,94 L16,34 C16,30.6862915 18.6862915,28 22,28 Z M50,56 L64,84 L36,84 L50,56 Z M50,47.0557281 L29.527864,88 L70.472136,88 L50,47.0557281 Z M81,68 C89.2842712,68 96,61.2842712 96,53 C96,44.7157288 89.2842712,38 81,38 C72.7157288,38 66,44.7157288 66,53 C66,61.2842712 72.7157288,68 81,68 Z M81,64 C74.9248678,64 70,59.0751322 70,53 C70,46.9248678 74.9248678,42 81,42 C87.0751322,42 92,46.9248678 92,53 C92,59.0751322 87.0751322,64 81,64 Z"/>
</svg>
