<svg xmlns="http://www.w3.org/2000/svg" width="128" height="128" viewBox="0 0 128 128">
  <path fill-rule="evenodd" d="M100.179104,64 L100.179104,98 C100.179104,99.1045695 99.283674,100 98.1791045,100 C97.074535,100 96.1791045,99.1045695 96.1791045,98 L96.1791045,64 L90.0597015,64 L90.0597015,30 L106.059701,30 L106.059701,64 L100.179104,64 Z M62.0895522,64 L62.0895522,98 C62.0895522,99.1045695 61.1941217,100 60.0895522,100 C58.9849827,100 58.0895522,99.1045695 58.0895522,98 L58.0895522,64 L51.9701493,64 L51.9701493,30 L67.9701493,30 L67.9701493,64 L62.0895522,64 Z M41.7313433,64 L41.7313433,98 C41.7313433,99.1045695 40.8359128,100 39.7313433,100 C38.6267738,100 37.7313433,99.1045695 37.7313433,98 L37.7313433,64 L31.6119403,64 L31.6119403,30 L47.6119403,30 L47.6119403,64 L41.7313433,64 Z M76.4477612,31.6190476 C76.4477612,30.5144781 77.3431917,29.6190476 78.4477612,29.6190476 C79.5523307,29.6190476 80.4477612,30.5144781 80.4477612,31.6190476 L80.4477612,98 C80.4477612,99.1045695 79.5523307,100 78.4477612,100 C77.3431917,100 76.4477612,99.1045695 76.4477612,98 L76.4477612,31.6190476 Z M17.3731343,31.6190476 C17.3731343,30.5144781 18.2685648,29.6190476 19.3731343,29.6190476 C20.4777038,29.6190476 21.3731343,30.5144781 21.3731343,31.6190476 L21.3731343,98 C21.3731343,99.1045695 20.4777038,100 19.3731343,100 C18.2685648,100 17.3731343,99.1045695 17.3731343,98 L17.3731343,31.6190476 Z"/>
</svg>
