<svg xmlns="http://www.w3.org/2000/svg" width="128" height="128" viewBox="0 0 128 128">
  <path fill-opacity=".3" fill-rule="evenodd" d="M68.2880305,77.3113972 L57.4248927,77.3113972 C57.4248927,73.3552497 57.900488,70.1233634 58.8516929,67.6156414 C59.8028978,65.1079194 60.9810771,63.0434034 62.3862661,61.4220315 C63.7914551,59.8006595 65.2020276,58.3630646 66.6180258,57.1092036 C68.0340239,55.8553426 69.2176077,54.5420511 70.1688126,53.1692895 C71.1200175,51.7965279 71.5956128,50.0724949 71.5956128,47.9971388 C71.5956128,45.4029436 70.9416692,43.4357085 69.6337625,42.0953743 C68.3258558,40.7550402 66.482924,40.0848832 64.1049118,40.0848832 C62.1376471,40.0848832 60.3703782,40.7388267 58.803052,42.0467334 C57.2357258,43.3546401 56.4412654,45.5002235 56.4196471,48.4835479 L44,48.4835479 C44.0432366,44.2895991 44.9565958,40.8253197 46.7401049,38.0906056 C48.5236141,35.3558916 50.9286131,33.3238025 53.9551741,31.9942775 C56.9817351,30.6647525 60.3649471,30 64.1049118,30 C70.2877435,30 75.1301685,31.5618982 78.6323319,34.6857415 C82.1344953,37.8095848 83.8855508,42.138583 83.8855508,47.672866 C83.8855508,50.6345721 83.3667195,53.115234 82.3290415,55.1149261 C81.2913634,57.1146182 80.0104988,58.8764826 78.4864092,60.4005722 C76.9623195,61.9246619 75.4274437,63.4433242 73.8817358,64.9566047 C72.3360279,66.4698852 71.0281408,68.1939182 69.9580353,70.1287554 C68.8879298,72.0635926 68.3312671,74.4577826 68.2880305,77.3113972 Z M62.9699571,98 C60.7865095,98 58.9976226,97.319034 57.6032427,95.9570815 C56.2088628,94.5951291 55.5116834,92.9089276 55.5116834,90.8984263 C55.5116834,88.8879251 56.2088628,87.1909146 57.6032427,85.8073438 C58.9976226,84.4237731 60.7865095,83.7319981 62.9699571,83.7319981 C65.1101681,83.7319981 66.877437,84.4237731 68.2718169,85.8073438 C69.6661968,87.1909146 70.3633763,88.8879251 70.3633763,90.8984263 C70.3633763,92.9089276 69.6661968,94.5951291 68.2718169,95.9570815 C66.877437,97.319034 65.1101681,98 62.9699571,98 Z"/>
</svg>
