<svg xmlns="http://www.w3.org/2000/svg" width="128" height="128" viewBox="0 0 128 128">
  <path d="M55.1869305,77.7135459 C56.0428403,76.8576361 57.4305443,76.8576361 58.2864541,77.7135459 C59.1423639,78.5694557 59.1423639,79.9571597 58.2864541,80.8130695 L25.741456,113.358068 C24.8855462,114.213977 23.4978422,114.213977 22.6419324,113.358068 C21.7860225,112.502158 21.7860225,111.114454 22.6419324,110.258544 L55.1869305,77.7135459 Z M47.1869305,69.7135459 C48.0428403,68.8576361 49.4305443,68.8576361 50.2864541,69.7135459 C51.1423639,70.5694557 51.1423639,71.9571597 50.2864541,72.8130695 L17.741456,105.358068 C16.8855462,106.213977 15.4978422,106.213977 14.6419324,105.358068 C13.7860225,104.502158 13.7860225,103.114454 14.6419324,102.258544 L47.1869305,69.7135459 Z M96.1300231,56.6661659 L100.779309,61.3154514 L85.2816904,76.8130695 C75.8666824,86.2280775 60.6019385,86.2280775 51.1869305,76.8130695 C41.7719225,67.3980615 41.7719225,52.1333176 51.1869305,42.7183096 L66.6845486,27.2206914 L71.3338341,31.8699769 L82.9570477,20.2467633 C85.952732,17.2510789 90.809696,17.2510789 93.8053804,20.2467633 C96.8010648,23.2424476 96.8010648,28.0994116 93.8053804,31.095096 L82.1821668,42.7183096 L85.2816904,45.8178332 L96.904904,34.1946196 C99.9005884,31.1989352 104.757552,31.1989352 107.753237,34.1946196 C110.748921,37.190304 110.748921,42.047268 107.753237,45.0429523 L96.1300231,56.6661659 Z M66.6845486,33.4197387 L54.2864541,45.8178332 C46.5832658,53.5210216 46.5832658,66.0103575 54.2864541,73.7135459 C61.9896425,81.4167342 74.4789784,81.4167342 82.1821668,73.7135459 L94.5802613,61.3154514 L66.6845486,33.4197387 Z M79.8575241,38.843905 L90.7058568,27.9955723 C91.9897215,26.7117076 91.9897215,24.6301516 90.7058568,23.3462869 C89.421992,22.0624222 87.340436,22.0624222 86.0565713,23.3462869 L75.2082386,34.1946196 L79.8575241,38.843905 Z M93.8053804,52.7917614 L104.653713,41.9434287 C105.937578,40.659564 105.937578,38.578008 104.653713,37.2941432 C103.369848,36.0102785 101.288292,36.0102785 100.004428,37.2941432 L89.156095,48.1424759 L93.8053804,52.7917614 Z"/>
</svg>
