<svg xmlns="http://www.w3.org/2000/svg" width="128" height="128" viewBox="0 0 128 128">
  <path d="M64,110 C38.5949015,110 18,89.4050985 18,64 C18,38.5949015 38.5949015,18 64,18 C89.4050985,18 110,38.5949015 110,64 C110,89.4050985 89.4050985,110 64,110 Z M64,104 C86.09139,104 104,86.09139 104,64 C104,41.90861 86.09139,24 64,24 C41.90861,24 24,41.90861 24,64 C24,86.09139 41.90861,104 64,104 Z M60,60 L60,43 C60,40.790861 61.790861,39 64,39 C66.209139,39 68,40.790861 68,43 L68,60 L85,60 C87.209139,60 89,61.790861 89,64 C89,66.209139 87.209139,68 85,68 L68,68 L68,85 C68,87.209139 66.209139,89 64,89 C61.790861,89 60,87.209139 60,85 L60,68 L43,68 C40.790861,68 39,66.209139 39,64 C39,61.790861 40.790861,60 43,60 L60,60 Z"/>
</svg>
