<svg xmlns="http://www.w3.org/2000/svg" width="128" height="128" viewBox="0 0 128 128">
  <path fill-rule="evenodd" d="M80,16 L112,16 L112,32 L80,32 L80,16 Z M64,32 L80,32 L80,48 L64,48 L64,96 L48,96 L48,64 L32,64 L32,80 L48,80 L48,64 L16,64 L16,16 L64,16 L64,32 Z M112,64 L112,112 L64,112 L64,96 L80,96 L80,80 L96,80 L96,64 L112,64 Z M32,96 L48,96 L48,112 L32,112 L32,96 Z M16,80 L32,80 L32,96 L16,96 L16,80 Z M80,48 L96,48 L96,64 L80,64 L80,48 Z M88,88 L88,104 L104,104 L104,88 L88,88 Z M24,24 L24,56 L56,56 L56,24 L24,24 Z M32,32 L48,32 L48,48 L32,48 L32,32 Z"/>
</svg>
