<svg xmlns="http://www.w3.org/2000/svg" width="128" height="128" viewBox="0 0 128 128">
  <path d="M39,26 C46.1797017,26 52,31.8202983 52,39 C52,46.1797017 46.1797017,52 39,52 C31.8202983,52 26,46.1797017 26,39 C26,31.8202983 31.8202983,26 39,26 Z M39,76 C46.1797017,76 52,81.8202983 52,89 C52,96.1797017 46.1797017,102 39,102 C31.8202983,102 26,96.1797017 26,89 C26,81.8202983 31.8202983,76 39,76 Z M89,26 C96.1797017,26 102,31.8202983 102,39 C102,46.1797017 96.1797017,52 89,52 C81.8202983,52 76,46.1797017 76,39 C76,31.8202983 81.8202983,26 89,26 Z M89,76 C96.1797017,76 102,81.8202983 102,89 C102,96.1797017 96.1797017,102 89,102 C81.8202983,102 76,96.1797017 76,89 C76,81.8202983 81.8202983,76 89,76 Z M39,34 C36.2385763,34 34,36.2385763 34,39 C34,41.7614237 36.2385763,44 39,44 C41.7614237,44 44,41.7614237 44,39 C44,36.2385763 41.7614237,34 39,34 Z M39,84 C36.2385763,84 34,86.2385763 34,89 C34,91.7614237 36.2385763,94 39,94 C41.7614237,94 44,91.7614237 44,89 C44,86.2385763 41.7614237,84 39,84 Z M89,34 C86.2385763,34 84,36.2385763 84,39 C84,41.7614237 86.2385763,44 89,44 C91.7614237,44 94,41.7614237 94,39 C94,36.2385763 91.7614237,34 89,34 Z M89,84 C86.2385763,84 84,86.2385763 84,89 C84,91.7614237 86.2385763,94 89,94 C91.7614237,94 94,91.7614237 94,89 C94,86.2385763 91.7614237,84 89,84 Z"/>
</svg>
