<svg xmlns="http://www.w3.org/2000/svg" width="128" height="128" viewBox="0 0 128 128">
  <path d="M71.3181818,29 C64.3074642,29 57.71317,32.0209867 53.1410515,37.2548914 L52.3197196,38.1951061 L51.1143068,37.8701914 C49.8683166,37.5343391 48.5789113,37.3636364 47.2727273,37.3636364 C41.1404745,37.3636364 35.683727,41.1604845 33.5174102,46.8160808 L33.1167204,47.8621605 L32.0154091,48.0669737 C25.0955166,49.353881 20,55.4216605 20,62.5454545 C20,70.6791027 26.5936246,77.2727273 34.7272727,77.2727273 L93.2727273,77.2727273 C101.406375,77.2727273 108,70.6791027 108,62.5454545 C108,55.4725984 102.976025,49.4350317 96.1206465,48.0929422 L94.9076334,47.8554685 L94.5775361,46.664322 C91.7013793,36.2857926 82.2007766,29 71.3181818,29 Z M50.9477611,33.7252768 C56.229758,28.1788876 63.5578496,25 71.3181818,25 C83.5981678,25 94.3658134,32.9554245 98.0858753,44.442708 C106.191026,46.5891862 112,53.9674259 112,62.5454545 C112,72.8882417 103.615514,81.2727273 93.2727273,81.2727273 L34.7272727,81.2727273 C24.3844856,81.2727273 16,72.8882417 16,62.5454545 C16,53.8596665 21.9545396,46.410712 30.2066049,44.3677189 C33.2047109,37.738803 39.848311,33.3636364 47.2727273,33.3636364 C48.5129538,33.3636364 49.7429464,33.4851224 50.9477611,33.7252768 Z M35.4350288,85.5857864 C36.2160774,84.8047379 37.4824074,84.8047379 38.263456,85.5857864 C39.0445046,86.366835 39.0445046,87.633165 38.263456,88.4142136 L23.4142136,103.263456 C22.633165,104.044505 21.366835,104.044505 20.5857864,103.263456 C19.8047379,102.482407 19.8047379,101.216077 20.5857864,100.435029 L35.4350288,85.5857864 Z M50.4350288,85.5857864 C51.2160774,84.8047379 52.4824074,84.8047379 53.263456,85.5857864 C54.0445046,86.366835 54.0445046,87.633165 53.263456,88.4142136 L38.4142136,103.263456 C37.633165,104.044505 36.366835,104.044505 35.5857864,103.263456 C34.8047379,102.482407 34.8047379,101.216077 35.5857864,100.435029 L50.4350288,85.5857864 Z M65.4350288,85.5857864 C66.2160774,84.8047379 67.4824074,84.8047379 68.263456,85.5857864 C69.0445046,86.366835 69.0445046,87.633165 68.263456,88.4142136 L53.4142136,103.263456 C52.633165,104.044505 51.366835,104.044505 50.5857864,103.263456 C49.8047379,102.482407 49.8047379,101.216077 50.5857864,100.435029 L65.4350288,85.5857864 Z M80.4350288,85.5857864 C81.2160774,84.8047379 82.4824074,84.8047379 83.263456,85.5857864 C84.0445046,86.366835 84.0445046,87.633165 83.263456,88.4142136 L68.4142136,103.263456 C67.633165,104.044505 66.366835,104.044505 65.5857864,103.263456 C64.8047379,102.482407 64.8047379,101.216077 65.5857864,100.435029 L80.4350288,85.5857864 Z M95.4350288,85.5857864 C96.2160774,84.8047379 97.4824074,84.8047379 98.263456,85.5857864 C99.0445046,86.366835 99.0445046,87.633165 98.263456,88.4142136 L83.4142136,103.263456 C82.633165,104.044505 81.366835,104.044505 80.5857864,103.263456 C79.8047379,102.482407 79.8047379,101.216077 80.5857864,100.435029 L95.4350288,85.5857864 Z"/>
</svg>
