<svg xmlns="http://www.w3.org/2000/svg" width="128" height="128" viewBox="0 0 128 128">
  <path fill-rule="evenodd" d="M25.6916556,30 L102.308344,30 C104.982901,30 105.952759,30.2784768 106.930537,30.8013981 C107.908315,31.3243194 108.675681,32.0916851 109.198602,33.0694629 C109.721523,34.0472407 110,35.0170994 110,37.6916556 L110,90.3083444 C110,92.9829006 109.721523,93.9527593 109.198602,94.9305371 C108.675681,95.9083149 107.908315,96.6756806 106.930537,97.1986019 C105.952759,97.7215232 104.982901,98 102.308344,98 L25.6916556,98 C23.0170994,98 22.0472407,97.7215232 21.0694629,97.1986019 C20.0916851,96.6756806 19.3243194,95.9083149 18.8013981,94.9305371 C18.2784768,93.9527593 18,92.9829006 18,90.3083444 L18,37.6916556 C18,35.0170994 18.2784768,34.0472407 18.8013981,33.0694629 C19.3243194,32.0916851 20.0916851,31.3243194 21.0694629,30.8013981 C22.0472407,30.2784768 23.0170994,30 25.6916556,30 Z"/>
</svg>
