<svg xmlns="http://www.w3.org/2000/svg" width="128" height="128" viewBox="0 0 128 128">
  <path d="M62.0103744,31.284454 C41.8681052,32.8113382 26,49.6383582 26,70.1715729 C26,91.7106781 43.4608948,109.171573 65,109.171573 C86.2047726,109.171573 103.456957,92.2485314 103.987429,71.1715729 L104,71.1715729 C104,70.0670034 104.895431,69.1715729 106,69.1715729 C107.104569,69.1715729 108,70.0670034 108,71.1715729 L107.988601,71.1715729 C107.457203,94.4579101 88.4140065,113.171573 65,113.171573 C41.2517558,113.171573 22,93.9198171 22,70.1715729 C22,47.2643164 39.9123879,28.5407223 62.4946085,27.2433458 L52.6654762,17.4142136 C51.8844276,16.633165 51.8844276,15.366835 52.6654762,14.5857864 C53.4465248,13.8047379 54.7128548,13.8047379 55.4939033,14.5857864 L67.3956152,26.4874983 C68.8339772,27.9258603 68.8339772,30.2579059 67.3956152,31.6962678 L55.4939033,43.5979797 C54.7128548,44.3790283 53.4465248,44.3790283 52.6654762,43.5979797 C51.8844276,42.8169312 51.8844276,41.5506012 52.6654762,40.7695526 L61.9791847,31.4558441 L62.0103744,31.284454 Z"/>
</svg>
