<svg xmlns="http://www.w3.org/2000/svg" width="128" height="128" viewBox="0 0 128 128">
  <path d="M96.7695447,91.4324956 L95.3553391,90.018257 C94.9648239,89.6277418 94.9648239,88.9945916 95.3553391,88.6040764 C110.585786,73.373629 110.585786,48.6801948 95.3553391,33.4497475 C80.8361637,18.9305722 57.7172189,18.252517 42.3948137,31.4155819 L55.7096321,31.5147186 C56.8142016,31.5147186 57.7096321,32.4101491 57.7096321,33.5147186 C57.7096321,34.6192881 56.8142016,35.5147186 55.7096321,35.5147186 L38.8780697,35.5147186 C36.8439187,35.5147186 35.1949135,33.8657134 35.1949135,31.8315624 L35.1949135,15 C35.1949135,13.8954305 36.090344,13 37.1949135,13 C38.299483,13 39.1949135,13.8954305 39.1949135,15 L39.1949135,28.9004922 C56.0803384,13.8498346 81.9858898,14.4234439 98.1837662,30.6213203 C114.976311,47.4138649 114.976311,74.639959 98.1837662,91.4325035 C97.7932375,91.8230322 97.1600654,91.8230322 96.7695367,91.4325035 L96.7695447,91.4324956 Z M33.0086299,34.7426486 L34.4228355,36.1568873 C34.8133507,36.5474024 34.8133507,37.1805526 34.4228355,37.5710678 C19.1923882,52.8015152 19.1923882,77.4949494 34.4228355,92.7253967 C48.9420108,107.244572 72.0609557,107.922627 87.3833609,94.7595623 L74.0685425,94.6604256 C72.963973,94.6604256 72.0685425,93.7649951 72.0685425,92.6604256 C72.0685425,91.5558561 72.963973,90.6604256 74.0685425,90.6604256 L90.9001049,90.6604256 C92.9342559,90.6604256 94.5832611,92.3094308 94.5832611,94.3435818 L94.5832611,111.175144 C94.5832611,112.279714 93.6878306,113.175144 92.5832611,113.175144 C91.4786916,113.175144 90.5832611,112.279714 90.5832611,111.175144 L90.5832611,97.274652 C73.6978361,112.32531 47.7922848,111.7517 31.5944084,95.5538239 C14.8018639,78.7612793 14.8018639,51.5351852 31.5944084,34.7426407 C31.9849371,34.352112 32.6181092,34.352112 33.0086379,34.7426407 L33.0086299,34.7426486 Z"/>
</svg>
