<svg xmlns="http://www.w3.org/2000/svg" width="128" height="128" viewBox="0 0 128 128">
  <path fill-rule="evenodd" d="M64.3431458,62.7195575 C64.5370824,62.282491 64.8132247,61.8730668 65.1715729,61.5147186 L89.5147186,37.1715729 C90.2648641,36.4214274 91.2822798,36 92.3431458,36 C94.5522847,36 96.3431458,37.790861 96.3431458,40 L96.3431458,88.6862915 C96.3431458,89.7471575 95.9217184,90.7645731 95.1715729,91.5147186 C93.6094757,93.0768158 91.0768158,93.0768158 89.5147186,91.5147186 L65.1715729,67.1715729 C64.8132247,66.8132247 64.5370824,66.4038005 64.3431458,65.9667341 L64.3431458,88.6862915 C64.3431458,89.7471575 63.9217184,90.7645731 63.1715729,91.5147186 C61.6094757,93.0768158 59.0768158,93.0768158 57.5147186,91.5147186 L33.1715729,67.1715729 C31.6094757,65.6094757 31.6094757,63.0768158 33.1715729,61.5147186 L57.5147186,37.1715729 C58.2648641,36.4214274 59.2822798,36 60.3431458,36 C62.5522847,36 64.3431458,37.790861 64.3431458,40 L64.3431458,62.7195575 Z"/>
</svg>
