<svg xmlns="http://www.w3.org/2000/svg" width="128" height="128" viewBox="0 0 128 128">
  <path d="M15.7692308,30 C15.7692308,27.790861 17.5600918,26 19.7692308,26 C21.9783698,26 23.7692308,27.790861 23.7692308,30 L23.7692308,98 C23.7692308,100.209139 21.9783698,102 19.7692308,102 C17.5600918,102 15.7692308,100.209139 15.7692308,98 L15.7692308,30 Z M33.7692308,82 C33.7692308,79.790861 35.5600918,78 37.7692308,78 C39.9783698,78 41.7692308,79.790861 41.7692308,82 L41.7692308,98 C41.7692308,100.209139 39.9783698,102 37.7692308,102 C35.5600918,102 33.7692308,100.209139 33.7692308,98 L33.7692308,82 Z M51.7692308,82 C51.7692308,79.790861 53.5600918,78 55.7692308,78 C57.9783698,78 59.7692308,79.790861 59.7692308,82 L59.7692308,98 C59.7692308,100.209139 57.9783698,102 55.7692308,102 C53.5600918,102 51.7692308,100.209139 51.7692308,98 L51.7692308,82 Z M69.7692308,30 C69.7692308,27.790861 71.5600918,26 73.7692308,26 C75.9783698,26 77.7692308,27.790861 77.7692308,30 L77.7692308,98 C77.7692308,100.209139 75.9783698,102 73.7692308,102 C71.5600918,102 69.7692308,100.209139 69.7692308,98 L69.7692308,30 Z M85.7692308,82 C85.7692308,79.790861 87.5600918,78 89.7692308,78 C91.9783698,78 93.7692308,79.790861 93.7692308,82 L93.7692308,98 C93.7692308,100.209139 91.9783698,102 89.7692308,102 C87.5600918,102 85.7692308,100.209139 85.7692308,98 L85.7692308,82 Z M103.769231,82 C103.769231,79.790861 105.560092,78 107.769231,78 C109.97837,78 111.769231,79.790861 111.769231,82 L111.769231,98 C111.769231,100.209139 109.97837,102 107.769231,102 C105.560092,102 103.769231,100.209139 103.769231,98 L103.769231,82 Z"/>
</svg>
