<svg xmlns="http://www.w3.org/2000/svg" width="128" height="128" viewBox="0 0 128 128">
  <path fill-rule="evenodd" d="M76.6262092,38.9848786 L99.4811685,67.9664334 C102.321912,71.5686791 103.837906,76.03803 103.774989,80.6251905 C103.687438,87.0084277 102.058017,91.2209741 98.6230756,92.97817 L60.4318407,113.803145 C60.2422068,113.906549 60.0432023,113.976063 59.8417893,114.013737 C56.9855354,115.500316 53.6651718,115.890059 50.4799849,115.036591 C48.0581446,114.387661 45.5391187,112.454744 42.804342,109.286372 C41.9844287,108.336463 42.2316427,106.874917 43.3183531,106.247505 L60.3393597,96.4204219 L27.6697289,56.2202118 C25.2150822,52.6214315 24,49.6879637 24,47.1806901 C24,43.6877007 25.3866706,40.4092431 27.8076118,37.9883019 C28.864746,36.9311678 31.8421058,34.8518867 32.1738278,34.6603669 L68.6063354,13.6260488 C74.6110238,10.1592404 82.3664539,12.4249551 85.9465131,18.6257996 C89.5265723,24.826644 87.6110238,32.6759009 81.5976545,36.1476923 L76.6262092,38.9848786 Z M73.1131337,40.9897784 L47.0242062,55.8786374 C45.0006161,57.0334932 42.9717169,54.3821154 44.6153465,52.7307249 C45.7292872,51.6115245 46.2216398,49.8692636 46.0072077,47.350333 C45.6903807,43.6285719 45.2889275,42.7416955 43.363961,40.816729 C41.685729,39.138497 39.4212191,38.1806901 37,38.1806901 C34.5787809,38.1806901 32.314271,39.138497 30.636039,40.816729 C28.9578069,42.4949611 28,44.759471 28,47.1806901 C28,48.7109168 28.9176421,50.9387859 30.8286073,53.7648084 L64.899771,95.6896145 C65.0522407,95.8932583 65.0924636,95.9579951 65.1285661,96.0241025 C66.819704,98.9798668 67.3011972,102.487115 66.4016683,105.844203 C66.3860855,105.902359 66.3701213,105.960346 66.3537783,106.018162 L96.7544264,89.4418712 C98.5956864,88.4995344 99.7059804,85.6290876 99.7753652,80.5703324 C99.8256984,76.900604 98.6129038,73.3251232 96.3403087,70.4433266 L73.1131337,40.9897784 Z M46.1925673,37.9882374 C48.7951716,40.5908417 49.5972832,42.3628383 49.9929715,47.0109827 C50.0693241,47.907896 50.0759287,48.7611265 50.0114715,49.5683053 L79.6065146,32.6785432 C83.6623854,30.3368851 84.9776637,24.9473284 82.4825907,20.6257351 C79.9875176,16.3041418 74.6623854,14.7484278 70.6065146,17.0900859 L40.2806403,34.5987376 C42.5121944,35.1789375 44.5498025,36.3454726 46.1925673,37.9882374 Z M47.4954599,108.454692 C49.0489418,109.975999 50.4052743,110.875355 51.5154403,111.172823 C53.8541583,111.799481 56.2894055,111.460409 58.3448117,110.27372 C60.4002178,109.08703 61.9114865,107.14758 62.5381441,104.808862 C62.9857654,103.138317 62.9406483,101.41852 62.4458392,99.8230864 L47.4954599,108.454692 Z"/>
</svg>
