<svg xmlns="http://www.w3.org/2000/svg" width="128" height="128" viewBox="0 0 128 128">
  <path d="M50,49 L50,41 C50,38.2385763 52.2385763,36 55,36 C57.7614237,36 60,38.2385763 60,41 L60,49 L68,49 C70.7614237,49 73,51.2385763 73,54 C73,56.7614237 70.7614237,59 68,59 L60,59 L60,67 C60,69.7614237 57.7614237,72 55,72 C52.2385763,72 50,69.7614237 50,67 L50,59 L42,59 C39.2385763,59 37,56.7614237 37,54 C37,51.2385763 39.2385763,49 42,49 L50,49 Z M81.3190271,74.2479593 L108.447222,101.376154 C110.399844,103.328776 110.399844,106.494601 108.447222,108.447222 C106.494601,110.399844 103.328776,110.399844 101.376154,108.447222 L74.2479593,81.3190271 C60.9365147,91.2108026 42.0350759,90.118337 29.9583694,78.0416306 C16.6805435,64.7638046 16.6805435,43.2361954 29.9583694,29.9583694 C43.2361954,16.6805435 64.7638046,16.6805435 78.0416306,29.9583694 C90.118337,42.0350759 91.2108026,60.9365147 81.3190271,74.2479593 Z M37.0294373,70.9705627 C46.4020203,80.3431457 61.5979797,80.3431457 70.9705627,70.9705627 C80.3431457,61.5979797 80.3431457,46.4020203 70.9705627,37.0294373 C61.5979797,27.6568542 46.4020203,27.6568542 37.0294373,37.0294373 C27.6568542,46.4020203 27.6568542,61.5979797 37.0294373,70.9705627 Z"/>
</svg>
