<svg xmlns="http://www.w3.org/2000/svg" width="128" height="128" viewBox="0 0 128 128">
  <path d="M37.0294373,70.9705627 C46.4020203,80.3431457 61.5979797,80.3431457 70.9705627,70.9705627 C80.3431457,61.5979797 80.3431457,46.4020203 70.9705627,37.0294373 C61.5979797,27.6568542 46.4020203,27.6568542 37.0294373,37.0294373 C27.6568542,46.4020203 27.6568542,61.5979797 37.0294373,70.9705627 Z M81.3190271,74.2479593 L108.447222,101.376154 C110.399844,103.328776 110.399844,106.494601 108.447222,108.447222 C106.494601,110.399844 103.328776,110.399844 101.376154,108.447222 L74.2479593,81.3190271 C60.9365147,91.2108026 42.0350759,90.118337 29.9583694,78.0416306 C16.6805435,64.7638046 16.6805435,43.2361954 29.9583694,29.9583694 C43.2361954,16.6805435 64.7638046,16.6805435 78.0416306,29.9583694 C90.118337,42.0350759 91.2108026,60.9365147 81.3190271,74.2479593 Z"/>
</svg>
