<svg xmlns="http://www.w3.org/2000/svg" width="128" height="128" viewBox="0 0 128 128">
  <path d="M20,64.819082 L57.1782325,64.819082 L100.121186,36.1904465 L20,53.5139461 L20,64.819082 Z M40.8648649,68.819082 L18,68.819082 C16.8954305,68.819082 16,67.9236515 16,66.819082 L16,51.900163 C16,50.9584711 16.6569114,50.1443451 17.5773344,49.9453347 L109.433673,30.0845048 C109.66351,30.0141115 109.895343,29.9894092 110.120749,30.004043 C110.76652,30.029408 111.291541,30.3636111 111.622529,30.8335455 C111.844051,31.1337305 111.984329,31.4972925 112.003438,31.8941159 C112.027448,32.2202667 111.973095,32.5532775 111.826919,32.8613512 L92.0129564,94.7799848 C91.7478813,95.6083445 90.9778463,96.1704333 90.1081081,96.1704333 L72.7027027,96.1704333 C71.9708143,96.1704333 71.2973779,95.7706592 70.9469116,95.1281376 L62.3543172,79.3750479 L43.9248627,90.893457 C42.5927667,91.726017 40.8648649,90.7683314 40.8648649,89.1974603 L40.8648649,68.819082 Z M73.8899689,92.1704333 L88.6482033,92.1704333 L106.352853,36.8434034 L60.415926,67.4680213 L73.8899689,92.1704333 Z M44.8648649,68.819082 L44.8648649,85.5889651 L60.1546115,76.0328734 L56.5477158,68.819082 L44.8648649,68.819082 Z"/>
</svg>
