<svg xmlns="http://www.w3.org/2000/svg" width="128" height="128" viewBox="0 0 128 128">
  <path d="M66,21.0294373 L66,80 C66,81.1045695 65.1045695,82 64,82 C62.8954305,82 62,81.1045695 62,80 L62,21.0294373 L45.6152237,37.4142136 C44.8341751,38.1952621 43.5678451,38.1952621 42.7867966,37.4142136 C42.005748,36.633165 42.005748,35.366835 42.7867966,34.5857864 L60.6697552,16.7028278 C62.5089986,14.8635844 65.4910014,14.8635844 67.3302448,16.7028278 L85.2132034,34.5857864 C85.994252,35.366835 85.994252,36.633165 85.2132034,37.4142136 C84.4321549,38.1952621 83.1658249,38.1952621 82.3847763,37.4142136 L66,21.0294373 Z M58,48 C58,49.1045695 57.1045695,50 56,50 L36,50 C34.8954305,50 34,50.8954305 34,52 L34,108 C34,109.104569 34.8954305,110 36,110 L92,110 C93.1045695,110 94,109.104569 94,108 L94,52 C94,50.8954305 93.1045695,50 92,50 L72,50 C70.8954305,50 70,49.1045695 70,48 C70,46.8954305 70.8954305,46 72,46 L92,46 C95.3137085,46 98,48.6862915 98,52 L98,108 C98,111.313708 95.3137085,114 92,114 L36,114 C32.6862915,114 30,111.313708 30,108 L30,52 C30,48.6862915 32.6862915,46 36,46 L56,46 C57.1045695,46 58,46.8954305 58,48 Z"/>
</svg>
