<svg xmlns="http://www.w3.org/2000/svg" width="128" height="128" viewBox="0 0 128 128">
  <path d="M58.9817425,60.9950621 L74.4911741,42.8088758 C76.011128,41.0265949 78.2358396,40 80.5782284,40 L102.263456,40 L93.6776695,31.4142136 C92.8966209,30.633165 92.8966209,29.366835 93.6776695,28.5857864 C94.4587181,27.8047379 95.7250481,27.8047379 96.5060967,28.5857864 L108.407809,40.4874983 C109.846171,41.9258603 109.846171,44.2579059 108.407809,45.6962678 L96.5060967,57.5979797 C95.7250481,58.3790283 94.4587181,58.3790283 93.6776695,57.5979797 C92.8966209,56.8169312 92.8966209,55.5506012 93.6776695,54.7695526 L104.447222,44 L80.5782284,44 C79.407034,44 78.2946782,44.5132974 77.5347012,45.4044379 L61.6002264,64.0890251 L77.2529551,82.5840652 C78.0129717,83.4820899 79.129783,84 80.3062496,84 L104.263456,84 L93.6776695,73.4142136 C92.8966209,72.633165 92.8966209,71.366835 93.6776695,70.5857864 C94.4587181,69.8047379 95.7250481,69.8047379 96.5060967,70.5857864 L108.407809,82.4874983 C109.846171,83.9258603 109.846171,86.2579059 108.407809,87.6962678 L96.5060967,99.5979797 C95.7250481,100.379028 94.4587181,100.379028 93.6776695,99.5979797 C92.8966209,98.8169312 92.8966209,97.5506012 93.6776695,96.7695526 L102.447222,88 L80.3062496,88 C77.9533165,88 75.7196938,86.9641798 74.1996607,85.1681304 L58.9700925,67.1730908 L43.604064,85.1911242 C42.0841101,86.9734051 39.8593985,88 37.5170097,88 L14,88 C12.8954305,88 12,87.1045695 12,86 C12,84.8954305 12.8954305,84 14,84 L37.5170097,84 C38.6882041,84 39.8005599,83.4867026 40.5605369,82.5955621 L56.3516086,64.0791277 L40.5565687,45.4159348 C39.7965521,44.5179101 38.6797408,44 37.5032742,44 L14,44 C12.8954305,44 12,43.1045695 12,42 C12,40.8954305 12.8954305,40 14,40 L37.5032742,40 C39.8562074,40 42.08983,41.0358202 43.6098631,42.8318696 L58.9817425,60.9950621 Z"/>
</svg>
