<svg xmlns="http://www.w3.org/2000/svg" width="128" height="128" viewBox="0 0 128 128">
  <path d="M62.0103744,31.284454 C41.8681052,32.8113382 26,49.6383582 26,70.1715729 C26,91.7106781 43.4608948,109.171573 65,109.171573 C86.2047726,109.171573 103.456957,92.2485314 103.987429,71.1715729 L104,71.1715729 C104,70.0670034 104.895431,69.1715729 106,69.1715729 C107.104569,69.1715729 108,70.0670034 108,71.1715729 L107.988601,71.1715729 C107.457203,94.4579101 88.4140065,113.171573 65,113.171573 C41.2517558,113.171573 22,93.9198171 22,70.1715729 C22,47.2643164 39.9123879,28.5407223 62.4946085,27.2433458 L52.6654762,17.4142136 C51.8844276,16.633165 51.8844276,15.366835 52.6654762,14.5857864 C53.4465248,13.8047379 54.7128548,13.8047379 55.4939033,14.5857864 L67.3956152,26.4874983 C68.8339772,27.9258603 68.8339772,30.2579059 67.3956152,31.6962678 L55.4939033,43.5979797 C54.7128548,44.3790283 53.4465248,44.3790283 52.6654762,43.5979797 C51.8844276,42.8169312 51.8844276,41.5506012 52.6654762,40.7695526 L61.9791847,31.4558441 L62.0103744,31.284454 Z M56.7318182,58 L56.7318182,85.9272727 L51.8090909,85.9272727 L51.8090909,64.9818182 L51.5909091,64.9818182 C51.2999985,65.4818207 50.6727321,65.9159073 49.7090909,66.2840909 C48.7454497,66.6522746 47.5090985,66.8363636 46,66.8363636 L46,62.5136364 C47.2272789,62.5136364 48.2272689,62.2977294 49,61.8659091 C49.7727311,61.4340888 50.3681797,60.9295483 50.7863636,60.3522727 C51.2045475,59.7749971 51.4999991,59.2545478 51.6727273,58.7909091 C51.8454554,58.3272704 51.9454544,58.0636367 51.9727273,58 L56.7318182,58 Z M68.2272727,73.3 L63.9454545,72.25 L65.5818182,58 L81.0045455,58 L81.0045455,62.5954545 L69.8909091,62.5954545 L69.0863636,69.4272727 L69.2090909,69.4272727 C69.5454562,69.0636345 70.0909053,68.7068199 70.8454545,68.3568182 C71.6000038,68.0068164 72.5090856,67.8318182 73.5727273,67.8318182 C75.2090991,67.8318182 76.6613573,68.2113598 77.9295455,68.9704545 C79.1977336,69.7295493 80.1931782,70.7909023 80.9159091,72.1545455 C81.63864,73.5181886 82,75.099991 82,76.9 C82,78.5818266 81.6522762,80.1363565 80.9568182,81.5636364 C80.2613602,82.9909162 79.2181888,84.138632 77.8272727,85.0068182 C76.4363567,85.8750043 74.6909196,86.3090909 72.5909091,86.3090909 C70.7636272,86.3090909 69.1750067,85.954549 67.825,85.2454545 C66.4749932,84.5363601 65.4204583,83.5454609 64.6613636,82.2727273 C63.9022689,80.9999936 63.4954548,79.5181903 63.4409091,77.8272727 L68.6090909,77.8272727 C68.7545462,78.981824 69.1318151,79.9727231 69.7409091,80.8 C70.350003,81.6272769 71.3090844,82.0409091 72.6181818,82.0409091 C74.0181888,82.0409091 75.0795418,81.534096 75.8022727,80.5204545 C76.5250036,79.5068131 76.8863636,78.2954616 76.8863636,76.8863636 C76.8863636,75.222719 76.4704587,73.9545498 75.6386364,73.0818182 C74.806814,72.2090865 73.6772799,71.7727273 72.25,71.7727273 C71.2045402,71.7727273 70.3704577,71.9295439 69.7477273,72.2431818 C69.1249969,72.5568198 68.6181838,72.909089 68.2272727,73.3 Z"/>
</svg>
