<svg xmlns="http://www.w3.org/2000/svg" width="128" height="128" viewBox="0 0 128 128">
  <path d="M62.0103744,31.284454 C41.8681052,32.8113382 26,49.6383582 26,70.1715729 C26,91.7106781 43.4608948,109.171573 65,109.171573 C86.2047726,109.171573 103.456957,92.2485314 103.987429,71.1715729 L104,71.1715729 C104,70.0670034 104.895431,69.1715729 106,69.1715729 C107.104569,69.1715729 108,70.0670034 108,71.1715729 L107.988601,71.1715729 C107.457203,94.4579101 88.4140065,113.171573 65,113.171573 C41.2517558,113.171573 22,93.9198171 22,70.1715729 C22,47.2643164 39.9123879,28.5407223 62.4946085,27.2433458 L52.6654762,17.4142136 C51.8844276,16.633165 51.8844276,15.366835 52.6654762,14.5857864 C53.4465248,13.8047379 54.7128548,13.8047379 55.4939033,14.5857864 L67.3956152,26.4874983 C68.8339772,27.9258603 68.8339772,30.2579059 67.3956152,31.6962678 L55.4939033,43.5979797 C54.7128548,44.3790283 53.4465248,44.3790283 52.6654762,43.5979797 C51.8844276,42.8169312 51.8844276,41.5506012 52.6654762,40.7695526 L61.9791847,31.4558441 L62.0103744,31.284454 Z M56.7318182,58 L56.7318182,85.9272727 L51.8090909,85.9272727 L51.8090909,64.9818182 L51.5909091,64.9818182 C51.2999985,65.4818207 50.6727321,65.9159073 49.7090909,66.2840909 C48.7454497,66.6522746 47.5090985,66.8363636 46,66.8363636 L46,62.5136364 C47.2272789,62.5136364 48.2272689,62.2977294 49,61.8659091 C49.7727311,61.4340888 50.3681797,60.9295483 50.7863636,60.3522727 C51.2045475,59.7749971 51.4999991,59.2545478 51.6727273,58.7909091 C51.8454554,58.3272704 51.9454544,58.0636367 51.9727273,58 L56.7318182,58 Z M83.269868,70.0369203 L83.269868,74.0042461 C83.269868,82.1548065 79.3970024,86.3920184 73.6619226,86.3920184 C67.8728656,86.3920184 64,82.1548065 64,74.0042461 L64,70.0369203 C64,62.2102233 67.8998542,58 73.6484283,58 C79.3835081,58 83.269868,62.2102233 83.269868,70.0369203 Z M78.0475718,74.7464329 L78.0475718,69.3082279 C78.0475718,64.8011299 76.374278,62.3991435 73.6484283,62.3991435 C70.9090843,62.3991435 69.2222962,64.8011299 69.2222962,69.3082279 L69.2222962,74.7464329 C69.2222962,79.523417 70.9225786,81.9523919 73.6619226,81.9523919 C76.3607837,81.9523919 78.0475718,79.523417 78.0475718,74.7464329 Z"/>
</svg>
