<svg xmlns="http://www.w3.org/2000/svg" width="128" height="128" viewBox="0 0 128 128">
  <path fill-rule="evenodd" d="M36.5882353,44 L58,16 L58,111.2 L36.5882353,83.2 L16,83.2 L16,44 L36.5882353,44 Z M68,68.6317785 C69.9966238,65.5950343 70.1415028,61.6981701 68.434637,58.5366019 L70.7256248,56.245614 C74.5776298,60.097619 74.5776298,66.342953 70.7256248,70.194958 C70.5298962,70.3906866 70.3279883,70.5764698 70.1205291,70.7523076 L68,68.6317785 Z M81.7658223,81.7589796 C90.8336008,71.3282325 91.0109838,55.8495397 82.2979714,45.2212977 L84.3964621,43.122807 C95.4709764,54.1973213 95.4709764,72.1526566 84.3964621,83.2271709 C84.2020619,83.4215711 84.0055415,83.6125588 83.8069753,83.800134 L81.7658223,81.7589796 Z M95.8447984,32.0665642 L97.9113626,30 C116.464511,48.7097205 116.416176,78.9170155 97.7663599,97.5668318 C97.620838,97.7123538 97.4746124,97.8567432 97.3276941,98 L95.2949551,95.9672611 C111.769761,77.9227661 111.953038,50.3236244 95.8447984,32.0665642 Z"/>
</svg>
