<svg xmlns="http://www.w3.org/2000/svg" width="128" height="128" viewBox="0 0 128 128">
  <path fill="none" stroke="#979797" stroke-width="4" d="M64.1915032,66.9622386 L62.6146323,68.5391094 C60.5548939,70.5988478 60.1189972,73.6675122 61.3069423,76.1542829 L62.6146323,78.0003346 C67.3452449,82.7309472 65.768374,78.0003346 68.9221158,78.0003346 C71.0246102,78.0003346 71.2979876,81.9319462 68.9221158,84.3078181 C66.5462439,86.68369 63.6658795,86.4103126 62.6146323,87.4615598 C62.2419191,87.8342731 61.8692058,88.3391295 61.4964926,88.9761291 C61.5952695,94.4831639 59.6136111,99.9238062 55.5187134,104.018704 C47.245337,112.29208 33.4785488,111.939086 24.7697315,103.230268 C16.0609142,94.5214512 15.7079197,80.754663 23.9812961,72.4812866 C25.1232495,71.3393332 26.5999498,69.3530821 27.9234733,68.5391094 C34.6146184,65.7690294 39.5793858,66.3444221 43.6921819,62.231626 L46.8459236,59.0778842 C47.1724158,58.2576012 49.3357538,53.4343124 49.9996654,52.7704008 C52.6123106,50.1577556 55.2713745,48.5808847 57.8840197,51.1935299 C59.9437581,53.2532683 60.3796548,56.3219327 59.1917097,58.8087034 L61.0921363,60.70913 L92.3237645,30.221591 L90.2330818,26.0756608 L102.848049,19.7681774 L103.636484,18.9797419 C104.942807,17.6734194 107.060774,17.6734194 108.367097,18.9797419 C109.673419,20.2860645 109.673419,22.4040319 108.367097,23.7103545 C108.090643,23.9868079 107.77784,24.2047563 107.444071,24.3641995 L102.848049,35.536886 L94.9636944,37.1137569 L64.1915032,66.9622386 Z"/>
</svg>
