<svg xmlns="http://www.w3.org/2000/svg" width="128" height="128" viewBox="0 0 128 128">
  <path fill-rule="evenodd" d="M37.6916556,30 L90.3083444,30 C92.9829006,30 93.9527593,30.2784768 94.9305371,30.8013981 C95.9083149,31.3243194 96.6756806,32.0916851 97.1986019,33.0694629 C97.7215232,34.0472407 98,35.0170994 98,37.6916556 L98,90.3083444 C98,92.9829006 97.7215232,93.9527593 97.1986019,94.9305371 C96.6756806,95.9083149 95.9083149,96.6756806 94.9305371,97.1986019 C93.9527593,97.7215232 92.9829006,98 90.3083444,98 L37.6916556,98 C35.0170994,98 34.0472407,97.7215232 33.0694629,97.1986019 C32.0916851,96.6756806 31.3243194,95.9083149 30.8013981,94.9305371 C30.2784768,93.9527593 30,92.9829006 30,90.3083444 L30,37.6916556 C30,35.0170994 30.2784768,34.0472407 30.8013981,33.0694629 C31.3243194,32.0916851 32.0916851,31.3243194 33.0694629,30.8013981 C34.0472407,30.2784768 35.0170994,30 37.6916556,30 Z"/>
</svg>
