<svg xmlns="http://www.w3.org/2000/svg" width="128" height="128" viewBox="0 0 128 128">
  <path d="M65,34.5485946 C70.0009472,31.6557029 75.8071186,30 82,30 C100.777681,30 116,45.2223185 116,64 C116,82.7776815 100.777681,98 82,98 C75.8071186,98 70.0009472,96.3442971 65,93.4514054 C59.9990528,96.3442971 54.1928814,98 48,98 C29.2223185,98 14,82.7776815 14,64 C14,45.2223185 29.2223185,30 48,30 C54.1928814,30 59.9990528,31.6557029 65,34.5485946 Z M65,83.672873 C70.5122662,78.9053201 74,71.859962 74,64 C74,56.140038 70.5122662,49.0946799 65,44.327127 C59.4877338,49.0946799 56,56.140038 56,64 C56,71.859962 59.4877338,78.9053201 65,83.672873 Z M57.9463809,39.9703639 C54.8824225,38.7007092 51.523041,38 48,38 C33.6405965,38 22,49.6405965 22,64 C22,78.3594035 33.6405965,90 48,90 C51.523041,90 54.8824225,89.2992908 57.9463809,88.0296361 C51.8006366,81.8777963 48,73.3827413 48,64 C48,54.6172587 51.8006366,46.1222037 57.9463809,39.9703639 Z M72.0536191,88.0296361 C75.1175775,89.2992908 78.476959,90 82,90 C96.3594035,90 108,78.3594035 108,64 C108,49.6405965 96.3594035,38 82,38 C78.476959,38 75.1175775,38.7007092 72.0536191,39.9703639 C78.1993634,46.1222037 82,54.6172587 82,64 C82,73.3827413 78.1993634,81.8777963 72.0536191,88.0296361 Z"/>
</svg>
