<svg xmlns="http://www.w3.org/2000/svg" width="128" height="128" viewBox="0 0 128 128">
  <path d="M65.545361,25.045361 C65.545361,26.1499305 64.6499305,27.045361 63.545361,27.045361 C62.4407915,27.045361 61.545361,26.1499305 61.545361,25.045361 L61.545361,14 C61.545361,12.8954305 62.4407915,12 63.545361,12 C64.6499305,12 65.545361,12.8954305 65.545361,14 L65.545361,25.045361 Z M92.8902924,38.0288567 C92.1092439,38.8099053 90.8429139,38.8099053 90.0618653,38.0288567 C89.2808167,37.2478081 89.2808167,35.9814782 90.0618653,35.2004296 L97.872115,27.3901799 C98.6531636,26.6091313 99.9194935,26.6091313 100.700542,27.3901799 C101.481591,28.1712285 101.481591,29.4375585 100.700542,30.218607 L92.8902924,38.0288567 Z M103.045361,66.545361 C101.940792,66.545361 101.045361,65.6499305 101.045361,64.545361 C101.045361,63.4407915 101.940792,62.545361 103.045361,62.545361 L114.090722,62.545361 C115.195292,62.545361 116.090722,63.4407915 116.090722,64.545361 C116.090722,65.6499305 115.195292,66.545361 114.090722,66.545361 L103.045361,66.545361 Z M90.0618653,93.8902924 C89.2808167,93.1092439 89.2808167,91.8429139 90.0618653,91.0618653 C90.8429139,90.2808167 92.1092439,90.2808167 92.8902924,91.0618653 L100.700542,98.872115 C101.481591,99.6531636 101.481591,100.919494 100.700542,101.700542 C99.9194935,102.481591 98.6531636,102.481591 97.872115,101.700542 L90.0618653,93.8902924 Z M61.545361,104.045361 C61.545361,102.940792 62.4407915,102.045361 63.545361,102.045361 C64.6499305,102.045361 65.545361,102.940792 65.545361,104.045361 L65.545361,115.090722 C65.545361,116.195292 64.6499305,117.090722 63.545361,117.090722 C62.4407915,117.090722 61.545361,116.195292 61.545361,115.090722 L61.545361,104.045361 Z M34.2004296,91.0618653 C34.9814782,90.2808167 36.2478081,90.2808167 37.0288567,91.0618653 C37.8099053,91.8429139 37.8099053,93.1092439 37.0288567,93.8902924 L29.218607,101.700542 C28.4375585,102.481591 27.1712285,102.481591 26.3901799,101.700542 C25.6091313,100.919494 25.6091313,99.6531636 26.3901799,98.872115 L34.2004296,91.0618653 Z M24.045361,62.545361 C25.1499305,62.545361 26.045361,63.4407915 26.045361,64.545361 C26.045361,65.6499305 25.1499305,66.545361 24.045361,66.545361 L13,66.545361 C11.8954305,66.545361 11,65.6499305 11,64.545361 C11,63.4407915 11.8954305,62.545361 13,62.545361 L24.045361,62.545361 Z M37.0288567,35.2004296 C37.8099053,35.9814782 37.8099053,37.2478081 37.0288567,38.0288567 C36.2478081,38.8099053 34.9814782,38.8099053 34.2004296,38.0288567 L26.3901799,30.218607 C25.6091313,29.4375585 25.6091313,28.1712285 26.3901799,27.3901799 C27.1712285,26.6091313 28.4375585,26.6091313 29.218607,27.3901799 L37.0288567,35.2004296 Z M64,95 C80.5685425,95 94,81.5685425 94,65 C94,48.4314575 80.5685425,35 64,35 C47.4314575,35 34,48.4314575 34,65 C34,81.5685425 47.4314575,95 64,95 Z M64,99 C45.2223185,99 30,83.7776815 30,65 C30,46.2223185 45.2223185,31 64,31 C82.7776815,31 98,46.2223185 98,65 C98,83.7776815 82.7776815,99 64,99 Z"/>
</svg>
