<svg xmlns="http://www.w3.org/2000/svg" width="128" height="128" viewBox="0 0 128 128">
  <path d="M105,70 C112.179702,70 118,75.8202983 118,83 C118,90.1797017 112.179702,96 105,96 C97.8202983,96 92,90.1797017 92,83 C92,75.8202983 97.8202983,70 105,70 Z M105,78 C102.238576,78 100,80.2385763 100,83 C100,85.7614237 102.238576,88 105,88 C107.761424,88 110,85.7614237 110,83 C110,80.2385763 107.761424,78 105,78 Z M23,70 C30.1797017,70 36,75.8202983 36,83 C36,90.1797017 30.1797017,96 23,96 C15.8202983,96 10,90.1797017 10,83 C10,75.8202983 15.8202983,70 23,70 Z M23,78 C20.2385763,78 18,80.2385763 18,83 C18,85.7614237 20.2385763,88 23,88 C25.7614237,88 28,85.7614237 28,83 C28,80.2385763 25.7614237,78 23,78 Z M37,26 C44.1797017,26 50,31.8202983 50,39 C50,46.1797017 44.1797017,52 37,52 C29.8202983,52 24,46.1797017 24,39 C24,31.8202983 29.8202983,26 37,26 Z M37,34 C34.2385763,34 32,36.2385763 32,39 C32,41.7614237 34.2385763,44 37,44 C39.7614237,44 42,41.7614237 42,39 C42,36.2385763 39.7614237,34 37,34 Z M93,26 C100.179702,26 106,31.8202983 106,39 C106,46.1797017 100.179702,52 93,52 C85.8202983,52 80,46.1797017 80,39 C80,31.8202983 85.8202983,26 93,26 Z M93,34 C90.2385763,34 88,36.2385763 88,39 C88,41.7614237 90.2385763,44 93,44 C95.7614237,44 98,41.7614237 98,39 C98,36.2385763 95.7614237,34 93,34 Z M65,16 C72.1797017,16 78,21.8202983 78,29 C78,36.1797017 72.1797017,42 65,42 C57.8202983,42 52,36.1797017 52,29 C52,21.8202983 57.8202983,16 65,16 Z M65,24 C62.2385763,24 60,26.2385763 60,29 C60,31.7614237 62.2385763,34 65,34 C67.7614237,34 70,31.7614237 70,29 C70,26.2385763 67.7614237,24 65,24 Z"/>
</svg>
