<svg xmlns="http://www.w3.org/2000/svg" width="128" height="128" viewBox="0 0 128 128">
  <path d="M34,22 L34,106 L94,106 L94,22 L34,22 Z M34,18 L94,18 C96.209139,18 98,19.790861 98,22 L98,106 C98,108.209139 96.209139,110 94,110 L34,110 C31.790861,110 30,108.209139 30,106 L30,22 C30,19.790861 31.790861,18 34,18 Z M80,88 L80,40 C80,36.6862915 77.3137085,34 74,34 L54,34 C50.6862915,34 48,36.6862915 48,40 L48,88 C48,91.3137085 50.6862915,94 54,94 L74,94 C77.3137085,94 80,91.3137085 80,88 Z M54,38 L74,38 C75.1045695,38 76,38.8954305 76,40 L76,60 C76,61.1045695 75.1045695,62 74,62 L54,62 C52.8954305,62 52,61.1045695 52,60 L52,40 C52,38.8954305 52.8954305,38 54,38 Z M54,66 L74,66 C75.1045695,66 76,66.8954305 76,68 L76,88 C76,89.1045695 75.1045695,90 74,90 L54,90 C52.8954305,90 52,89.1045695 52,88 L52,68 C52,66.8954305 52.8954305,66 54,66 Z"/>
</svg>
