<svg xmlns="http://www.w3.org/2000/svg" width="128" height="128" viewBox="0 0 128 128">
  <path d="M74.4345895,27.6568542 L26.5858144,75.5056294 C26.1664351,75.9250086 25.9548199,76.5088906 26.0081209,77.0995824 L27.9138489,98.2192255 L49.0334919,100.124953 C49.6241838,100.178254 50.2080657,99.9666392 50.6274449,99.54726 L98.4762201,51.6984848 L74.4345895,27.6568542 Z M48.674013,104.108768 L24.2300081,101.903066 L22.0243068,77.4590613 C21.8644038,75.6869858 22.4992496,73.93534 23.7573872,72.6772023 L74.4345895,22 L104.133074,51.6984848 L53.4558721,102.375687 C52.1977344,103.633825 50.4460886,104.268671 48.674013,104.108768 Z M40.493464,89.882251 C38.9313669,91.4443482 36.398707,91.4443482 34.8366098,89.882251 C33.2745126,88.3201538 33.2745126,85.7874939 34.8366098,84.2253967 C36.398707,82.6632996 38.9313669,82.6632996 40.493464,84.2253967 C42.0555612,85.7874939 42.0555612,88.3201538 40.493464,89.882251 Z"/>
</svg>
