<svg xmlns="http://www.w3.org/2000/svg" width="128" height="128" viewBox="0 0 128 128">
  <path fill-rule="evenodd" d="M25.6916556,19 L102.308344,19 C104.982901,19 105.952759,19.364477 106.930537,20.0488887 C107.908315,20.7333004 108.675681,21.7376467 109.198602,23.0173853 C109.721523,24.2971238 110,25.5664977 110,29.0670198 L110,97.9329802 C110,101.433502 109.721523,102.702876 109.198602,103.982615 C108.675681,105.262353 107.908315,106.2667 106.930537,106.951111 C105.952759,107.635523 104.982901,108 102.308344,108 L25.6916556,108 C23.0170994,108 22.0472407,107.635523 21.0694629,106.951111 C20.0916851,106.2667 19.3243194,105.262353 18.8013981,103.982615 C18.2784768,102.702876 18,101.433502 18,97.9329802 L18,29.0670198 C18,25.5664977 18.2784768,24.2971238 18.8013981,23.0173853 C19.3243194,21.7376467 20.0916851,20.7333004 21.0694629,20.0488887 C22.0472407,19.364477 23.0170994,19 25.6916556,19 Z M30,62.7294118 L32.7529412,65.4117647 L46.8705882,52.7058824 L32.7529412,40 L30,42.6823529 L41.1529412,52.6352941 L41.1529412,52.7764706 L30,62.7294118 Z M72,68.5176471 L49.4117647,68.5176471 L49.4117647,72.4 L72,72.4 L72,68.5176471 Z"/>
</svg>
