<svg xmlns="http://www.w3.org/2000/svg" width="128" height="128" viewBox="0 0 128 128">
  <g fill="none" fill-rule="evenodd">
    <path fill="#000" d="M56.672973,34.5027027 L45.6,34.5027027 C42.7513371,34.5027027 40.9211752,34.8932393 40.1094595,35.6743243 C39.2977437,36.4554093 38.8765767,38.8522322 38.8459459,42.8648649 L38.8,44.1513514 L32,44.1513514 L32,30 L95.4972973,30 L95.4972973,44.1513514 L88.6972973,44.1513514 L88.6513514,42.8648649 C88.6207206,38.8522322 88.1995536,36.4554093 87.3878378,35.6743243 C86.5761221,34.8932393 84.7459602,34.5027027 81.8972973,34.5027027 L70.8243243,34.5027027 L70.8243243,84.6756757 C71.0387398,89.2396625 71.3909885,91.8126097 71.8810811,92.3945946 C72.3711736,92.9765795 74.576557,93.405404 78.4972973,93.6810811 L79.3243243,93.727027 L79.3243243,98 L48.172973,98 L48.172973,93.727027 L49,93.6810811 C52.7369556,93.4360348 54.9499966,92.9076617 55.6391892,92.0959459 C56.3283818,91.2842302 56.672973,88.8108315 56.672973,84.6756757 L56.672973,34.5027027 Z"/>
    <polygon fill="#000" points="32 102 96 102 96 106 32 106"/>
  </g>
</svg>
