<svg xmlns="http://www.w3.org/2000/svg" width="128" height="128" viewBox="0 0 128 128">
  <path d="M34.7226987,30.2331808 C36.0242118,28.9807814 38.2646198,28.5027027 41.6,28.5027027 L54.672973,28.5027027 L54.672973,80.6756757 C54.672973,85.3486871 54.2956024,88.0573692 53.1637773,89.3904076 C52.0757626,90.6718472 49.8657374,91.2859275 46.172973,91.5987161 L46.172973,92 L73.3243243,92 L73.3243243,91.5982263 C69.3407331,91.2743964 67.2961382,90.8049105 66.3512587,89.6828661 C65.4242615,88.5820569 65.0730323,86.0165572 64.8243243,80.6756757 L64.8243243,28.5027027 L77.8972973,28.5027027 C81.2326775,28.5027027 83.4730855,28.9807814 84.7745986,30.2331808 C86.0747449,31.484265 86.5683982,33.9979296 86.642076,38.1513514 L89.4972973,38.1513514 L89.4972973,28 L30,28 L30,38.1513514 L32.8550531,38.1513514 C32.932708,33.9786142 33.4275524,31.4794536 34.7226987,30.2331808 Z M93.4972973,36 L101.497297,36 L101.497297,50.1513514 L94.6972973,50.1513514 L94.6513514,48.8648649 C94.6221286,45.0366786 94.2374475,42.6791702 93.4972973,41.7922772 L93.4972973,42.1513514 L82.7674508,42.1513514 L82.7085705,40.5027027 L76.8243243,40.5027027 L76.8243243,87.8072763 L77.3243243,87.8350541 L77.3243243,96 L77.2454542,96 C77.4223624,97.3032731 77.6342376,98.101468 77.8810811,98.3945946 C78.3711736,98.9765795 80.576557,99.405404 84.4972973,99.6810811 L85.3243243,99.727027 L85.3243243,104 L54.172973,104 L54.172973,99.727027 L55,99.6810811 C58.7369556,99.4360348 60.9499966,98.9076617 61.6391892,98.0959459 C61.948394,97.7317713 62.1882358,97.0331249 62.3587154,96 L42.172973,96 L42.172973,87.8350541 L44.0620329,87.7301063 L44.8691335,87.6853672 C46.6345373,87.569603 48.0171877,87.3898769 48.9980514,87.1556914 C49.7260817,86.981871 50.1132177,86.8031136 50.114601,86.8014843 C50.3611612,86.5110912 50.672973,84.2729759 50.672973,80.6756757 L50.672973,40.5176747 C48.350574,40.5959892 46.8294156,40.9815363 46.1094595,41.6743243 C45.2977437,42.4554093 44.8765767,44.8522322 44.8459459,48.8648649 L44.8,50.1513514 L38,50.1513514 L38,36 L50.672973,36 L50.672973,32.5027027 L41.6,32.5027027 C39.2380544,32.5027027 37.8181386,32.8056973 37.4962202,33.1154678 C37.4724699,33.1383219 37.2979589,33.5881462 37.1546159,34.4038987 C36.9660596,35.4769553 36.8604267,36.9755193 36.8446717,38.9362479 L36.7298465,42.1513514 L26,42.1513514 L26,24 L93.4972973,24 L93.4972973,36 Z M82.5374378,36 C82.487896,35.3921976 82.4227685,34.8596669 82.3426814,34.4038987 C82.1993384,33.5881462 82.0248274,33.1383219 82.0010771,33.1154678 C81.6791587,32.8056973 80.2592428,32.5027027 77.8972973,32.5027027 L68.8242363,32.5027027 L68.8240824,36 L82.5374378,36 Z"/>
</svg>
