<svg xmlns="http://www.w3.org/2000/svg" width="128" height="128" viewBox="0 0 128 128">
  <path fill-rule="evenodd" d="M33,24 L95,24 C95.5522847,24 96.069713,24.1492384 96.5141574,24.4095879 C96.9586019,24.6699375 97.3300625,25.0413981 97.5904121,25.4858426 C97.8507616,25.930287 98,26.4477153 98,27 C98,27.5522847 97.8507616,28.069713 97.5904121,28.5141574 C97.3300625,28.9586019 96.9586019,29.3300625 96.5141574,29.5904121 C96.069713,29.8507616 95.5522847,30 95,30 L33,30 C32.4477153,30 31.930287,29.8507616 31.4858426,29.5904121 C31.0413981,29.3300625 30.6699375,28.9586019 30.4095879,28.5141574 C30.1492384,28.069713 30,27.5522847 30,27 C30,26.4477153 30.1492384,25.930287 30.4095879,25.4858426 C30.6699375,25.0413981 31.0413981,24.6699375 31.4858426,24.4095879 C31.930287,24.1492384 32.4477153,24 33,24 Z M33,74 L95,74 C95.5522847,74 96.069713,74.1492384 96.5141574,74.4095879 C96.9586019,74.6699375 97.3300625,75.0413981 97.5904121,75.4858426 C97.8507616,75.930287 98,76.4477153 98,77 C98,77.5522847 97.8507616,78.069713 97.5904121,78.5141574 C97.3300625,78.9586019 96.9586019,79.3300625 96.5141574,79.5904121 C96.069713,79.8507616 95.5522847,80 95,80 L33,80 C32.4477153,80 31.930287,79.8507616 31.4858426,79.5904121 C31.0413981,79.3300625 30.6699375,78.9586019 30.4095879,78.5141574 C30.1492384,78.069713 30,77.5522847 30,77 C30,76.4477153 30.1492384,75.930287 30.4095879,75.4858426 C30.6699375,75.0413981 31.0413981,74.6699375 31.4858426,74.4095879 C31.930287,74.1492384 32.4477153,74 33,74 Z M33,48 L95,48 C95.5522847,48 96.069713,48.1492384 96.5141574,48.4095879 C96.9586019,48.6699375 97.3300625,49.0413981 97.5904121,49.4858426 C97.8507616,49.930287 98,50.4477153 98,51 C98,51.5522847 97.8507616,52.069713 97.5904121,52.5141574 C97.3300625,52.9586019 96.9586019,53.3300625 96.5141574,53.5904121 C96.069713,53.8507616 95.5522847,54 95,54 L33,54 C32.4477153,54 31.930287,53.8507616 31.4858426,53.5904121 C31.0413981,53.3300625 30.6699375,52.9586019 30.4095879,52.5141574 C30.1492384,52.069713 30,51.5522847 30,51 C30,50.4477153 30.1492384,49.930287 30.4095879,49.4858426 C30.6699375,49.0413981 31.0413981,48.6699375 31.4858426,48.4095879 C31.930287,48.1492384 32.4477153,48 33,48 Z M58.9636364,98 L95,98 C95.5522847,98 96.069713,98.1492384 96.5141574,98.4095879 C96.9586019,98.6699375 97.3300625,99.0413981 97.5904121,99.4858426 C97.8507616,99.930287 98,100.447715 98,101 C98,101.552285 97.8507616,102.069713 97.5904121,102.514157 C97.3300625,102.958602 96.9586019,103.330063 96.5141574,103.590412 C96.069713,103.850762 95.5522847,104 95,104 L58.9636364,104 C58.4113516,104 57.8939234,103.850762 57.4494789,103.590412 C57.0050345,103.330063 56.6335738,102.958602 56.3732243,102.514157 C56.1128748,102.069713 55.9636364,101.552285 55.9636364,101 C55.9636364,100.447715 56.1128748,99.930287 56.3732243,99.4858426 C56.6335738,99.0413981 57.0050345,98.6699375 57.4494789,98.4095879 C57.8939234,98.1492384 58.4113516,98 58.9636364,98 Z"/>
</svg>
