<svg xmlns="http://www.w3.org/2000/svg" width="128" height="128" viewBox="0 0 128 128">
  <path fill-rule="evenodd" d="M60.672973,34.5027027 L49.6,34.5027027 C46.7513371,34.5027027 44.9211752,34.8932393 44.1094595,35.6743243 C43.2977437,36.4554093 42.8765767,38.8522322 42.8459459,42.8648649 L42.8,44.1513514 L36,44.1513514 L36,30 L99.4972973,30 L99.4972973,44.1513514 L92.6972973,44.1513514 L92.6513514,42.8648649 C92.6207206,38.8522322 92.1995536,36.4554093 91.3878378,35.6743243 C90.5761221,34.8932393 88.7459602,34.5027027 85.8972973,34.5027027 L74.8243243,34.5027027 L74.8243243,84.6756757 C75.0387398,89.2396625 75.3909885,91.8126097 75.8810811,92.3945946 C76.3711736,92.9765795 78.576557,93.405404 82.4972973,93.6810811 L83.3243243,93.727027 L83.3243243,98 L52.172973,98 L52.172973,93.727027 L53,93.6810811 C56.7369556,93.4360348 58.9499966,92.9076617 59.6391892,92.0959459 C60.3283818,91.2842302 60.672973,88.8108315 60.672973,84.6756757 L60.672973,34.5027027 Z M39.4337838,73.7216216 L35.2,73.7216216 C34.1108054,73.7216216 33.4110376,73.8709445 33.1006757,74.1695946 C32.7903138,74.4682447 32.6292793,75.384677 32.6175676,76.9189189 L32.6,77.4108108 L30,77.4108108 L30,72 L54.2783784,72 L54.2783784,77.4108108 L51.6783784,77.4108108 L51.6608108,76.9189189 C51.649099,75.384677 51.4880646,74.4682447 51.1777027,74.1695946 C50.8673408,73.8709445 50.167573,73.7216216 49.0783784,73.7216216 L44.8445946,73.7216216 L44.8445946,92.9054054 C44.926577,94.6504592 45.0612603,95.6342331 45.2486486,95.8567568 C45.436037,96.0792804 46.2792718,96.2432427 47.7783784,96.3486486 L48.0945946,96.3662162 L48.0945946,98 L36.1837838,98 L36.1837838,96.3662162 L36.5,96.3486486 C37.928836,96.2549545 38.7749987,96.0529295 39.0385135,95.7425676 C39.3020283,95.4322057 39.4337838,94.4864944 39.4337838,92.9054054 L39.4337838,73.7216216 Z"/>
</svg>
