<svg xmlns="http://www.w3.org/2000/svg" width="128" height="128" viewBox="0 0 128 128">
  <path fill-rule="evenodd" d="M10,10 L120,10 L120,120 L10,120 L10,10 Z M56.672973,34.5027027 L56.672973,84.6756757 C56.672973,88.8108315 56.3283818,91.2842302 55.6391892,92.0959459 C54.9499966,92.9076617 52.7369556,93.4360348 49,93.6810811 L48.172973,93.727027 L48.172973,98 L79.3243243,98 L79.3243243,93.727027 L78.4972973,93.6810811 C74.576557,93.405404 72.3711736,92.9765795 71.8810811,92.3945946 C71.3909885,91.8126097 71.0387398,89.2396625 70.8243243,84.6756757 L70.8243243,34.5027027 L81.8972973,34.5027027 C84.7459602,34.5027027 86.5761221,34.8932393 87.3878378,35.6743243 C88.1995536,36.4554093 88.6207206,38.8522322 88.6513514,42.8648649 L88.6972973,44.1513514 L95.4972973,44.1513514 L95.4972973,30 L32,30 L32,44.1513514 L38.8,44.1513514 L38.8459459,42.8648649 C38.8765767,38.8522322 39.2977437,36.4554093 40.1094595,35.6743243 C40.9211752,34.8932393 42.7513371,34.5027027 45.6,34.5027027 L56.672973,34.5027027 Z"/>
</svg>
