<svg xmlns="http://www.w3.org/2000/svg" width="128" height="128" viewBox="0 0 128 128">
  <path fill-rule="evenodd" d="M33,24 L95,24 C95.5522847,24 96.069713,24.1492384 96.5141574,24.4095879 C96.9586019,24.6699375 97.3300625,25.0413981 97.5904121,25.4858426 C97.8507616,25.930287 98,26.4477153 98,27 C98,27.5522847 97.8507616,28.069713 97.5904121,28.5141574 C97.3300625,28.9586019 96.9586019,29.3300625 96.5141574,29.5904121 C96.069713,29.8507616 95.5522847,30 95,30 L33,30 C32.4477153,30 31.930287,29.8507616 31.4858426,29.5904121 C31.0413981,29.3300625 30.6699375,28.9586019 30.4095879,28.5141574 C30.1492384,28.069713 30,27.5522847 30,27 C30,26.4477153 30.1492384,25.930287 30.4095879,25.4858426 C30.6699375,25.0413981 31.0413981,24.6699375 31.4858426,24.4095879 C31.930287,24.1492384 32.4477153,24 33,24 Z M33,74 L95,74 C95.5522847,74 96.069713,74.1492384 96.5141574,74.4095879 C96.9586019,74.6699375 97.3300625,75.0413981 97.5904121,75.4858426 C97.8507616,75.930287 98,76.4477153 98,77 C98,77.5522847 97.8507616,78.069713 97.5904121,78.5141574 C97.3300625,78.9586019 96.9586019,79.3300625 96.5141574,79.5904121 C96.069713,79.8507616 95.5522847,80 95,80 L33,80 C32.4477153,80 31.930287,79.8507616 31.4858426,79.5904121 C31.0413981,79.3300625 30.6699375,78.9586019 30.4095879,78.5141574 C30.1492384,78.069713 30,77.5522847 30,77 C30,76.4477153 30.1492384,75.930287 30.4095879,75.4858426 C30.6699375,75.0413981 31.0413981,74.6699375 31.4858426,74.4095879 C31.930287,74.1492384 32.4477153,74 33,74 Z M46.6,48 L82.6363636,48 C83.1886484,48 83.7060766,48.1492384 84.1505211,48.4095879 C84.5949655,48.6699375 84.9664262,49.0413981 85.2267757,49.4858426 C85.4871252,49.930287 85.6363636,50.4477153 85.6363636,51 C85.6363636,51.5522847 85.4871252,52.069713 85.2267757,52.5141574 C84.9664262,52.9586019 84.5949655,53.3300625 84.1505211,53.5904121 C83.7060766,53.8507616 83.1886484,54 82.6363636,54 L46.6,54 C46.0477153,54 45.530287,53.8507616 45.0858426,53.5904121 C44.6413981,53.3300625 44.2699375,52.9586019 44.0095879,52.5141574 C43.7492384,52.069713 43.6,51.5522847 43.6,51 C43.6,50.4477153 43.7492384,49.930287 44.0095879,49.4858426 C44.2699375,49.0413981 44.6413981,48.6699375 45.0858426,48.4095879 C45.530287,48.1492384 46.0477153,48 46.6,48 Z M46.6,98 L82.6363636,98 C83.1886484,98 83.7060766,98.1492384 84.1505211,98.4095879 C84.5949655,98.6699375 84.9664262,99.0413981 85.2267757,99.4858426 C85.4871252,99.930287 85.6363636,100.447715 85.6363636,101 C85.6363636,101.552285 85.4871252,102.069713 85.2267757,102.514157 C84.9664262,102.958602 84.5949655,103.330063 84.1505211,103.590412 C83.7060766,103.850762 83.1886484,104 82.6363636,104 L46.6,104 C46.0477153,104 45.530287,103.850762 45.0858426,103.590412 C44.6413981,103.330063 44.2699375,102.958602 44.0095879,102.514157 C43.7492384,102.069713 43.6,101.552285 43.6,101 C43.6,100.447715 43.7492384,99.930287 44.0095879,99.4858426 C44.2699375,99.0413981 44.6413981,98.6699375 45.0858426,98.4095879 C45.530287,98.1492384 46.0477153,98 46.6,98 Z"/>
</svg>
