<svg xmlns="http://www.w3.org/2000/svg" width="128" height="128" viewBox="0 0 128 128">
  <path fill-rule="evenodd" d="M65.3439964,98 L38,98 L38,30 L63.0002253,30 C71.0732551,30 77.0845338,31.7376128 81.0342419,35.2128906 C84.9839501,38.6881684 86.9587745,43.1484103 86.9587745,48.59375 C86.9587745,52.2239765 86.0364664,55.289701 84.1918225,57.7910156 C82.3471786,60.2923302 79.3632406,61.9746051 75.2399189,62.8378906 L75.2399189,63.3359375 C79.2113287,63.8671902 82.374303,65.604803 84.7289367,68.5488281 C87.0835704,71.4928533 88.2608696,75.1562281 88.2608696,79.5390625 C88.2608696,85.0508088 86.2968958,89.5055169 82.3688894,92.9033203 C78.440883,96.3011238 72.7659754,98 65.3439964,98 Z M53.1043028,42.75 L53.1043028,58.2890625 L61.6981302,58.2890625 C65.3440146,58.2890625 67.9698801,57.6748108 69.5758054,56.4462891 C71.1817306,55.2177673 71.9846812,53.3086067 71.9846812,50.71875 C71.9846812,49.3463473 71.7188395,48.0514384 71.187148,46.8339844 C70.6554565,45.6165304 69.711447,44.6315142 68.3550912,43.8789062 C66.9987354,43.1262983 65.0835898,42.75 62.6095968,42.75 L53.1043028,42.75 Z M73.4169858,77.4140625 C73.4169858,75.0898321 72.7442434,73.0921308 71.3987385,71.4208984 C70.0532335,69.7496661 67.8179926,68.9140625 64.6929489,68.9140625 L53.1043028,68.9140625 L53.1043028,85.25 L64.1721108,85.25 C67.4273648,85.25 69.7819631,84.5582751 71.2359766,83.1748047 C72.68999,81.7913342 73.4169858,79.871106 73.4169858,77.4140625 Z"/>
</svg>
