<svg xmlns="http://www.w3.org/2000/svg" width="128" height="128" viewBox="0 0 128 128">
  <path d="M62,90.1159252 L60.7275465,90.6128557 C57.3020893,91.9505974 55,95.2601032 55,99 C55,103.970563 59.0294373,108 64,108 C68.9705627,108 73,103.970563 73,99 C73,95.2601032 70.6979107,91.9505974 67.2724535,90.6128557 L66,90.1159252 L66,22 C66,20.8954305 65.1045695,20 64,20 C62.8954305,20 62,20.8954305 62,22 L62,90.1159252 Z M58,22 C58,18.6862915 60.6862915,16 64,16 C67.3137085,16 70,18.6862915 70,22 L70,87.4643124 C74.2368893,89.6687207 77,94.076107 77,99 C77,106.179702 71.1797017,112 64,112 C56.8202983,112 51,106.179702 51,99 C51,94.076107 53.7631107,89.6687207 58,87.4643124 L58,22 Z"/>
</svg>
