<svg xmlns="http://www.w3.org/2000/svg" width="128" height="128" viewBox="0 0 128 128">
  <path d="M54,20 L54,12 L74,12 L74,20 L98,20 C101.313708,20 104,22.6862915 104,26 C104,28.6124377 102.330385,30.8349158 100,31.6585886 L100,110 C100,113.313708 97.3137085,116 94,116 L34,116 C30.6862915,116 28,113.313708 28,110 L28,31.6585886 C25.6696153,30.8349158 24,28.6124377 24,26 C24,22.6862915 26.6862915,20 30,20 L54,20 Z M32,32 L32,110 C32,111.104569 32.8954305,112 34,112 L94,112 C95.1045695,112 96,111.104569 96,110 L96,32 L32,32 Z M30,24 C28.8954305,24 28,24.8954305 28,26 C28,27.1045695 28.8954305,28 30,28 L98,28 C99.1045695,28 100,27.1045695 100,26 C100,24.8954305 99.1045695,24 98,24 L30,24 Z M58,16 L58,20 L70,20 L70,16 L58,16 Z M46,104 C47.1045695,104 48,104.895431 48,106 C48,107.104569 47.1045695,108 46,108 C42.4577697,108 40,104.201629 40,99.8181818 L40,44.1818182 C40,39.7983714 42.4577697,36 46,36 C47.1045695,36 48,36.8954305 48,38 C48,39.1045695 47.1045695,40 46,40 C45.1239523,40 44,41.7370171 44,44.1818182 L44,99.8181818 C44,102.262983 45.1239523,104 46,104 Z M66,104 C67.1045695,104 68,104.895431 68,106 C68,107.104569 67.1045695,108 66,108 C62.4577697,108 60,104.201629 60,99.8181818 L60,44.1818182 C60,39.7983714 62.4577697,36 66,36 C67.1045695,36 68,36.8954305 68,38 C68,39.1045695 67.1045695,40 66,40 C65.1239523,40 64,41.7370171 64,44.1818182 L64,99.8181818 C64,102.262983 65.1239523,104 66,104 Z M86,104 C87.1045695,104 88,104.895431 88,106 C88,107.104569 87.1045695,108 86,108 C82.4577697,108 80,104.201629 80,99.8181818 L80,44.1818182 C80,39.7983714 82.4577697,36 86,36 C87.1045695,36 88,36.8954305 88,38 C88,39.1045695 87.1045695,40 86,40 C85.1239523,40 84,41.7370171 84,44.1818182 L84,99.8181818 C84,102.262983 85.1239523,104 86,104 Z"/>
</svg>
