<svg xmlns="http://www.w3.org/2000/svg" width="128" height="128" viewBox="0 0 128 128">
  <path d="M21,32 C20.4477153,32 20,32.4477153 20,33 L20,83.8539326 C20,84.4062173 20.4477153,84.8539326 21,84.8539326 L107,84.8539326 C107.552285,84.8539326 108,84.4062173 108,83.8539326 L108,33 C108,32.4477153 107.552285,32 107,32 L21,32 Z M21,28 L107,28 C109.761424,28 112,30.2385763 112,33 L112,83.8539326 C112,86.6153563 109.761424,88.8539326 107,88.8539326 L21,88.8539326 C18.2385763,88.8539326 16,86.6153563 16,83.8539326 L16,33 C16,30.2385763 18.2385763,28 21,28 Z M43,93 L85,93 L85,101 L43,101 L43,93 Z"/>
</svg>
