<svg xmlns="http://www.w3.org/2000/svg" width="128" height="128" viewBox="0 0 128 128">
  <path d="M98.5,55 C101.750884,55 104.753604,56.1552936 107.097705,58.0916532 C102.979161,38.061944 85.2485334,23 64,23 C42.7514666,23 25.0208387,38.061944 20.9022952,58.0916532 C23.246396,56.1552936 26.2491163,55 29.5,55 C34.3297365,55 38.6117238,57.5499776 41,61.4227712 C43.3882762,57.5499776 47.6702635,55 52.5,55 C57.3297365,55 61.6117238,57.5499776 64,61.4227712 C66.3882762,57.5499776 70.6702635,55 75.5,55 C80.3297365,55 84.6117238,57.5499776 87,61.4227712 C89.3882762,57.5499776 93.6702635,55 98.5,55 Z M87.0969397,69 C85.8983578,69 85.0495944,68.2546279 84.9198157,67.2583425 C84.3076605,62.5589481 80.2849892,59 75.5,59 C70.7150108,59 66.6923395,62.5589481 66.0801843,67.2583425 C65.9504056,68.2546279 65.1016422,69 64.0969397,69 C62.8983578,69 62.0495944,68.2546279 61.9198157,67.2583425 C61.3076605,62.5589481 57.2849892,59 52.5,59 C47.7150108,59 43.6923395,62.5589481 43.0801843,67.2583425 C42.9504056,68.2546279 42.1016422,69 41.0969397,69 C39.8983578,69 39.0495944,68.2546279 38.9198157,67.2583425 C38.3076605,62.5589481 34.2849892,59 29.5,59 C24.7150108,59 20.6923395,62.5589481 20.0801843,67.2583425 C19.9504056,68.2546279 19.1016422,69 18.0969397,69 C16.8954305,69 16,68.1045695 16,67 C16,40.490332 37.490332,19 64,19 C90.509668,19 112,40.490332 112,67 C112,68.1045695 111.104569,69 110,69 C108.898358,69 108.049594,68.2546279 107.919816,67.2583425 C107.307661,62.5589481 103.284989,59 98.5,59 C93.7150108,59 89.6923395,62.5589481 89.0801843,67.2583425 C88.9504056,68.2546279 88.1016422,69 87.0969397,69 Z M66.1534542,22 L62.1534542,22 L62.1534542,19 C62.1534542,17.8954305 63.0488847,17 64.1534542,17 C65.2580237,17 66.1534542,17.8954305 66.1534542,19 L66.1534542,22 Z M66.1534542,62 L66.1534542,99 C66.1534542,106.179702 60.2988041,112 53.0767271,112 C45.8546501,112 40,106.179702 40,99 C40,97.8954157 40.8954425,96.9999731 42.0000269,96.9999731 L42.1534542,97 C43.1884347,97 44.0274522,97.8390175 44.0274522,98.873998 C44.0274522,98.9074013 44.0265591,98.9407986 44.0247739,98.9741541 C44.0239875,98.9883226 44.0236083,98.9969384 44.0236083,99 C44.0236083,103.970563 48.0768277,108 53.0767271,108 C58.0766265,108 62.1298459,103.970563 62.1298459,99 C62.1298459,98.775194 62.1377153,98.4418607 62.1534542,98 L62.1534542,62 L66.1534542,62 Z"/>
</svg>
