<svg xmlns="http://www.w3.org/2000/svg" width="128" height="128" viewBox="0 0 128 128">
  <path d="M67.9896256,31.284454 L68.0208153,31.4558441 L77.3345238,40.7695526 C78.1155724,41.5506012 78.1155724,42.8169312 77.3345238,43.5979797 C76.5534752,44.3790283 75.2871452,44.3790283 74.5060967,43.5979797 L62.6043848,31.6962678 C61.1660228,30.2579059 61.1660228,27.9258603 62.6043848,26.4874983 L74.5060967,14.5857864 C75.2871452,13.8047379 76.5534752,13.8047379 77.3345238,14.5857864 C78.1155724,15.366835 78.1155724,16.633165 77.3345238,17.4142136 L67.5053915,27.2433458 C90.0876121,28.5407223 108,47.2643164 108,70.1715729 C108,93.9198171 88.7482442,113.171573 65,113.171573 C41.5859935,113.171573 22.5427971,94.4579101 22.0113992,71.1715729 L22,71.1715729 C22,70.0670034 22.8954305,69.1715729 24,69.1715729 C25.1045695,69.1715729 26,70.0670034 26,71.1715729 L26.0125708,71.1715729 C26.5430428,92.2485314 43.7952274,109.171573 65,109.171573 C86.5391052,109.171573 104,91.7106781 104,70.1715729 C104,49.6383582 88.1318948,32.8113382 67.9896256,31.284454 Z"/>
</svg>
