<svg xmlns="http://www.w3.org/2000/svg" width="128" height="128" viewBox="0 0 128 128">
  <path d="M64,20 C39.699471,20 20,39.699471 20,64 C20,88.300529 39.699471,108 64,108 C88.300529,108 108,88.300529 108,64 C108,39.699471 88.300529,20 64,20 Z M64,16 C90.509668,16 112,37.490332 112,64 C112,90.509668 90.509668,112 64,112 C37.490332,112 16,90.509668 16,64 C16,37.490332 37.490332,16 64,16 Z M43.5948752,63.8 C41.8991999,63.8 40.9728877,61.822285 42.0584326,60.5196312 L62.4635574,36.0334814 C63.2631477,35.0739731 64.7368523,35.0739731 65.5364426,36.0334814 L85.9415674,60.5196312 C87.0271123,61.822285 86.1008001,63.8 84.4051248,63.8 L77,63.8 L77,87 C77,88.1045695 76.1045695,89 75,89 L53,89 C51.8954305,89 51,88.1045695 51,87 L51,63.8 L43.5948752,63.8 Z M64,40.4379501 L47.8649584,59.8 L53,59.8 C54.1045695,59.8 55,60.6954305 55,61.8 L55,85 L73,85 L73,61.8 C73,60.6954305 73.8954305,59.8 75,59.8 L80.1350416,59.8 L64,40.4379501 Z"/>
</svg>
