<svg xmlns="http://www.w3.org/2000/svg" width="128" height="128" viewBox="0 0 128 128">
  <path fill-rule="evenodd" d="M67.996024,23.2607031 C70.1758041,22.4456327 72.5358623,22 75.0000035,22 C86.0456906,22 94.9999948,30.954305 94.9999948,42 C94.9999948,50.5830532 86.4999955,60 81.9999959,65.979047 C81.9999959,69.9193634 91.584493,75.7708416 110.753487,83.5334816 C114.529139,85.0624622 116.999998,88.7288267 116.999999,92.8023174 L117,106 L99,106 L98.9999993,92.8023172 C98.9999973,87.0994298 95.5407946,81.9665201 90.2548834,79.8259474 C80.8549495,76.0193678 73.8449411,72.7002897 69.2726866,69.9088603 C67.1370172,68.6050023 65.5902894,67.4489394 64.6575031,66.4965509 C65.9211445,64.8709281 67.6255179,62.6789502 68.344435,61.7160153 C72.0806263,56.7116702 74.5531994,52.5487735 75.9254184,48.3263038 C76.627419,46.1661705 76.9999948,44.0603819 76.9999948,42 C76.9999948,34.4190177 73.4850743,27.6589883 67.996024,23.2607031 Z M11,106 L11.0000007,92.8023174 C11.0000021,88.7288267 13.4708615,85.0624622 17.2465127,83.5334816 C36.415507,75.7708416 46.0000041,69.9193634 46.0000041,65.979047 C41.5000045,60 33.0000052,50.5830532 33.0000052,42 C33.0000052,30.954305 41.9543094,22 53.0000035,22 C64.0456906,22 72.9999948,30.954305 72.9999948,42 C72.9999948,50.5830532 64.4999955,60 59.9999959,65.979047 C59.9999959,69.9193634 69.584493,75.7708416 88.7534873,83.5334816 C92.5291385,85.0624622 94.9999979,88.7288267 94.9999993,92.8023174 L95,106 L11,106 Z"/>
</svg>
