<svg xmlns="http://www.w3.org/2000/svg" width="128" height="128" viewBox="0 0 128 128">
  <path d="M92,52.0279295 L100.293071,45.5119453 C102.8987,43.4646648 106.67063,43.9172963 108.71791,46.5229261 C109.548499,47.5800394 110,48.8854719 110,50.2298554 L110,77.7701446 C110,81.0838531 107.313708,83.7701446 104,83.7701446 C102.655617,83.7701446 101.350184,83.3186437 100.293071,82.4880547 L92,75.9720705 L92,82 C92,85.3137085 89.3137085,88 86,88 L26,88 C22.6862915,88 20,85.3137085 20,82 L20,46 C20,42.6862915 22.6862915,40 26,40 L86,40 C89.3137085,40 92,42.6862915 92,46 L92,52.0279295 Z M26,44 C24.8954305,44 24,44.8954305 24,46 L24,82 C24,83.1045695 24.8954305,84 26,84 L86,84 C87.1045695,84 88,83.1045695 88,82 L88,46 C88,44.8954305 87.1045695,44 86,44 L26,44 Z M92,70.8850723 L102.764357,79.3427813 C103.116728,79.6196443 103.551872,79.7701446 104,79.7701446 C105.104569,79.7701446 106,78.8747141 106,77.7701446 L106,50.2298554 C106,49.7817276 105.8495,49.3465834 105.572637,48.9942123 C104.89021,48.125669 103.6329,47.9747919 102.764357,48.6572187 L92,57.1149277 L92,70.8850723 Z"/>
</svg>
