<svg xmlns="http://www.w3.org/2000/svg" width="128" height="128" viewBox="0 0 128 128">
  <path d="M67.1055728,24.2120218 L106.633437,103.26775 C107.621394,105.243664 106.820496,107.646356 104.844582,108.634313 C104.289161,108.912024 103.676708,109.056604 103.055728,109.056604 L24,109.056604 C21.790861,109.056604 20,107.265743 20,105.056604 C20,104.435624 20.1445804,103.823172 20.4222912,103.26775 L59.9501553,24.2120218 C60.9381123,22.2361079 63.3408044,21.4352105 65.3167184,22.4231675 C66.090828,22.8102223 66.718518,23.4379122 67.1055728,24.2120218 Z M63.527864,30.4730122 L27.236068,103.056604 L99.8196601,103.056604 L63.527864,30.4730122 Z M66.2840909,46.5454545 L65.8011364,82.0909091 L60.1988636,82.0909091 L59.7159091,46.5454545 L66.2840909,46.5454545 Z M63,96.7727273 C61.6960162,96.7727273 60.5973056,96.3259988 59.7038352,95.4325284 C58.8103649,94.539058 58.3636364,93.4403474 58.3636364,92.1363636 C58.3636364,90.8323798 58.8103649,89.7175709 59.7038352,88.7919034 C60.5973056,87.8662359 61.6960162,87.4034091 63,87.4034091 C64.2556881,87.4034091 65.342325,87.8662359 66.2599432,88.7919034 C67.1775614,89.7175709 67.6363636,90.8323798 67.6363636,92.1363636 C67.6363636,93.4403474 67.1775614,94.539058 66.2599432,95.4325284 C65.342325,96.3259988 64.2556881,96.7727273 63,96.7727273 Z"/>
</svg>
