<svg xmlns="http://www.w3.org/2000/svg" width="128" height="128" viewBox="0 0 128 128">
  <path d="M19,47 L19,86.0475921 C19,87.7044463 17.6568542,89.0475921 16,89.0475921 C14.3431458,89.0475921 13,87.7044463 13,86.0475921 L13,44 C13,42.3431458 14.3431458,41 16,41 L64.0000236,41 C65.6568778,41 67.0000236,42.3431458 67.0000236,44 L67.0000236,83.0951292 L114.038107,83.0951292 C115.694961,83.0951292 117.038107,84.438275 117.038107,86.0951292 C117.038107,87.7519835 115.694961,89.0951292 114.038107,89.0951292 L64.0000236,89.0951292 C62.3431693,89.0951292 61.0000236,87.7519835 61.0000236,86.0951292 L61.0000236,47 L19,47 Z"/>
</svg>
