<svg xmlns="http://www.w3.org/2000/svg" width="128" height="128" viewBox="0 0 128 128">
  <path d="M24.078162,55.9111344 C24.0952252,55.90314 24.1084845,55.8955073 24.117914,55.8887666 C24.1138726,55.8916556 24.1097594,55.8946557 24.1055755,55.8977667 L24.078162,55.9111344 Z M21.8090792,59.5187953 C21.3124049,60.5792896 20.8447922,61.731248 20.424393,62.8851793 C20.1724213,63.576803 19.9946913,64.1079772 19.9052635,64.3943227 C19.4113427,65.9758436 17.7288648,66.8575176 16.1473439,66.3635968 C14.5658231,65.869676 13.684149,64.1871981 14.1780698,62.6056773 C14.2937342,62.235323 14.5005328,61.6172726 14.7868697,60.8313218 C15.2636515,59.5226289 15.7956879,58.2119632 16.3754746,56.9740083 C18.4414625,52.562731 20.4326308,50.0081944 23.5800165,49.9928575 C23.7341383,49.9921065 23.8882941,49.999208 24.042084,50.0142527 C26.1105396,50.2166016 27.3273948,51.5889923 28.1145879,53.5752014 C28.5258217,54.6128074 28.7764154,55.6215631 29.1937921,57.6436891 C29.2722522,58.0247187 29.2722522,58.0247187 29.3497506,58.3993521 C29.4221185,58.7475589 29.4900419,59.0643698 29.5548251,59.3540399 C29.6044376,59.2062309 29.6547746,59.05386 29.7058359,58.8969286 C30.1197776,57.6247236 30.3491717,56.846936 31.2646748,53.6701209 C32.3905028,49.763474 33.0025428,47.8209714 33.7494721,46.0066032 C35.1869041,42.5149327 36.6210529,40.6494109 39.4754616,41.0257377 C42.3149043,41.4000913 42.8646945,43.0869138 44.2918838,50.0662541 C44.9681861,53.373555 45.4802557,56.3835193 46.799481,64.5233459 C46.9582709,65.5031049 47.0619548,66.1416355 47.1683185,66.7939708 C47.9609377,71.6551531 48.5334247,74.9682754 49.0563901,77.5948156 C49.1905397,76.9383849 49.3377488,76.1986638 49.5031646,75.3548609 C49.544355,75.1446944 49.544355,75.1446944 49.5856414,74.9339997 C50.3658573,70.9529577 50.7570655,69.1674159 51.308335,67.3746319 C52.393386,63.8459367 53.5968742,61.9184829 56.4212508,62.0012891 C59.4346077,62.0896359 60.2521789,63.4872537 62.784119,69.4608644 C62.8629092,69.6468592 62.8629092,69.6468592 62.9412049,69.8318828 C63.1865331,70.4116093 63.3944813,70.8982929 63.5765423,71.3159165 C63.9249235,70.0683579 64.3198609,68.460224 64.9481258,65.8089443 C65.0639379,65.3201755 65.0639379,65.3201755 65.1801582,64.8308589 C65.9792255,61.470913 66.4668603,59.6003444 67.0124493,57.9704445 C68.1482457,54.5773514 69.0806392,52.9996075 71.6671226,53.0000006 C71.8787871,53.0042485 71.8787871,53.0042485 72.0859865,53.0246531 C74.3466266,53.2910538 75.3076823,54.797206 76.4702045,57.8281951 C77.0517101,59.344327 77.5152329,60.845977 78.4760261,64.1731147 C78.7248012,65.0345999 78.934658,65.7564451 79.1175174,66.3757483 C79.4420024,64.8135709 79.8128724,62.8333026 80.3304543,59.9703069 C80.8430298,57.1350043 80.9636266,56.4745984 81.199352,55.2370761 C81.754775,52.3211899 82.2124249,50.2516159 82.6772616,48.6861437 C83.6737917,45.3300398 84.4859423,43.8486925 87.1742081,44.0050622 C89.5654263,44.1441535 90.7342755,45.7694857 91.9625155,48.7590506 C92.6087146,50.3319146 93.1450217,52.0067384 94.1045829,55.2714943 C94.8930548,57.9541461 95.2340473,59.0915562 95.5634692,60.0602653 C95.6055202,59.9871149 95.6483226,59.9122931 95.6918937,59.8357751 C95.8166167,59.6167413 95.9460576,59.3870843 96.1140877,59.0872318 C97.4078713,56.7784533 97.7078946,56.262747 98.2989648,55.4203664 C99.9121205,53.1213316 101.426078,51.9455514 103.885672,53.4328535 C106.719369,55.1463735 108.64656,58.4805195 110.082012,62.9945221 C110.724821,65.015936 111.223224,67.1564539 111.599484,69.2934329 C111.825328,70.5761173 111.961911,71.5839628 112.025232,72.1864076 C112.198424,73.834185 111.003037,75.3103726 109.355259,75.4835649 C107.707482,75.6567573 106.231294,74.4613699 106.058102,72.8135924 C106.047023,72.7081881 106.020514,72.4859847 105.976896,72.1641291 C105.902395,71.6143832 105.807403,70.9984971 105.690379,70.3338547 C105.357155,68.4412994 104.917312,66.5522831 104.364156,64.8127983 C103.762629,62.9212019 103.069559,61.3679933 102.347374,60.25191 C102.103837,60.6747816 101.789359,61.2332454 101.348285,62.0203493 C101.174123,62.331145 101.038517,62.5717398 100.90585,62.8047237 C99.9782511,64.4337389 99.308886,65.4801727 98.5942681,66.3083149 C96.9718121,68.1885145 94.8614523,69.1152797 92.7160767,67.2792985 C91.6699997,66.384081 90.9793919,65.036901 90.2045878,62.9048471 C89.6872557,61.4812876 89.3998609,60.5419572 88.3480744,56.9634193 C88.0273169,55.8720923 87.7575263,54.9719334 87.5186895,54.2058997 C87.3838561,54.8601615 87.2426051,55.5763575 87.0933774,56.3597802 C86.8626723,57.5709466 86.74331,58.2245926 86.2347462,61.0377045 C85.3272007,66.057777 84.8568389,68.4474429 84.2826477,70.6882592 C83.8942516,72.203999 83.5122357,73.377312 83.0863021,74.2713913 C82.1869051,76.1593196 80.9631123,77.3863744 78.7437022,76.9414858 C76.6508495,76.5219661 75.7761621,75.0714199 74.6670682,72.1000941 C74.1124217,70.6141642 73.7111629,69.2992579 72.7115655,65.8377451 C72.3605344,64.6221567 72.0798162,63.6646181 71.8388491,62.8725199 C71.6025714,63.7884301 71.3364235,64.8774408 71.0173554,66.2190697 C70.9021237,66.7042237 70.9021237,66.7042237 70.7864444,67.1924314 C69.8322066,71.2193173 69.3930269,72.9438422 68.8226352,74.7010558 C67.5883515,78.5035313 66.6055195,80.1996978 63.7799889,79.9919222 C60.8087761,79.7734339 60.1157498,78.5508232 57.4156041,72.1702017 C57.3374786,71.9855805 57.3374786,71.9855805 57.2598575,71.8023459 C57.0405964,71.2850428 56.8485603,70.8383949 56.6761717,70.4471406 C56.3505803,71.7185916 56.0094502,73.3539293 55.4736302,76.0879444 C55.432398,76.2983619 55.432398,76.2983619 55.3910942,76.5091074 C54.6178635,80.4534361 54.2182543,82.2625339 53.6641251,84.0133733 C52.5175923,87.6359843 51.113821,89.6662715 47.972022,88.9184709 C44.6756064,88.1338689 44.2492774,86.1756255 41.2465192,67.7595243 C41.1397758,67.1048599 41.0358345,66.4647443 40.8767623,65.4832435 C39.5731708,57.4398796 39.0663658,54.4608608 38.4135275,51.2683056 C38.390863,51.1574702 38.3683233,51.0481567 38.3459093,50.9403702 C37.9857086,52.0596884 37.5711057,53.454106 37.0300443,55.3316006 C36.0913488,58.5888936 35.8556449,59.3880754 35.4114138,60.7533717 C33.5774154,66.3899681 32.4125141,68.519662 29.0128466,67.9601832 C25.5783878,67.3949789 24.6286262,65.1697115 23.4752788,59.6202456 C23.3952522,59.2333933 23.3952522,59.2333933 23.3176571,58.8565522 C23.1892108,58.2342496 23.0807035,57.7315279 22.9828512,57.3148231 C22.6034055,57.9237634 22.2069638,58.669236 21.8090792,59.5187953 Z M37.0318272,46.0486738 C37.0239963,46.0330449 37.0167197,46.0193091 37.0100365,46.0075151 C37.0123207,46.0115461 37.01476,46.0157318 37.0173672,46.0200761 L37.0318272,46.0486738 Z M88.8828229,49.1308832 C88.8900955,49.1201364 88.8955839,49.1110918 88.8996582,49.1036605 C88.8977551,49.1071317 88.8958347,49.1106753 88.8938972,49.1142912 L88.8828229,49.1308832 Z M30.5020169,62.2558438 C30.5142909,62.2732005 30.5250295,62.2867346 30.5340305,62.2964221 C30.5306907,62.2928276 30.5272044,62.2892089 30.5235743,62.2855706 L30.5020169,62.2558438 Z"/>
</svg>
