<svg xmlns="http://www.w3.org/2000/svg" width="128" height="128" viewBox="0 0 128 128">
  <path d="M19,46.9524079 L19,86 C19,87.6568542 17.6568542,89 16,89 C14.3431458,89 13,87.6568542 13,86 L13,43.9524079 C13,42.2955537 14.3431458,40.9524079 16,40.9524079 L90,40.9524079 C91.6568542,40.9524079 93,42.2955537 93,43.9524079 L93,83.0475372 L114.038107,83.0475372 C115.694961,83.0475372 117.038107,84.3906829 117.038107,86.0475372 C117.038107,87.7043914 115.694961,89.0475372 114.038107,89.0475372 L90,89.0475372 C88.3431458,89.0475372 87,87.7043914 87,86.0475372 L87,46.9524079 L19,46.9524079 Z"/>
</svg>
