<svg xmlns="http://www.w3.org/2000/svg" width="128" height="128" viewBox="0 0 128 128">
  <path d="M19,46.9524079 L19,86 C19,87.6568542 17.6568542,89 16,89 C14.3431458,89 13,87.6568542 13,86 L13,43.9524079 C13,42.2955537 14.3431458,40.9524079 16,40.9524079 L40,40.9524079 C41.6568542,40.9524079 43,42.2955537 43,43.9524079 L43,83.0475372 L114.038107,83.0475372 C115.694961,83.0475372 117.038107,84.3906829 117.038107,86.0475372 C117.038107,87.7043914 115.694961,89.0475372 114.038107,89.0475372 L40,89.0475372 C38.3431458,89.0475372 37,87.7043914 37,86.0475372 L37,46.9524079 L19,46.9524079 Z"/>
</svg>
