<svg xmlns="http://www.w3.org/2000/svg" width="128" height="128" viewBox="0 0 128 128">
  <path d="M17,64 C17,65.6568542 15.6568542,67 14,67 C12.3431458,67 11,65.6568542 11,64 C11,50.1928813 22.1928813,39 36,39 L40.952459,39 C54.2335622,39 65.0000236,49.7664614 65.0000236,63.0475646 C65.0000236,73.0149593 73.0801935,81.0951292 83.0475882,81.0951292 L87.0190651,81.0951292 C99.1798459,81.0951292 109.038107,71.2368686 109.038107,59.0760877 L109.038107,58 C109.038107,56.3431458 110.381252,55 112.038107,55 C113.694961,55 115.038107,56.3431458 115.038107,58 L115.038107,59.0760877 C115.038107,74.5505771 102.493554,87.0951292 87.0190651,87.0951292 L83.0475882,87.0951292 C69.766485,87.0951292 59.0000236,76.3286678 59.0000236,63.0475646 C59.0000236,53.0801699 50.9198537,45 40.952459,45 L36,45 C25.5065898,45 17,53.5065898 17,64 Z"/>
</svg>
