<svg xmlns="http://www.w3.org/2000/svg" width="128" height="128" viewBox="0 0 128 128">
  <path d="M19,50.6113047 L19,86 C19,87.6568542 17.6568542,89 16,89 C14.3431458,89 13,87.6568542 13,86 L13,44 C13,41.4225236 16.0357651,40.0449898 17.9755138,41.7422699 L61,79.3886953 L61,44 C61,41.4225236 64.0357651,40.0449898 65.9755138,41.7422699 L113.975514,83.7422699 C115.222424,84.8333161 115.348776,86.7286039 114.25773,87.9755138 C113.166684,89.2224237 111.271396,89.3487762 110.024486,88.2577301 L67,50.6113047 L67,86 C67,88.5774764 63.9642349,89.9550102 62.0244862,88.2577301 L19,50.6113047 Z"/>
</svg>
