<svg xmlns="http://www.w3.org/2000/svg" width="128" height="128" viewBox="0 0 128 128">
  <path d="M64.6672351,105.510565 L8,47.2672399 C39.3662962,16.1634328 90.0079378,16.2444641 121.273806,47.5103326 C121.51777,47.7542959 121.759834,47.9994388 122,48.2457431 L64.6672351,105.510565 Z M68,38 L60,38 L60.5882353,73.5454545 L67.4117647,73.5454545 L68,38 Z M64,88 C65.0833387,88 66.0208294,87.6185605 66.8125,86.8556701 C67.6041706,86.0927797 68,85.1546447 68,84.0412371 C68,82.9278295 67.6041706,81.975949 66.8125,81.185567 C66.0208294,80.3951851 65.0833387,80 64,80 C62.8749944,80 61.9270872,80.3951851 61.15625,81.185567 C60.3854128,81.975949 60,82.9278295 60,84.0412371 C60,85.1546447 60.3854128,86.0927797 61.15625,86.8556701 C61.9270872,87.6185605 62.8749944,88 64,88 Z"/>
</svg>
