<svg xmlns="http://www.w3.org/2000/svg" width="128" height="128" viewBox="0 0 128 128">
  <path d="M19.4963407,53.1067262 C45.5356449,30.1495714 84.8949431,30.4740096 110.55925,54.0296392 L116.307701,48.2811876 C87.4612816,21.5604056 42.9663355,21.2357106 13.7423431,47.3527288 L19.4963407,53.1067262 Z M8,47.2672399 C39.3662962,16.1634328 90.0079378,16.2444641 121.273806,47.5103326 C121.51777,47.7542959 121.759834,47.9994388 122,48.2457431 L110.598329,59.6474145 C110.359028,59.4004329 110.11735,59.1548999 109.873295,58.9108443 C84.9037654,33.941315 44.4704797,33.8603269 19.4006411,58.6678809 L8,47.2672399 Z M30,69.9245731 C48.5660975,51.3584756 78.667689,51.3584756 97.2337865,69.9245731 C97.5596927,70.2504793 97.8798779,70.57994 98.1943423,70.9128304 L86.7866925,82.3204725 C86.4775745,81.9834702 86.1597686,81.6515785 85.8332749,81.3250847 C73.5635061,69.055316 53.6702804,69.055316 41.4005116,81.3250847 L30,69.9245731 Z M52,92.8433298 C58.457773,86.3855567 68.9278918,86.3855567 75.3856649,92.8433298 C75.7137981,93.171463 76.0252582,93.5099557 76.3200452,93.8577549 L64.6672351,105.510565 L52,92.8433298 Z"/>
</svg>
